SplineFontDB: 3.2
FontName: ClassWizCWDisplayExt-Regular
FullName: ClassWiz CW Display Ext Regular
FamilyName: ClassWiz CW Display Ext
Weight: Regular
Copyright: Copyright (c) 2025, Hayden Wong (https://github.com/haydenwong7bm/),\nCopyright (c) 2023-2024, Windy Deng (windy0deng@gmail.com),\nCopyright (c) 2023-2024, CASIO Computer Co., Ltd (https:www.casio.com).
Version: 3.6
ItalicAngle: 0
UnderlinePosition: -20
UnderlineWidth: 10
Ascent: 112
Descent: 28
InvalidEm: 0
sfntRevision: 0x00030189
LayerCount: 2
Layer: 0 0 "Back" 1
Layer: 1 0 "Fore" 0
XUID: [1021 77 592130673 25671]
StyleMap: 0x0040
FSType: 0
OS2Version: 4
OS2_WeightWidthSlopeOnly: 0
OS2_UseTypoMetrics: 1
CreationTime: 1731231796
ModificationTime: 1738680872
PfmFamily: 81
TTFWeight: 400
TTFWidth: 5
LineGap: 100
VLineGap: 0
Panose: 0 0 0 0 0 0 0 0 0 0
OS2TypoAscent: 120
OS2TypoAOffset: 0
OS2TypoDescent: -10
OS2TypoDOffset: 0
OS2TypoLinegap: 20
OS2WinAscent: 140
OS2WinAOffset: 0
OS2WinDescent: 30
OS2WinDOffset: 0
HheadAscent: 750
HheadAOffset: 0
HheadDescent: -250
HheadDOffset: 0
OS2SubXSize: 650
OS2SubYSize: 600
OS2SubXOff: 0
OS2SubYOff: 75
OS2SupXSize: 650
OS2SupYSize: 600
OS2SupXOff: 0
OS2SupYOff: 350
OS2StrikeYSize: 50
OS2StrikeYPos: 300
OS2CapHeight: 120
OS2XHeight: 90
OS2Vendor: 'NONE'
OS2CodePages: 40060007.00000000
OS2UnicodeRanges: 20000207.18072001.00000000.00000000
Lookup: 1 0 0 "'aalt' Access All Alternates lookup 0" { "'aalt' Access All Alternates lookup 0 subtable"  } ['aalt' ('DFLT' <'dflt' > 'cyrl' <'dflt' > 'grek' <'dflt' > 'hani' <'dflt' > 'kana' <'dflt' > 'latn' <'dflt' > ) ]
Lookup: 1 0 0 "Single Substitution lookup 1" { "Single Substitution lookup 1 subtable"  } []
Lookup: 4 0 0 "Ligature Substitution lookup 2" { "Ligature Substitution lookup 2 subtable"  } []
Lookup: 1 0 0 "Single Substitution lookup 3" { "Single Substitution lookup 3 subtable"  } []
Lookup: 4 0 0 "Ligature Substitution lookup 4" { "Ligature Substitution lookup 4 subtable"  } []

StartChar: .notdef
Encoding: 1114112 -1 0
Width: 110
GlyphClass: 1
Flags: W
LayerCount: 2
Fore
SplineSet
0 -10 m 1
 0 120 l 1
 100 120 l 1
 100 -10 l 1
 0 -10 l 1
10 0 m 1
 90 0 l 1
 90 110 l 1
 10 110 l 1
 10 0 l 1
20 70 m 1
 20 90 l 1
 30 90 l 1
 30 100 l 1
 70 100 l 1
 70 90 l 1
 80 90 l 1
 80 60 l 1
 70 60 l 1
 70 50 l 1
 60 50 l 1
 60 40 l 1
 40 40 l 1
 40 60 l 1
 50 60 l 1
 50 70 l 1
 60 70 l 1
 60 80 l 1
 40 80 l 1
 40 70 l 1
 20 70 l 1
40 10 m 1
 40 30 l 1
 60 30 l 1
 60 10 l 1
 40 10 l 1
EndSplineSet
EndChar

StartChar: C
Encoding: 67 67 1
Width: 110
GlyphClass: 1
Flags: W
LayerCount: 2
Fore
SplineSet
20 20 m 1
 20 100 l 1
 30 100 l 1
 30 110 l 1
 40 110 l 1
 40 120 l 1
 90 120 l 1
 90 110 l 1
 100 110 l 1
 100 90 l 1
 80 90 l 1
 80 100 l 1
 50 100 l 1
 50 90 l 1
 40 90 l 1
 40 30 l 1
 50 30 l 1
 50 20 l 1
 80 20 l 1
 80 30 l 1
 100 30 l 1
 100 10 l 1
 90 10 l 1
 90 0 l 1
 40 0 l 1
 40 10 l 1
 30 10 l 1
 30 20 l 1
 20 20 l 1
EndSplineSet
Substitution2: "'ss01' Style Set 1 lookup 5 subtable" HexC-nCr
Substitution2: "'aalt' Access All Alternates lookup 0 subtable" HexC-nCr
EndChar

StartChar: P
Encoding: 80 80 2
Width: 110
GlyphClass: 1
Flags: W
LayerCount: 2
Fore
SplineSet
20 0 m 1
 20 120 l 1
 90 120 l 1
 90 110 l 1
 100 110 l 1
 100 60 l 1
 90 60 l 1
 90 50 l 1
 40 50 l 1
 40 0 l 1
 20 0 l 1
40 100 m 1
 40 70 l 1
 80 70 l 1
 80 100 l 1
 40 100 l 1
EndSplineSet
Substitution2: "'ss01' Style Set 1 lookup 5 subtable" nPr
Substitution2: "'aalt' Access All Alternates lookup 0 subtable" nPr
EndChar

StartChar: R
Encoding: 82 82 3
Width: 110
GlyphClass: 1
Flags: W
LayerCount: 2
Fore
SplineSet
20 0 m 1
 20 120 l 1
 90 120 l 1
 90 110 l 1
 100 110 l 1
 100 60 l 1
 90 60 l 1
 90 50 l 1
 80 50 l 1
 80 40 l 1
 90 40 l 1
 90 20 l 1
 100 20 l 1
 100 0 l 1
 80 0 l 1
 80 10 l 1
 70 10 l 1
 70 30 l 1
 60 30 l 1
 60 50 l 1
 40 50 l 1
 40 0 l 1
 20 0 l 1
40 100 m 1
 40 70 l 1
 80 70 l 1
 80 100 l 1
 40 100 l 1
EndSplineSet
EndChar

StartChar: B
Encoding: 66 66 4
Width: 110
GlyphClass: 1
Flags: W
LayerCount: 2
Fore
SplineSet
20 0 m 1
 20 120 l 1
 90 120 l 1
 90 110 l 1
 100 110 l 1
 100 70 l 1
 90 70 l 1
 90 60 l 1
 100 60 l 1
 100 10 l 1
 90 10 l 1
 90 0 l 1
 20 0 l 1
40 100 m 1
 40 70 l 1
 80 70 l 1
 80 100 l 1
 40 100 l 1
40 20 m 1
 80 20 l 1
 80 50 l 1
 40 50 l 1
 40 20 l 1
EndSplineSet
Substitution2: "'ss01' Style Set 1 lookup 5 subtable" HexB
Substitution2: "'aalt' Access All Alternates lookup 0 subtable" HexB
EndChar

StartChar: G
Encoding: 71 71 5
Width: 110
GlyphClass: 1
Flags: W
LayerCount: 2
Fore
SplineSet
20 20 m 1
 20 100 l 1
 30 100 l 1
 30 110 l 1
 40 110 l 1
 40 120 l 1
 90 120 l 1
 90 110 l 1
 100 110 l 1
 100 90 l 1
 80 90 l 1
 80 100 l 1
 50 100 l 1
 50 90 l 1
 40 90 l 1
 40 30 l 1
 50 30 l 1
 50 20 l 1
 80 20 l 1
 80 50 l 1
 60 50 l 1
 60 70 l 1
 100 70 l 1
 100 10 l 1
 90 10 l 1
 90 0 l 1
 40 0 l 1
 40 10 l 1
 30 10 l 1
 30 20 l 1
 20 20 l 1
EndSplineSet
EndChar

StartChar: O
Encoding: 79 79 6
Width: 110
GlyphClass: 1
Flags: W
LayerCount: 2
Fore
SplineSet
20 20 m 1
 20 100 l 1
 30 100 l 1
 30 110 l 1
 40 110 l 1
 40 120 l 1
 90 120 l 1
 90 110 l 1
 100 110 l 1
 100 100 l 1
 110 100 l 1
 110 20 l 1
 100 20 l 1
 100 10 l 1
 90 10 l 1
 90 0 l 1
 40 0 l 1
 40 10 l 1
 30 10 l 1
 30 20 l 1
 20 20 l 1
50 20 m 1
 80 20 l 1
 80 30 l 1
 90 30 l 1
 90 90 l 1
 80 90 l 1
 80 100 l 1
 50 100 l 1
 50 90 l 1
 40 90 l 1
 40 30 l 1
 50 30 l 1
 50 20 l 1
EndSplineSet
EndChar

StartChar: Q
Encoding: 81 81 7
Width: 110
GlyphClass: 1
Flags: W
LayerCount: 2
Fore
SplineSet
20 20 m 1
 20 100 l 1
 30 100 l 1
 30 110 l 1
 40 110 l 1
 40 120 l 1
 90 120 l 1
 90 110 l 1
 100 110 l 1
 100 100 l 1
 110 100 l 1
 110 20 l 1
 100 20 l 1
 100 10 l 1
 110 10 l 1
 110 -10 l 1
 90 -10 l 1
 90 0 l 1
 40 0 l 1
 40 10 l 1
 30 10 l 1
 30 20 l 1
 20 20 l 1
40 40 m 1
 50 40 l 1
 50 50 l 1
 80 50 l 1
 80 40 l 1
 90 40 l 1
 90 90 l 1
 80 90 l 1
 80 100 l 1
 50 100 l 1
 50 90 l 1
 40 90 l 1
 40 40 l 1
50 20 m 1
 80 20 l 1
 80 30 l 1
 50 30 l 1
 50 20 l 1
EndSplineSet
EndChar

StartChar: T
Encoding: 84 84 8
Width: 110
GlyphClass: 1
Flags: W
LayerCount: 2
Fore
SplineSet
20 100 m 1
 20 120 l 1
 100 120 l 1
 100 100 l 1
 70 100 l 1
 70 0 l 1
 50 0 l 1
 50 100 l 1
 20 100 l 1
EndSplineSet
EndChar

StartChar: D
Encoding: 68 68 9
Width: 110
GlyphClass: 1
Flags: W
LayerCount: 2
Fore
SplineSet
100 20 m 1
 90 20 l 1
 90 10 l 1
 80 10 l 1
 80 0 l 1
 20 0 l 1
 20 120 l 1
 80 120 l 1
 80 110 l 1
 90 110 l 1
 90 100 l 1
 100 100 l 1
 100 20 l 1
40 20 m 1
 70 20 l 1
 70 30 l 1
 80 30 l 1
 80 90 l 1
 70 90 l 1
 70 100 l 1
 40 100 l 1
 40 20 l 1
EndSplineSet
Substitution2: "'ss01' Style Set 1 lookup 5 subtable" HexD
Substitution2: "'aalt' Access All Alternates lookup 0 subtable" HexD
EndChar

StartChar: F
Encoding: 70 70 10
Width: 110
GlyphClass: 1
Flags: W
LayerCount: 2
Fore
SplineSet
20 0 m 1
 20 120 l 1
 100 120 l 1
 100 100 l 1
 40 100 l 1
 40 70 l 1
 90 70 l 1
 90 50 l 1
 40 50 l 1
 40 0 l 1
 20 0 l 1
EndSplineSet
Substitution2: "'ss01' Style Set 1 lookup 5 subtable" HexF
Substitution2: "'aalt' Access All Alternates lookup 0 subtable" HexF
EndChar

StartChar: E
Encoding: 69 69 11
Width: 110
GlyphClass: 1
Flags: W
LayerCount: 2
Fore
SplineSet
20 0 m 1
 20 120 l 1
 100 120 l 1
 100 100 l 1
 40 100 l 1
 40 70 l 1
 90 70 l 1
 90 50 l 1
 40 50 l 1
 40 20 l 1
 100 20 l 1
 100 0 l 1
 20 0 l 1
EndSplineSet
Substitution2: "'ss01' Style Set 1 lookup 5 subtable" HexE
Substitution2: "'aalt' Access All Alternates lookup 0 subtable" HexE
EndChar

StartChar: I
Encoding: 73 73 12
Width: 110
GlyphClass: 1
Flags: W
LayerCount: 2
Fore
SplineSet
40 100 m 1
 40 120 l 1
 100 120 l 1
 100 100 l 1
 80 100 l 1
 80 20 l 1
 100 20 l 1
 100 0 l 1
 40 0 l 1
 40 20 l 1
 60 20 l 1
 60 100 l 1
 40 100 l 1
EndSplineSet
EndChar

StartChar: L
Encoding: 76 76 13
Width: 110
GlyphClass: 1
Flags: W
LayerCount: 2
Fore
SplineSet
20 0 m 1
 20 120 l 1
 40 120 l 1
 40 20 l 1
 100 20 l 1
 100 0 l 1
 20 0 l 1
EndSplineSet
EndChar

StartChar: H
Encoding: 72 72 14
Width: 104
GlyphClass: 1
Flags: W
LayerCount: 2
Fore
SplineSet
20 0 m 1
 20 120 l 1
 40 120 l 1
 40 70 l 1
 80 70 l 1
 80 120 l 1
 100 120 l 1
 100 0 l 1
 80 0 l 1
 80 50 l 1
 40 50 l 1
 40 0 l 1
 20 0 l 1
EndSplineSet
EndChar

StartChar: zero
Encoding: 48 48 15
Width: 110
GlyphClass: 1
Flags: W
LayerCount: 2
Fore
SplineSet
20 10 m 1
 20 110 l 1
 30 110 l 1
 30 120 l 1
 90 120 l 1
 90 110 l 1
 100 110 l 1
 100 10 l 1
 90 10 l 1
 90 0 l 1
 30 0 l 1
 30 10 l 1
 20 10 l 1
40 20 m 1
 80 20 l 1
 80 100 l 1
 40 100 l 1
 40 20 l 1
EndSplineSet
EndChar

StartChar: eight
Encoding: 56 56 16
Width: 110
GlyphClass: 1
Flags: W
LayerCount: 2
Fore
SplineSet
20 70 m 1
 20 110 l 1
 30 110 l 1
 30 120 l 1
 90 120 l 1
 90 110 l 1
 100 110 l 1
 100 70 l 1
 90 70 l 1
 90 60 l 1
 100 60 l 1
 100 10 l 1
 90 10 l 1
 90 0 l 1
 30 0 l 1
 30 10 l 1
 20 10 l 1
 20 60 l 1
 30 60 l 1
 30 70 l 1
 20 70 l 1
40 70 m 1
 80 70 l 1
 80 100 l 1
 40 100 l 1
 40 70 l 1
40 20 m 1
 80 20 l 1
 80 50 l 1
 40 50 l 1
 40 20 l 1
EndSplineSet
EndChar

StartChar: three
Encoding: 51 51 17
Width: 110
GlyphClass: 1
Flags: W
LayerCount: 2
Fore
SplineSet
80 100 m 1
 40 100 l 1
 40 90 l 1
 20 90 l 1
 20 110 l 1
 30 110 l 1
 30 120 l 1
 90 120 l 1
 90 110 l 1
 100 110 l 1
 100 70 l 1
 90 70 l 1
 90 60 l 1
 100 60 l 1
 100 10 l 1
 90 10 l 1
 90 0 l 1
 30 0 l 1
 30 10 l 1
 20 10 l 1
 20 30 l 1
 40 30 l 1
 40 20 l 1
 80 20 l 1
 80 50 l 1
 40 50 l 1
 40 70 l 1
 80 70 l 1
 80 100 l 1
EndSplineSet
EndChar

StartChar: six
Encoding: 54 54 18
Width: 110
GlyphClass: 1
Flags: W
LayerCount: 2
Fore
SplineSet
40 100 m 1
 40 70 l 1
 90 70 l 1
 90 60 l 1
 100 60 l 1
 100 10 l 1
 90 10 l 1
 90 0 l 1
 30 0 l 1
 30 10 l 1
 20 10 l 1
 20 110 l 1
 30 110 l 1
 30 120 l 1
 90 120 l 1
 90 110 l 1
 100 110 l 1
 100 90 l 1
 80 90 l 1
 80 100 l 1
 40 100 l 1
40 20 m 1
 80 20 l 1
 80 50 l 1
 40 50 l 1
 40 20 l 1
EndSplineSet
EndChar

StartChar: nine
Encoding: 57 57 19
Width: 110
GlyphClass: 1
Flags: W
LayerCount: 2
Fore
SplineSet
80 20 m 1
 80 50 l 1
 30 50 l 1
 30 60 l 1
 20 60 l 1
 20 110 l 1
 30 110 l 1
 30 120 l 1
 90 120 l 1
 90 110 l 1
 100 110 l 1
 100 10 l 1
 90 10 l 1
 90 0 l 1
 30 0 l 1
 30 10 l 1
 20 10 l 1
 20 30 l 1
 40 30 l 1
 40 20 l 1
 80 20 l 1
80 100 m 1
 40 100 l 1
 40 70 l 1
 80 70 l 1
 80 100 l 1
EndSplineSet
EndChar

StartChar: U
Encoding: 85 85 20
Width: 110
GlyphClass: 1
Flags: W
LayerCount: 2
Fore
SplineSet
30 10 m 1
 20 10 l 1
 20 120 l 1
 40 120 l 1
 40 20 l 1
 80 20 l 1
 80 120 l 1
 100 120 l 1
 100 10 l 1
 90 10 l 1
 90 0 l 1
 30 0 l 1
 30 10 l 1
EndSplineSet
EndChar

StartChar: bar
Encoding: 124 124 21
Width: 110
VWidth: 0
GlyphClass: 1
Flags: HW
LayerCount: 2
Fore
SplineSet
40 120 m 261
 60 120 l 261
 60 0 l 261
 40 0 l 261
 40 120 l 261
EndSplineSet
Substitution2: "'ss02' Style Set 2 lookup 10 subtable" bar.ss02
Substitution2: "'aalt' Access All Alternates lookup 0 subtable" bar.ss01
Substitution2: "'ss01' Style Set 1 lookup 5 subtable" bar.ss01
EndChar

StartChar: plus
Encoding: 43 43 22
Width: 110
GlyphClass: 1
Flags: W
LayerCount: 2
Fore
SplineSet
40 110 m 5
 60 110 l 5
 60 70 l 5
 100 70 l 5
 100 50 l 5
 60 50 l 5
 60 10 l 5
 40 10 l 5
 40 50 l 5
 0 50 l 5
 0 70 l 5
 40 70 l 5
 40 110 l 5
EndSplineSet
EndChar

StartChar: hyphen
Encoding: 45 45 23
Width: 110
GlyphClass: 1
Flags: W
LayerCount: 2
Fore
SplineSet
0 70 m 5
 100 70 l 5
 100 50 l 5
 0 50 l 5
 0 70 l 5
EndSplineSet
EndChar

StartChar: five
Encoding: 53 53 24
Width: 110
GlyphClass: 1
Flags: W
LayerCount: 2
Fore
SplineSet
100 100 m 1
 40 100 l 1
 40 80 l 1
 90 80 l 1
 90 70 l 1
 100 70 l 1
 100 10 l 1
 90 10 l 1
 90 0 l 1
 30 0 l 1
 30 10 l 1
 20 10 l 1
 20 30 l 1
 40 30 l 1
 40 20 l 1
 80 20 l 1
 80 60 l 1
 20 60 l 1
 20 120 l 1
 100 120 l 1
 100 100 l 1
EndSplineSet
EndChar

StartChar: J
Encoding: 74 74 25
Width: 110
GlyphClass: 1
Flags: W
LayerCount: 2
Fore
SplineSet
40 -10 m 1
 40 10 l 1
 70 10 l 1
 70 20 l 1
 80 20 l 1
 80 120 l 1
 100 120 l 1
 100 10 l 1
 90 10 l 1
 90 0 l 1
 80 0 l 1
 80 -10 l 1
 40 -10 l 1
EndSplineSet
EndChar

StartChar: A
Encoding: 65 65 26
Width: 110
GlyphClass: 1
Flags: W
LayerCount: 2
Fore
SplineSet
20 0 m 1
 20 50 l 1
 30 50 l 1
 30 80 l 1
 40 80 l 1
 40 100 l 1
 50 100 l 1
 50 120 l 1
 80 120 l 1
 80 100 l 1
 90 100 l 1
 90 80 l 1
 100 80 l 1
 100 50 l 1
 110 50 l 1
 110 0 l 1
 90 0 l 1
 90 30 l 1
 40 30 l 1
 40 0 l 1
 20 0 l 1
80 50 m 1
 80 70 l 1
 70 70 l 1
 70 90 l 1
 60 90 l 1
 60 70 l 1
 50 70 l 1
 50 50 l 1
 80 50 l 1
EndSplineSet
Substitution2: "'ss01' Style Set 1 lookup 5 subtable" HexA
Substitution2: "'aalt' Access All Alternates lookup 0 subtable" HexA
EndChar

StartChar: K
Encoding: 75 75 27
Width: 110
GlyphClass: 1
Flags: W
LayerCount: 2
Fore
SplineSet
20 0 m 1
 20 120 l 1
 40 120 l 1
 40 80 l 1
 50 80 l 1
 50 90 l 1
 60 90 l 1
 60 100 l 1
 70 100 l 1
 70 110 l 1
 80 110 l 1
 80 120 l 1
 100 120 l 1
 100 100 l 1
 90 100 l 1
 90 90 l 1
 80 90 l 1
 80 80 l 1
 70 80 l 1
 70 70 l 1
 80 70 l 1
 80 50 l 1
 90 50 l 1
 90 30 l 1
 100 30 l 1
 100 0 l 1
 80 0 l 1
 80 20 l 1
 70 20 l 1
 70 40 l 1
 60 40 l 1
 60 60 l 1
 50 60 l 1
 50 50 l 1
 40 50 l 1
 40 0 l 1
 20 0 l 1
EndSplineSet
EndChar

StartChar: M
Encoding: 77 77 28
Width: 110
GlyphClass: 1
Flags: W
LayerCount: 2
Fore
SplineSet
20 0 m 1
 20 120 l 1
 40 120 l 1
 40 90 l 1
 50 90 l 1
 50 60 l 1
 70 60 l 1
 70 90 l 1
 80 90 l 1
 80 120 l 1
 100 120 l 1
 100 0 l 1
 80 0 l 1
 80 40 l 1
 70 40 l 1
 70 0 l 1
 50 0 l 1
 50 40 l 1
 40 40 l 1
 40 0 l 1
 20 0 l 1
EndSplineSet
EndChar

StartChar: N
Encoding: 78 78 29
Width: 110
GlyphClass: 1
Flags: W
LayerCount: 2
Fore
SplineSet
20 0 m 1
 20 120 l 1
 40 120 l 1
 40 110 l 1
 50 110 l 1
 50 90 l 1
 60 90 l 1
 60 70 l 1
 70 70 l 1
 70 50 l 1
 80 50 l 1
 80 120 l 1
 100 120 l 1
 100 0 l 1
 80 0 l 1
 80 10 l 1
 70 10 l 1
 70 30 l 1
 60 30 l 1
 60 50 l 1
 50 50 l 1
 50 70 l 1
 40 70 l 1
 40 0 l 1
 20 0 l 1
EndSplineSet
EndChar

StartChar: S
Encoding: 83 83 30
Width: 110
GlyphClass: 1
Flags: W
LayerCount: 2
Fore
SplineSet
90 90 m 1
 90 100 l 1
 50 100 l 1
 50 90 l 1
 40 90 l 1
 40 80 l 1
 50 80 l 1
 50 70 l 1
 90 70 l 1
 90 60 l 1
 100 60 l 1
 100 50 l 1
 110 50 l 1
 110 20 l 1
 100 20 l 1
 100 10 l 1
 90 10 l 1
 90 0 l 1
 30 0 l 1
 30 10 l 1
 20 10 l 1
 20 30 l 1
 40 30 l 1
 40 20 l 1
 80 20 l 1
 80 30 l 1
 90 30 l 1
 90 40 l 1
 80 40 l 1
 80 50 l 1
 40 50 l 1
 40 60 l 1
 30 60 l 1
 30 70 l 1
 20 70 l 1
 20 100 l 1
 30 100 l 1
 30 110 l 1
 40 110 l 1
 40 120 l 1
 100 120 l 1
 100 110 l 1
 110 110 l 1
 110 90 l 1
 90 90 l 1
EndSplineSet
EndChar

StartChar: V
Encoding: 86 86 31
Width: 110
GlyphClass: 1
Flags: W
LayerCount: 2
Fore
SplineSet
20 80 m 1
 20 120 l 1
 40 120 l 1
 40 90 l 1
 50 90 l 1
 50 60 l 1
 60 60 l 1
 60 30 l 1
 70 30 l 1
 70 60 l 1
 80 60 l 1
 80 90 l 1
 90 90 l 1
 90 120 l 1
 110 120 l 1
 110 80 l 1
 100 80 l 1
 100 50 l 1
 90 50 l 1
 90 20 l 1
 80 20 l 1
 80 0 l 1
 50 0 l 1
 50 20 l 1
 40 20 l 1
 40 50 l 1
 30 50 l 1
 30 80 l 1
 20 80 l 1
EndSplineSet
EndChar

StartChar: W
Encoding: 87 87 32
Width: 110
GlyphClass: 1
Flags: W
LayerCount: 2
Fore
SplineSet
100 120 m 1
 100 50 l 1
 90 50 l 1
 90 0 l 1
 70 0 l 1
 70 30 l 1
 50 30 l 1
 50 0 l 1
 30 0 l 1
 30 50 l 1
 20 50 l 1
 20 120 l 1
 40 120 l 1
 40 50 l 1
 50 50 l 1
 50 100 l 1
 70 100 l 1
 70 50 l 1
 80 50 l 1
 80 120 l 1
 100 120 l 1
EndSplineSet
EndChar

StartChar: X
Encoding: 88 88 33
Width: 110
GlyphClass: 1
Flags: W
LayerCount: 2
Fore
SplineSet
20 90 m 1
 20 120 l 1
 40 120 l 1
 40 100 l 1
 50 100 l 1
 50 80 l 1
 70 80 l 1
 70 100 l 1
 80 100 l 1
 80 120 l 1
 100 120 l 1
 100 90 l 1
 90 90 l 1
 90 70 l 1
 80 70 l 1
 80 50 l 1
 90 50 l 1
 90 30 l 1
 100 30 l 1
 100 0 l 1
 80 0 l 1
 80 20 l 1
 70 20 l 1
 70 40 l 1
 50 40 l 1
 50 20 l 1
 40 20 l 1
 40 0 l 1
 20 0 l 1
 20 30 l 1
 30 30 l 1
 30 50 l 1
 40 50 l 1
 40 70 l 1
 30 70 l 1
 30 90 l 1
 20 90 l 1
EndSplineSet
EndChar

StartChar: Y
Encoding: 89 89 34
Width: 110
GlyphClass: 1
Flags: W
LayerCount: 2
Fore
SplineSet
80 50 m 1
 70 50 l 1
 70 0 l 1
 50 0 l 1
 50 50 l 1
 40 50 l 1
 40 70 l 5
 30 70 l 5
 30 90 l 5
 20 90 l 5
 20 120 l 5
 40 120 l 5
 40 100 l 5
 50 100 l 5
 50 80 l 5
 70 80 l 5
 70 100 l 5
 80 100 l 5
 80 120 l 5
 100 120 l 5
 100 90 l 5
 90 90 l 5
 90 70 l 5
 80 70 l 5
 80 50 l 1
EndSplineSet
EndChar

StartChar: Z
Encoding: 90 90 35
Width: 110
GlyphClass: 1
Flags: W
LayerCount: 2
Fore
SplineSet
20 100 m 1
 20 120 l 1
 100 120 l 1
 100 90 l 1
 90 90 l 1
 90 80 l 1
 80 80 l 1
 80 60 l 1
 70 60 l 1
 70 50 l 1
 60 50 l 1
 60 30 l 1
 50 30 l 1
 50 20 l 1
 100 20 l 1
 100 0 l 1
 20 0 l 1
 20 30 l 1
 30 30 l 1
 30 40 l 1
 40 40 l 1
 40 60 l 1
 50 60 l 1
 50 70 l 1
 60 70 l 1
 60 90 l 1
 70 90 l 1
 70 100 l 1
 20 100 l 1
EndSplineSet
EndChar

StartChar: one
Encoding: 49 49 36
Width: 110
GlyphClass: 1
Flags: W
LayerCount: 2
Fore
SplineSet
70 0 m 1
 70 90 l 1
 60 90 l 1
 60 80 l 1
 40 80 l 1
 40 100 l 1
 50 100 l 1
 50 110 l 1
 60 110 l 1
 60 120 l 1
 90 120 l 1
 90 0 l 1
 70 0 l 1
EndSplineSet
EndChar

StartChar: four
Encoding: 52 52 37
Width: 110
GlyphClass: 1
Flags: W
LayerCount: 2
Fore
SplineSet
70 0 m 1
 70 20 l 1
 20 20 l 1
 20 60 l 1
 30 60 l 1
 30 80 l 1
 40 80 l 1
 40 100 l 1
 50 100 l 1
 50 110 l 1
 60 110 l 1
 60 120 l 1
 90 120 l 1
 90 40 l 1
 100 40 l 1
 100 20 l 1
 90 20 l 1
 90 0 l 1
 70 0 l 1
40 40 m 1
 70 40 l 1
 70 90 l 1
 60 90 l 1
 60 70 l 1
 50 70 l 1
 50 50 l 1
 40 50 l 1
 40 40 l 1
EndSplineSet
EndChar

StartChar: seven
Encoding: 55 55 38
Width: 110
GlyphClass: 1
Flags: W
LayerCount: 2
Fore
SplineSet
40 0 m 1
 40 30 l 1
 50 30 l 1
 50 50 l 1
 60 50 l 1
 60 70 l 1
 70 70 l 1
 70 90 l 1
 80 90 l 1
 80 100 l 1
 20 100 l 1
 20 120 l 1
 100 120 l 1
 100 80 l 1
 90 80 l 1
 90 60 l 1
 80 60 l 1
 80 40 l 1
 70 40 l 1
 70 20 l 1
 60 20 l 1
 60 0 l 1
 40 0 l 1
EndSplineSet
EndChar

StartChar: two
Encoding: 50 50 39
Width: 110
GlyphClass: 1
Flags: W
LayerCount: 2
Fore
SplineSet
20 0 m 1
 20 30 l 1
 30 30 l 1
 30 40 l 1
 40 40 l 1
 40 50 l 1
 50 50 l 1
 50 60 l 1
 70 60 l 1
 70 70 l 1
 80 70 l 1
 80 100 l 1
 40 100 l 1
 40 90 l 1
 20 90 l 1
 20 110 l 1
 30 110 l 1
 30 120 l 1
 90 120 l 1
 90 110 l 1
 100 110 l 1
 100 60 l 1
 90 60 l 1
 90 50 l 1
 80 50 l 1
 80 40 l 1
 60 40 l 1
 60 30 l 1
 50 30 l 1
 50 20 l 1
 100 20 l 1
 100 0 l 1
 20 0 l 1
EndSplineSet
EndChar

StartChar: percent
Encoding: 37 37 40
Width: 110
GlyphClass: 1
Flags: W
LayerCount: 2
Fore
SplineSet
0 80 m 5
 0 110 l 5
 10 110 l 5
 10 120 l 5
 40 120 l 5
 40 110 l 5
 50 110 l 5
 50 90 l 1
 60 90 l 1
 60 110 l 1
 70 110 l 1
 70 120 l 1
 90 120 l 1
 90 100 l 1
 80 100 l 1
 80 80 l 1
 70 80 l 1
 70 60 l 1
 60 60 l 1
 60 50 l 1
 90 50 l 1
 90 40 l 1
 100 40 l 1
 100 10 l 1
 90 10 l 1
 90 0 l 1
 60 0 l 1
 60 10 l 1
 50 10 l 1
 50 30 l 1
 40 30 l 1
 40 10 l 1
 30 10 l 1
 30 0 l 1
 10 0 l 1
 10 20 l 1
 20 20 l 1
 20 40 l 1
 30 40 l 1
 30 60 l 1
 40 60 l 1
 40 70 l 1
 10 70 l 5
 10 80 l 5
 0 80 l 5
30 110 m 5
 20 110 l 5
 20 80 l 5
 30 80 l 5
 30 110 l 5
40 70 m 1
 50 70 l 1
 50 80 l 1
 40 80 l 5
 40 70 l 1
60 40 m 1
 60 50 l 1
 50 50 l 1
 50 40 l 1
 60 40 l 1
80 10 m 1
 80 40 l 1
 70 40 l 1
 70 10 l 1
 80 10 l 1
EndSplineSet
EndChar

StartChar: colon
Encoding: 58 58 41
Width: 110
GlyphClass: 1
Flags: W
LayerCount: 2
Fore
SplineSet
80 70 m 1
 80 100 l 1
 110 100 l 1
 110 70 l 1
 80 70 l 1
80 10 m 1
 80 40 l 1
 110 40 l 1
 110 10 l 1
 80 10 l 1
EndSplineSet
EndChar

StartChar: semicolon
Encoding: 59 59 42
Width: 110
GlyphClass: 1
Flags: W
LayerCount: 2
Fore
SplineSet
80 70 m 1
 80 100 l 1
 110 100 l 1
 110 70 l 1
 80 70 l 1
80 -10 m 1
 80 40 l 1
 110 40 l 1
 110 10 l 1
 100 10 l 1
 100 -10 l 1
 80 -10 l 1
EndSplineSet
EndChar

StartChar: comma
Encoding: 44 44 43
Width: 110
GlyphClass: 1
Flags: W
LayerCount: 2
Fore
SplineSet
40 -10 m 1
 40 40 l 1
 70 40 l 1
 70 10 l 1
 60 10 l 1
 60 -10 l 1
 40 -10 l 1
EndSplineSet
EndChar

StartChar: asterisk
Encoding: 42 42 44
Width: 110
GlyphClass: 1
Flags: W
LayerCount: 2
Fore
SplineSet
70 70 m 1
 70 80 l 1
 90 80 l 1
 90 70 l 1
 100 70 l 1
 100 50 l 1
 90 50 l 1
 90 40 l 1
 70 40 l 1
 70 50 l 1
 60 50 l 1
 60 70 l 1
 70 70 l 1
EndSplineSet
EndChar

StartChar: period
Encoding: 46 46 45
Width: 110
GlyphClass: 1
Flags: W
LayerCount: 2
Fore
SplineSet
50 30 m 1
 50 40 l 1
 70 40 l 1
 70 30 l 1
 80 30 l 1
 80 10 l 1
 70 10 l 1
 70 0 l 1
 50 0 l 1
 50 10 l 1
 40 10 l 1
 40 30 l 1
 50 30 l 1
EndSplineSet
EndChar

StartChar: multiply
Encoding: 215 215 46
Width: 110
GlyphClass: 1
Flags: W
LayerCount: 2
Fore
SplineSet
10 90 m 1
 0 90 l 1
 0 100 l 1
 10 100 l 1
 10 110 l 1
 20 110 l 1
 20 100 l 1
 30 100 l 1
 30 90 l 1
 40 90 l 1
 40 80 l 1
 60 80 l 1
 60 90 l 1
 70 90 l 1
 70 100 l 1
 80 100 l 1
 80 110 l 1
 90 110 l 1
 90 100 l 1
 100 100 l 1
 100 90 l 1
 90 90 l 1
 90 80 l 1
 80 80 l 1
 80 70 l 1
 70 70 l 1
 70 50 l 1
 80 50 l 1
 80 40 l 1
 90 40 l 1
 90 30 l 1
 100 30 l 1
 100 20 l 1
 90 20 l 1
 90 10 l 1
 80 10 l 1
 80 20 l 1
 70 20 l 1
 70 30 l 1
 60 30 l 1
 60 40 l 1
 40 40 l 1
 40 30 l 1
 30 30 l 1
 30 20 l 1
 20 20 l 1
 20 10 l 1
 10 10 l 1
 10 20 l 1
 0 20 l 1
 0 30 l 1
 10 30 l 1
 10 40 l 1
 20 40 l 1
 20 50 l 1
 30 50 l 1
 30 70 l 1
 20 70 l 1
 20 80 l 1
 10 80 l 1
 10 90 l 1
EndSplineSet
EndChar

StartChar: divide
Encoding: 247 247 47
Width: 110
GlyphClass: 1
Flags: W
LayerCount: 2
Fore
SplineSet
40 120 m 1
 60 120 l 1
 60 90 l 1
 40 90 l 1
 40 120 l 1
0 70 m 1
 100 70 l 1
 100 50 l 1
 0 50 l 1
 0 70 l 1
40 30 m 1
 60 30 l 1
 60 0 l 1
 40 0 l 1
 40 30 l 1
EndSplineSet
EndChar

StartChar: quotesingle
Encoding: 39 39 48
Width: 110
GlyphClass: 1
Flags: W
LayerCount: 2
Fore
SplineSet
80 80 m 1
 80 120 l 1
 100 120 l 1
 100 80 l 1
 80 80 l 1
EndSplineSet
EndChar

StartChar: quotedbl
Encoding: 34 34 49
Width: 110
GlyphClass: 1
Flags: W
LayerCount: 2
Fore
SplineSet
40 80 m 1
 40 120 l 1
 60 120 l 1
 60 80 l 1
 40 80 l 1
70 80 m 1
 70 120 l 1
 90 120 l 1
 90 80 l 1
 70 80 l 1
EndSplineSet
EndChar

StartChar: exclam
Encoding: 33 33 50
Width: 110
GlyphClass: 1
Flags: W
LayerCount: 2
Fore
SplineSet
80 120 m 1
 100 120 l 1
 100 40 l 1
 80 40 l 1
 80 120 l 1
80 20 m 1
 100 20 l 1
 100 0 l 1
 80 0 l 1
 80 20 l 1
EndSplineSet
EndChar

StartChar: numbersign
Encoding: 35 35 51
Width: 110
GlyphClass: 1
Flags: W
LayerCount: 2
Fore
SplineSet
40 50 m 1
 40 70 l 1
 30 70 l 1
 30 90 l 1
 50 90 l 1
 50 120 l 1
 70 120 l 1
 70 90 l 1
 80 90 l 1
 80 120 l 1
 100 120 l 1
 100 90 l 1
 110 90 l 1
 110 70 l 1
 90 70 l 1
 90 50 l 1
 100 50 l 1
 100 30 l 1
 80 30 l 1
 80 0 l 1
 60 0 l 1
 60 30 l 1
 50 30 l 1
 50 0 l 1
 30 0 l 1
 30 30 l 1
 20 30 l 1
 20 50 l 1
 40 50 l 1
60 50 m 1
 70 50 l 1
 70 70 l 1
 60 70 l 1
 60 50 l 1
EndSplineSet
EndChar

StartChar: c
Encoding: 99 99 52
Width: 110
GlyphClass: 1
Flags: W
LayerCount: 2
Fore
SplineSet
20 10 m 5
 20 80 l 5
 30 80 l 5
 30 90 l 5
 90 90 l 5
 90 80 l 5
 100 80 l 5
 100 60 l 5
 80 60 l 5
 80 70 l 5
 40 70 l 5
 40 20 l 5
 80 20 l 5
 80 30 l 5
 100 30 l 5
 100 10 l 5
 90 10 l 5
 90 0 l 5
 30 0 l 5
 30 10 l 5
 20 10 l 5
EndSplineSet
Substitution2: "Single Substitution lookup 1 subtable" Calth-gk
EndChar

StartChar: b
Encoding: 98 98 53
Width: 110
GlyphClass: 1
Flags: W
LayerCount: 2
Fore
SplineSet
20 120 m 1
 40 120 l 1
 40 90 l 1
 90 90 l 1
 90 80 l 1
 100 80 l 1
 100 10 l 1
 90 10 l 1
 90 0 l 1
 20 0 l 1
 20 120 l 1
40 20 m 1
 80 20 l 1
 80 70 l 1
 40 70 l 1
 40 20 l 1
EndSplineSet
EndChar

StartChar: d
Encoding: 100 100 54
Width: 110
GlyphClass: 1
Flags: W
LayerCount: 2
Fore
SplineSet
100 120 m 1
 100 0 l 1
 30 0 l 1
 30 10 l 1
 20 10 l 1
 20 80 l 1
 30 80 l 1
 30 90 l 1
 80 90 l 1
 80 120 l 1
 100 120 l 1
80 20 m 1
 80 70 l 1
 40 70 l 1
 40 20 l 1
 80 20 l 1
EndSplineSet
EndChar

StartChar: e
Encoding: 101 101 55
Width: 110
GlyphClass: 1
Flags: W
LayerCount: 2
Fore
SplineSet
20 10 m 1
 20 80 l 1
 30 80 l 1
 30 90 l 1
 90 90 l 1
 90 80 l 1
 100 80 l 1
 100 40 l 1
 40 40 l 1
 40 20 l 1
 80 20 l 1
 80 30 l 1
 100 30 l 1
 100 10 l 1
 90 10 l 1
 90 0 l 1
 30 0 l 1
 30 10 l 1
 20 10 l 1
40 60 m 1
 80 60 l 1
 80 70 l 1
 40 70 l 1
 40 60 l 1
EndSplineSet
EndChar

StartChar: h
Encoding: 104 104 56
Width: 110
GlyphClass: 1
Flags: W
LayerCount: 2
Fore
SplineSet
100 0 m 1
 80 0 l 1
 80 70 l 1
 50 70 l 1
 50 60 l 1
 40 60 l 1
 40 0 l 1
 20 0 l 1
 20 120 l 1
 40 120 l 1
 40 80 l 1
 50 80 l 1
 50 90 l 1
 90 90 l 1
 90 80 l 1
 100 80 l 1
 100 0 l 1
EndSplineSet
Substitution2: "Single Substitution lookup 1 subtable" caltH-gk
EndChar

StartChar: n
Encoding: 110 110 57
Width: 110
GlyphClass: 1
Flags: W
LayerCount: 2
Fore
SplineSet
100 0 m 1
 80 0 l 1
 80 70 l 1
 50 70 l 1
 50 60 l 1
 40 60 l 1
 40 0 l 1
 20 0 l 1
 20 90 l 1
 40 90 l 1
 40 80 l 1
 50 80 l 1
 50 90 l 1
 90 90 l 1
 90 80 l 1
 100 80 l 1
 100 0 l 1
EndSplineSet
EndChar

StartChar: o
Encoding: 111 111 58
Width: 110
GlyphClass: 1
Flags: W
LayerCount: 2
Fore
SplineSet
20 10 m 5
 20 80 l 5
 30 80 l 5
 30 90 l 5
 90 90 l 5
 90 80 l 5
 100 80 l 5
 100 10 l 5
 90 10 l 5
 90 0 l 5
 30 0 l 5
 30 10 l 5
 20 10 l 5
40 20 m 5
 80 20 l 5
 80 70 l 5
 40 70 l 5
 40 20 l 5
EndSplineSet
EndChar

StartChar: p
Encoding: 112 112 59
Width: 110
GlyphClass: 1
Flags: W
LayerCount: 2
Fore
SplineSet
20 -10 m 1
 20 90 l 5
 90 90 l 1
 90 80 l 1
 100 80 l 1
 100 30 l 1
 90 30 l 1
 90 20 l 1
 40 20 l 1
 40 -10 l 1
 20 -10 l 1
40 70 m 5
 40 40 l 5
 80 40 l 1
 80 70 l 1
 40 70 l 5
EndSplineSet
EndChar

StartChar: q
Encoding: 113 113 60
Width: 110
GlyphClass: 1
Flags: W
LayerCount: 2
Fore
SplineSet
100 -10 m 1
 80 -10 l 1
 80 20 l 1
 30 20 l 1
 30 30 l 1
 20 30 l 1
 20 80 l 1
 30 80 l 1
 30 90 l 1
 100 90 l 1
 100 -10 l 1
80 70 m 1
 40 70 l 1
 40 40 l 1
 80 40 l 1
 80 70 l 1
EndSplineSet
EndChar

StartChar: u
Encoding: 117 117 61
Width: 110
GlyphClass: 1
Flags: W
LayerCount: 2
Fore
SplineSet
20 90 m 1
 40 90 l 1
 40 20 l 1
 70 20 l 1
 70 30 l 1
 80 30 l 1
 80 90 l 5
 100 90 l 5
 100 0 l 1
 80 0 l 1
 80 10 l 1
 70 10 l 1
 70 0 l 1
 30 0 l 1
 30 10 l 1
 20 10 l 1
 20 90 l 1
EndSplineSet
EndChar

StartChar: l
Encoding: 108 108 62
Width: 110
GlyphClass: 1
Flags: W
LayerCount: 2
Fore
SplineSet
40 100 m 1
 40 120 l 1
 80 120 l 1
 80 20 l 1
 100 20 l 1
 100 0 l 1
 40 0 l 1
 40 20 l 1
 60 20 l 1
 60 100 l 1
 40 100 l 1
EndSplineSet
EndChar

StartChar: i
Encoding: 105 105 63
Width: 110
GlyphClass: 1
Flags: W
LayerCount: 2
Fore
SplineSet
60 100 m 1
 60 120 l 1
 80 120 l 1
 80 100 l 1
 60 100 l 1
40 70 m 1
 40 90 l 1
 80 90 l 1
 80 20 l 1
 100 20 l 1
 100 0 l 1
 40 0 l 1
 40 20 l 1
 60 20 l 1
 60 70 l 1
 40 70 l 1
EndSplineSet
EndChar

StartChar: j
Encoding: 106 106 64
Width: 110
GlyphClass: 1
Flags: W
LayerCount: 2
Fore
SplineSet
90 100 m 1
 90 120 l 1
 110 120 l 1
 110 100 l 1
 90 100 l 1
70 70 m 1
 70 90 l 1
 110 90 l 1
 110 0 l 1
 100 0 l 1
 100 -10 l 1
 60 -10 l 1
 60 10 l 1
 90 10 l 1
 90 70 l 1
 70 70 l 1
EndSplineSet
EndChar

StartChar: k
Encoding: 107 107 65
Width: 110
GlyphClass: 1
Flags: W
LayerCount: 2
Fore
SplineSet
20 0 m 1
 20 120 l 1
 40 120 l 1
 40 50 l 1
 50 50 l 1
 50 60 l 1
 60 60 l 1
 60 70 l 1
 70 70 l 1
 70 80 l 1
 80 80 l 1
 80 90 l 1
 100 90 l 1
 100 70 l 1
 90 70 l 1
 90 60 l 1
 80 60 l 1
 80 50 l 1
 70 50 l 1
 70 40 l 1
 80 40 l 1
 80 30 l 1
 90 30 l 1
 90 20 l 1
 100 20 l 1
 100 0 l 1
 80 0 l 1
 80 10 l 1
 70 10 l 1
 70 20 l 1
 60 20 l 1
 60 30 l 1
 50 30 l 1
 50 20 l 1
 40 20 l 1
 40 0 l 1
 20 0 l 1
EndSplineSet
Substitution2: "Single Substitution lookup 3 subtable" Kgk
EndChar

StartChar: g
Encoding: 103 103 66
Width: 110
GlyphClass: 1
Flags: W
LayerCount: 2
Fore
SplineSet
20 0 m 1
 20 30 l 1
 30 30 l 1
 30 40 l 1
 40 40 l 1
 40 50 l 1
 30 50 l 1
 30 60 l 1
 20 60 l 1
 20 90 l 1
 30 90 l 1
 30 100 l 1
 100 100 l 1
 100 80 l 1
 90 80 l 1
 90 60 l 1
 80 60 l 1
 80 50 l 1
 60 50 l 1
 60 40 l 1
 90 40 l 1
 90 30 l 1
 100 30 l 1
 100 0 l 1
 90 0 l 1
 90 -10 l 1
 30 -10 l 1
 30 0 l 1
 20 0 l 1
40 70 m 1
 70 70 l 1
 70 80 l 1
 40 80 l 1
 40 70 l 1
40 10 m 1
 80 10 l 1
 80 20 l 1
 40 20 l 1
 40 10 l 1
EndSplineSet
EndChar

StartChar: f
Encoding: 102 102 67
Width: 110
GlyphClass: 1
Flags: W
LayerCount: 2
Fore
SplineSet
20 60 m 1
 20 80 l 1
 40 80 l 1
 40 110 l 1
 50 110 l 1
 50 120 l 1
 90 120 l 1
 90 110 l 1
 100 110 l 1
 100 90 l 1
 80 90 l 1
 80 100 l 1
 60 100 l 1
 60 80 l 1
 90 80 l 1
 90 60 l 1
 60 60 l 1
 60 0 l 1
 40 0 l 1
 40 60 l 1
 20 60 l 1
EndSplineSet
EndChar

StartChar: t
Encoding: 116 116 68
Width: 110
GlyphClass: 1
Flags: W
LayerCount: 2
Fore
SplineSet
20 90 m 1
 40 90 l 1
 40 110 l 1
 60 110 l 1
 60 90 l 1
 90 90 l 1
 90 70 l 1
 60 70 l 1
 60 20 l 1
 90 20 l 1
 90 0 l 1
 50 0 l 1
 50 10 l 1
 40 10 l 1
 40 70 l 1
 20 70 l 1
 20 90 l 1
EndSplineSet
EndChar

StartChar: r
Encoding: 114 114 69
Width: 110
GlyphClass: 1
Flags: W
LayerCount: 2
Fore
SplineSet
110 70 m 1
 70 70 l 1
 70 60 l 1
 60 60 l 1
 60 0 l 1
 40 0 l 1
 40 90 l 1
 60 90 l 1
 60 80 l 1
 70 80 l 1
 70 90 l 1
 110 90 l 1
 110 70 l 1
EndSplineSet
EndChar

StartChar: a
Encoding: 97 97 70
Width: 110
GlyphClass: 1
Flags: W
LayerCount: 2
Fore
SplineSet
90 80 m 5
 100 80 l 5
 100 0 l 5
 30 0 l 5
 30 10 l 5
 20 10 l 5
 20 50 l 5
 30 50 l 5
 30 60 l 5
 80 60 l 5
 80 70 l 5
 30 70 l 5
 30 90 l 5
 90 90 l 5
 90 80 l 5
80 20 m 5
 80 40 l 5
 40 40 l 5
 40 20 l 5
 80 20 l 5
EndSplineSet
Substitution2: "Single Substitution lookup 1 subtable" cAlth-gk
EndChar

StartChar: z
Encoding: 122 122 71
Width: 110
GlyphClass: 1
Flags: W
LayerCount: 2
Fore
SplineSet
20 70 m 1
 20 90 l 1
 100 90 l 1
 100 70 l 1
 90 70 l 1
 90 60 l 1
 80 60 l 1
 80 50 l 1
 70 50 l 1
 70 40 l 1
 60 40 l 1
 60 30 l 1
 50 30 l 1
 50 20 l 1
 100 20 l 1
 100 0 l 1
 20 0 l 1
 20 30 l 1
 30 30 l 1
 30 40 l 1
 40 40 l 1
 40 50 l 1
 50 50 l 1
 50 60 l 1
 60 60 l 1
 60 70 l 1
 20 70 l 1
EndSplineSet
EndChar

StartChar: x
Encoding: 120 120 72
Width: 110
GlyphClass: 1
Flags: W
LayerCount: 2
Fore
SplineSet
30 60 m 1
 30 70 l 1
 20 70 l 1
 20 90 l 1
 40 90 l 1
 40 80 l 1
 50 80 l 1
 50 70 l 1
 70 70 l 1
 70 80 l 1
 80 80 l 1
 80 90 l 1
 100 90 l 1
 100 70 l 1
 90 70 l 1
 90 60 l 1
 80 60 l 1
 80 50 l 1
 70 50 l 1
 70 40 l 1
 80 40 l 1
 80 30 l 1
 90 30 l 1
 90 20 l 1
 100 20 l 1
 100 0 l 1
 80 0 l 1
 80 10 l 1
 70 10 l 1
 70 20 l 1
 50 20 l 1
 50 10 l 1
 40 10 l 1
 40 0 l 1
 20 0 l 1
 20 20 l 1
 30 20 l 1
 30 30 l 1
 40 30 l 1
 40 40 l 1
 50 40 l 1
 50 50 l 1
 40 50 l 1
 40 60 l 1
 30 60 l 1
EndSplineSet
EndChar

StartChar: m
Encoding: 109 109 73
Width: 110
GlyphClass: 1
Flags: W
LayerCount: 2
Fore
SplineSet
60 0 m 1
 40 0 l 1
 40 70 l 1
 30 70 l 1
 30 60 l 1
 20 60 l 1
 20 0 l 1
 0 0 l 1
 0 90 l 1
 20 90 l 1
 20 80 l 1
 30 80 l 1
 30 90 l 1
 50 90 l 1
 50 80 l 1
 60 80 l 1
 60 90 l 1
 90 90 l 1
 90 80 l 1
 100 80 l 1
 100 0 l 1
 80 0 l 1
 80 70 l 1
 70 70 l 1
 70 60 l 1
 60 60 l 1
 60 0 l 1
EndSplineSet
EndChar

StartChar: s
Encoding: 115 115 74
Width: 110
GlyphClass: 1
Flags: W
LayerCount: 2
Fore
SplineSet
20 10 m 1
 20 30 l 1
 40 30 l 1
 40 20 l 1
 80 20 l 1
 80 30 l 1
 60 30 l 1
 60 40 l 1
 30 40 l 1
 30 50 l 1
 20 50 l 1
 20 80 l 1
 30 80 l 1
 30 90 l 1
 90 90 l 1
 90 80 l 1
 100 80 l 1
 100 60 l 1
 80 60 l 1
 80 70 l 1
 40 70 l 1
 40 60 l 1
 70 60 l 1
 70 50 l 1
 90 50 l 1
 90 40 l 1
 100 40 l 1
 100 10 l 1
 90 10 l 1
 90 0 l 1
 30 0 l 1
 30 10 l 1
 20 10 l 1
EndSplineSet
EndChar

StartChar: v
Encoding: 118 118 75
Width: 110
GlyphClass: 1
Flags: W
LayerCount: 2
Fore
SplineSet
20 60 m 1
 20 90 l 1
 40 90 l 1
 40 60 l 1
 50 60 l 1
 50 40 l 1
 70 40 l 1
 70 60 l 1
 80 60 l 1
 80 90 l 1
 100 90 l 1
 100 60 l 1
 90 60 l 1
 90 40 l 1
 80 40 l 1
 80 20 l 1
 70 20 l 1
 70 0 l 1
 50 0 l 1
 50 20 l 1
 40 20 l 1
 40 40 l 1
 30 40 l 1
 30 60 l 1
 20 60 l 1
EndSplineSet
EndChar

StartChar: w
Encoding: 119 119 76
Width: 110
GlyphClass: 1
Flags: W
LayerCount: 2
Fore
SplineSet
10 0 m 1
 10 40 l 1
 0 40 l 1
 0 90 l 1
 20 90 l 1
 20 40 l 1
 30 40 l 1
 30 60 l 1
 40 60 l 1
 40 90 l 1
 60 90 l 1
 60 60 l 1
 70 60 l 1
 70 40 l 1
 80 40 l 1
 80 90 l 1
 100 90 l 1
 100 40 l 1
 90 40 l 1
 90 0 l 1
 70 0 l 1
 70 20 l 1
 60 20 l 1
 60 40 l 1
 40 40 l 1
 40 20 l 1
 30 20 l 1
 30 0 l 1
 10 0 l 1
EndSplineSet
EndChar

StartChar: y
Encoding: 121 121 77
Width: 110
GlyphClass: 1
Flags: W
LayerCount: 2
Fore
SplineSet
20 70 m 1
 20 90 l 1
 40 90 l 1
 40 70 l 1
 50 70 l 1
 50 50 l 1
 70 50 l 1
 70 70 l 1
 80 70 l 1
 80 90 l 1
 100 90 l 1
 100 70 l 1
 90 70 l 1
 90 50 l 1
 80 50 l 1
 80 30 l 1
 70 30 l 1
 70 10 l 1
 60 10 l 1
 60 0 l 1
 50 0 l 1
 50 -10 l 1
 20 -10 l 1
 20 10 l 1
 40 10 l 1
 40 20 l 1
 50 20 l 1
 50 30 l 1
 40 30 l 1
 40 50 l 1
 30 50 l 1
 30 70 l 1
 20 70 l 1
EndSplineSet
EndChar

StartChar: equal
Encoding: 61 61 78
Width: 110
GlyphClass: 1
Flags: W
LayerCount: 2
Fore
SplineSet
0 90 m 1
 100 90 l 1
 100 70 l 1
 0 70 l 1
 0 90 l 1
0 50 m 1
 100 50 l 1
 100 30 l 1
 0 30 l 1
 0 50 l 1
EndSplineSet
EndChar

StartChar: underscore
Encoding: 95 95 79
Width: 110
GlyphClass: 1
Flags: W
LayerCount: 2
Fore
SplineSet
0 10 m 5
 100 10 l 5
 100 -10 l 5
 0 -10 l 5
 0 10 l 5
EndSplineSet
Substitution2: "'ss01' Style Set 1 lookup 5 subtable" cursor.replace
Substitution2: "'aalt' Access All Alternates lookup 0 subtable" cursor.replace
EndChar

StartChar: less
Encoding: 60 60 80
Width: 110
GlyphClass: 1
Flags: W
LayerCount: 2
Fore
SplineSet
100 0 m 1
 80 0 l 1
 80 10 l 1
 70 10 l 1
 70 20 l 1
 60 20 l 1
 60 30 l 1
 50 30 l 1
 50 40 l 1
 40 40 l 1
 40 70 l 1
 50 70 l 1
 50 80 l 1
 60 80 l 1
 60 90 l 1
 70 90 l 1
 70 100 l 1
 80 100 l 1
 80 110 l 1
 100 110 l 1
 100 90 l 1
 90 90 l 1
 90 80 l 1
 80 80 l 1
 80 70 l 1
 70 70 l 1
 70 60 l 1
 60 60 l 1
 60 50 l 1
 70 50 l 1
 70 40 l 1
 80 40 l 1
 80 30 l 1
 90 30 l 1
 90 20 l 1
 100 20 l 1
 100 0 l 1
EndSplineSet
EndChar

StartChar: greater
Encoding: 62 62 81
Width: 110
GlyphClass: 1
Flags: W
LayerCount: 2
Fore
SplineSet
40 0 m 1
 40 20 l 1
 50 20 l 1
 50 30 l 1
 60 30 l 1
 60 40 l 1
 70 40 l 1
 70 50 l 1
 80 50 l 1
 80 60 l 1
 70 60 l 1
 70 70 l 1
 60 70 l 1
 60 80 l 1
 50 80 l 1
 50 90 l 1
 40 90 l 1
 40 110 l 1
 60 110 l 1
 60 100 l 1
 70 100 l 1
 70 90 l 1
 80 90 l 1
 80 80 l 1
 90 80 l 1
 90 70 l 1
 100 70 l 1
 100 40 l 1
 90 40 l 1
 90 30 l 1
 80 30 l 1
 80 20 l 1
 70 20 l 1
 70 10 l 1
 60 10 l 1
 60 0 l 1
 40 0 l 1
EndSplineSet
EndChar

StartChar: slash
Encoding: 47 47 82
Width: 110
GlyphClass: 1
Flags: W
LayerCount: 2
Fore
SplineSet
40 0 m 1
 40 30 l 1
 50 30 l 1
 50 50 l 1
 60 50 l 1
 60 80 l 1
 70 80 l 1
 70 100 l 1
 80 100 l 1
 80 120 l 1
 100 120 l 1
 100 90 l 1
 90 90 l 1
 90 70 l 1
 80 70 l 1
 80 40 l 1
 70 40 l 1
 70 20 l 1
 60 20 l 1
 60 0 l 1
 40 0 l 1
EndSplineSet
Substitution2: "'ss01' Style Set 1 lookup 5 subtable" div
Substitution2: "'aalt' Access All Alternates lookup 0 subtable" div
EndChar

StartChar: asciicircum
Encoding: 94 94 83
Width: 110
GlyphClass: 1
Flags: W
LayerCount: 2
Fore
SplineSet
20 80 m 1
 20 100 l 1
 30 100 l 1
 30 110 l 1
 40 110 l 1
 40 120 l 1
 80 120 l 1
 80 110 l 1
 90 110 l 1
 90 100 l 1
 100 100 l 1
 100 80 l 1
 80 80 l 1
 80 90 l 1
 70 90 l 1
 70 100 l 1
 50 100 l 1
 50 90 l 1
 40 90 l 1
 40 80 l 1
 20 80 l 1
EndSplineSet
EndChar

StartChar: asciitilde
Encoding: 126 126 84
Width: 110
GlyphClass: 1
Flags: W
LayerCount: 2
Fore
SplineSet
0 40 m 1
 0 70 l 1
 10 70 l 1
 10 80 l 1
 50 80 l 1
 50 70 l 1
 70 70 l 1
 70 60 l 1
 80 60 l 1
 80 80 l 1
 100 80 l 1
 100 50 l 1
 90 50 l 1
 90 40 l 1
 60 40 l 1
 60 50 l 1
 40 50 l 1
 40 60 l 1
 20 60 l 1
 20 40 l 1
 0 40 l 1
EndSplineSet
EndChar

StartChar: parenleft
Encoding: 40 40 86
Width: 110
GlyphClass: 1
Flags: W
LayerCount: 2
Fore
SplineSet
110 120 m 1
 110 100 l 1
 100 100 l 1
 100 90 l 1
 90 90 l 1
 90 70 l 1
 80 70 l 1
 80 50 l 1
 90 50 l 1
 90 30 l 1
 100 30 l 1
 100 20 l 1
 110 20 l 1
 110 0 l 1
 90 0 l 1
 90 10 l 1
 80 10 l 1
 80 20 l 1
 70 20 l 1
 70 40 l 1
 60 40 l 1
 60 80 l 1
 70 80 l 1
 70 100 l 1
 80 100 l 1
 80 110 l 1
 90 110 l 1
 90 120 l 1
 110 120 l 1
EndSplineSet
EndChar

StartChar: parenright
Encoding: 41 41 87
Width: 110
GlyphClass: 1
Flags: W
LayerCount: 2
Fore
SplineSet
60 120 m 1
 80 120 l 1
 80 110 l 1
 90 110 l 1
 90 100 l 1
 100 100 l 1
 100 80 l 1
 110 80 l 1
 110 40 l 1
 100 40 l 1
 100 20 l 1
 90 20 l 1
 90 10 l 1
 80 10 l 1
 80 0 l 1
 60 0 l 1
 60 20 l 1
 70 20 l 1
 70 30 l 1
 80 30 l 1
 80 50 l 1
 90 50 l 1
 90 70 l 1
 80 70 l 1
 80 90 l 1
 70 90 l 1
 70 100 l 1
 60 100 l 1
 60 120 l 1
EndSplineSet
EndChar

StartChar: bracketright
Encoding: 93 93 88
Width: 110
GlyphClass: 1
Flags: W
LayerCount: 2
Fore
SplineSet
60 120 m 1
 110 120 l 1
 110 0 l 1
 60 0 l 1
 60 20 l 1
 90 20 l 1
 90 100 l 1
 60 100 l 1
 60 120 l 1
EndSplineSet
EndChar

StartChar: bracketleft
Encoding: 91 91 89
Width: 110
GlyphClass: 1
Flags: W
LayerCount: 2
Fore
SplineSet
40 0 m 1
 40 120 l 1
 90 120 l 1
 90 100 l 1
 60 100 l 1
 60 20 l 1
 90 20 l 1
 90 0 l 1
 40 0 l 1
EndSplineSet
EndChar

StartChar: braceleft
Encoding: 123 123 90
Width: 110
GlyphClass: 1
Flags: W
LayerCount: 2
Fore
SplineSet
100 120 m 1
 100 100 l 1
 80 100 l 1
 80 70 l 1
 70 70 l 1
 70 60 l 1
 60 60 l 1
 60 50 l 1
 70 50 l 1
 70 40 l 1
 80 40 l 1
 80 10 l 1
 100 10 l 1
 100 -10 l 1
 70 -10 l 1
 70 0 l 1
 60 0 l 1
 60 30 l 1
 50 30 l 1
 50 40 l 1
 40 40 l 1
 40 70 l 1
 50 70 l 1
 50 80 l 1
 60 80 l 1
 60 110 l 1
 70 110 l 1
 70 120 l 1
 100 120 l 1
EndSplineSet
EndChar

StartChar: braceright
Encoding: 125 125 91
Width: 110
GlyphClass: 1
Flags: W
LayerCount: 2
Fore
SplineSet
60 120 m 1
 90 120 l 1
 90 110 l 1
 100 110 l 1
 100 80 l 1
 110 80 l 1
 110 70 l 1
 120 70 l 1
 120 40 l 1
 110 40 l 1
 110 30 l 1
 100 30 l 1
 100 0 l 1
 90 0 l 1
 90 -10 l 1
 60 -10 l 1
 60 10 l 1
 80 10 l 1
 80 40 l 1
 90 40 l 1
 90 50 l 1
 100 50 l 1
 100 60 l 1
 90 60 l 1
 90 70 l 1
 80 70 l 1
 80 100 l 1
 60 100 l 1
 60 120 l 1
EndSplineSet
EndChar

StartChar: question
Encoding: 63 63 92
Width: 110
GlyphClass: 1
Flags: W
LayerCount: 2
Fore
SplineSet
40 90 m 1
 40 110 l 1
 50 110 l 1
 50 120 l 1
 90 120 l 1
 90 110 l 1
 100 110 l 1
 100 80 l 1
 90 80 l 1
 90 60 l 1
 80 60 l 1
 80 40 l 1
 60 40 l 1
 60 60 l 1
 70 60 l 1
 70 80 l 1
 80 80 l 1
 80 100 l 1
 60 100 l 1
 60 90 l 1
 40 90 l 1
60 0 m 1
 60 20 l 1
 80 20 l 1
 80 0 l 1
 60 0 l 1
EndSplineSet
EndChar

StartChar: dollar
Encoding: 36 36 93
Width: 110
GlyphClass: 1
Flags: W
LayerCount: 2
Fore
SplineSet
20 20 m 1
 20 40 l 1
 40 40 l 1
 40 30 l 1
 50 30 l 1
 50 50 l 1
 30 50 l 1
 30 60 l 1
 20 60 l 1
 20 100 l 1
 30 100 l 1
 30 110 l 1
 50 110 l 1
 50 120 l 1
 70 120 l 1
 70 110 l 1
 90 110 l 1
 90 100 l 1
 100 100 l 1
 100 80 l 1
 80 80 l 1
 80 90 l 1
 70 90 l 1
 70 70 l 1
 90 70 l 1
 90 60 l 1
 100 60 l 1
 100 20 l 1
 90 20 l 1
 90 10 l 1
 70 10 l 1
 70 0 l 1
 50 0 l 1
 50 10 l 1
 30 10 l 1
 30 20 l 1
 20 20 l 1
40 70 m 1
 50 70 l 1
 50 90 l 1
 40 90 l 1
 40 70 l 1
70 30 m 1
 80 30 l 1
 80 50 l 1
 70 50 l 1
 70 30 l 1
EndSplineSet
EndChar

StartChar: at
Encoding: 64 64 94
Width: 110
GlyphClass: 1
Flags: W
LayerCount: 2
Fore
SplineSet
0 10 m 1
 0 100 l 1
 10 100 l 1
 10 110 l 1
 20 110 l 1
 20 120 l 1
 80 120 l 1
 80 110 l 1
 90 110 l 1
 90 100 l 1
 100 100 l 1
 100 30 l 1
 90 30 l 1
 90 20 l 1
 70 20 l 1
 70 30 l 1
 60 30 l 1
 60 20 l 1
 40 20 l 1
 40 30 l 1
 30 30 l 1
 30 80 l 1
 40 80 l 1
 40 90 l 1
 70 90 l 1
 70 40 l 1
 80 40 l 1
 80 90 l 1
 70 90 l 1
 70 100 l 1
 30 100 l 1
 30 90 l 1
 20 90 l 1
 20 20 l 1
 30 20 l 1
 30 10 l 1
 90 10 l 1
 90 -10 l 1
 20 -10 l 1
 20 0 l 1
 10 0 l 1
 10 10 l 1
 0 10 l 1
50 40 m 1
 60 40 l 1
 60 70 l 1
 50 70 l 1
 50 40 l 1
EndSplineSet
EndChar

StartChar: ampersand
Encoding: 38 38 95
Width: 110
GlyphClass: 1
Flags: W
LayerCount: 2
Fore
SplineSet
0 10 m 1
 0 50 l 1
 10 50 l 1
 10 60 l 1
 20 60 l 1
 20 70 l 1
 10 70 l 1
 10 110 l 1
 20 110 l 1
 20 120 l 1
 60 120 l 1
 60 110 l 1
 70 110 l 1
 70 80 l 1
 60 80 l 1
 60 70 l 1
 50 70 l 1
 50 60 l 1
 60 60 l 1
 60 40 l 1
 70 40 l 1
 70 60 l 1
 90 60 l 1
 90 30 l 1
 80 30 l 1
 80 20 l 1
 100 20 l 1
 100 0 l 1
 70 0 l 1
 70 10 l 1
 60 10 l 1
 60 0 l 1
 10 0 l 1
 10 10 l 1
 0 10 l 1
30 80 m 1
 40 80 l 1
 40 90 l 1
 50 90 l 1
 50 100 l 1
 30 100 l 1
 30 80 l 1
40 30 m 1
 40 50 l 1
 30 50 l 1
 30 40 l 1
 20 40 l 1
 20 20 l 1
 50 20 l 1
 50 30 l 1
 40 30 l 1
EndSplineSet
EndChar

StartChar: degree
Encoding: 176 176 96
Width: 110
GlyphClass: 1
Flags: W
LayerCount: 2
Fore
SplineSet
20 70 m 1
 20 110 l 1
 30 110 l 1
 30 120 l 1
 70 120 l 1
 70 110 l 1
 80 110 l 1
 80 70 l 1
 70 70 l 1
 70 60 l 1
 30 60 l 1
 30 70 l 1
 20 70 l 1
40 80 m 1
 60 80 l 1
 60 100 l 1
 40 100 l 1
 40 80 l 1
EndSplineSet
Substitution2: "'ss01' Style Set 1 lookup 5 subtable" dms
Substitution2: "'aalt' Access All Alternates lookup 0 subtable" dms
EndChar

StartChar: zero.superior
Encoding: 8304 8304 97
Width: 110
GlyphClass: 1
Flags: W
LayerCount: 2
Fore
SplineSet
40 60 m 1
 40 110 l 1
 50 110 l 1
 50 120 l 1
 90 120 l 1
 90 110 l 1
 100 110 l 1
 100 60 l 1
 90 60 l 1
 90 50 l 1
 50 50 l 1
 50 60 l 1
 40 60 l 1
60 70 m 1
 80 70 l 1
 80 100 l 1
 60 100 l 1
 60 70 l 1
EndSplineSet
EndChar

StartChar: onesuperior
Encoding: 185 185 98
Width: 110
GlyphClass: 1
Flags: W
LayerCount: 2
Fore
SplineSet
40 90 m 5
 40 110 l 5
 60 110 l 5
 60 120 l 5
 80 120 l 5
 80 51 l 5
 60 51 l 5
 60 90 l 5
 40 90 l 5
EndSplineSet
EndChar

StartChar: twosuperior
Encoding: 178 178 99
Width: 110
GlyphClass: 1
Flags: W
LayerCount: 2
Fore
SplineSet
40 100 m 1
 40 120 l 1
 90 120 l 1
 90 110 l 1
 100 110 l 1
 100 90 l 1
 90 90 l 1
 90 80 l 1
 70 80 l 1
 70 70 l 1
 100 70 l 1
 100 50 l 1
 40 50 l 1
 40 70 l 1
 50 70 l 1
 50 80 l 1
 60 80 l 1
 60 90 l 1
 80 90 l 1
 80 100 l 1
 40 100 l 1
EndSplineSet
EndChar

StartChar: threesuperior
Encoding: 179 179 100
Width: 110
GlyphClass: 1
Flags: W
LayerCount: 2
Fore
SplineSet
40 100 m 5
 40 120 l 5
 90 120 l 5
 90 110 l 5
 100 110 l 5
 100 90 l 5
 90 90 l 5
 90 80 l 5
 100 80 l 5
 100 60 l 5
 90 60 l 5
 90 50 l 5
 40 50 l 5
 40 70 l 5
 80 70 l 5
 80 80 l 5
 50 80 l 5
 50 90 l 5
 80 90 l 5
 80 100 l 5
 40 100 l 5
EndSplineSet
EndChar

StartChar: four.superior
Encoding: 8308 8308 101
Width: 110
GlyphClass: 1
Flags: W
LayerCount: 2
Fore
SplineSet
50 90 m 1
 50 110 l 1
 60 110 l 1
 60 120 l 1
 90 120 l 1
 90 80 l 1
 100 80 l 1
 100 60 l 1
 90 60 l 1
 90 51 l 1
 70 51 l 1
 70 60 l 1
 40 60 l 1
 40 90 l 1
 50 90 l 1
60 100 m 1
 60 80 l 1
 70 80 l 1
 70 100 l 1
 60 100 l 1
EndSplineSet
EndChar

StartChar: five.superior
Encoding: 8309 8309 102
Width: 110
GlyphClass: 1
Flags: W
LayerCount: 2
Fore
SplineSet
40 70 m 1
 80 70 l 1
 80 80 l 1
 40 80 l 1
 40 120 l 1
 100 120 l 1
 100 100 l 1
 60 100 l 1
 60 90 l 1
 90 90 l 1
 90 80 l 1
 100 80 l 1
 100 60 l 1
 90 60 l 1
 90 50 l 1
 40 50 l 1
 40 70 l 1
EndSplineSet
EndChar

StartChar: six.superior
Encoding: 8310 8310 103
Width: 110
GlyphClass: 1
Flags: W
LayerCount: 2
Fore
SplineSet
90 100 m 1
 60 100 l 1
 60 90 l 1
 90 90 l 1
 90 80 l 1
 100 80 l 1
 100 60 l 1
 90 60 l 1
 90 50 l 1
 50 50 l 1
 50 60 l 1
 40 60 l 1
 40 110 l 1
 50 110 l 1
 50 120 l 1
 90 120 l 1
 90 100 l 1
60 70 m 1
 80 70 l 1
 80 80 l 1
 60 80 l 1
 60 70 l 1
EndSplineSet
EndChar

StartChar: seven.superior
Encoding: 8311 8311 104
Width: 110
GlyphClass: 1
Flags: W
LayerCount: 2
Fore
SplineSet
20 100 m 1
 20 120 l 1
 80 120 l 1
 80 90 l 1
 70 90 l 1
 70 70 l 1
 60 70 l 1
 60 50 l 1
 40 50 l 1
 40 70 l 1
 50 70 l 1
 50 90 l 1
 60 90 l 1
 60 100 l 1
 20 100 l 1
EndSplineSet
EndChar

StartChar: eight.superior
Encoding: 8312 8312 105
Width: 110
GlyphClass: 1
Flags: W
LayerCount: 2
Fore
SplineSet
40 60 m 1
 40 80 l 1
 50 80 l 1
 50 90 l 1
 40 90 l 1
 40 110 l 1
 50 110 l 1
 50 120 l 1
 90 120 l 1
 90 110 l 1
 100 110 l 1
 100 90 l 1
 90 90 l 1
 90 80 l 1
 100 80 l 1
 100 60 l 1
 90 60 l 1
 90 50 l 1
 50 50 l 1
 50 60 l 1
 40 60 l 1
60 90 m 1
 80 90 l 1
 80 100 l 1
 60 100 l 1
 60 90 l 1
60 70 m 1
 80 70 l 1
 80 80 l 1
 60 80 l 1
 60 70 l 1
EndSplineSet
EndChar

StartChar: nine.superior
Encoding: 8313 8313 106
Width: 110
GlyphClass: 1
Flags: W
LayerCount: 2
Fore
SplineSet
50 70 m 1
 80 70 l 1
 80 80 l 1
 50 80 l 1
 50 90 l 1
 40 90 l 1
 40 110 l 1
 50 110 l 1
 50 120 l 1
 90 120 l 1
 90 110 l 1
 100 110 l 1
 100 60 l 1
 90 60 l 1
 90 50 l 1
 50 50 l 1
 50 70 l 1
80 100 m 1
 60 100 l 1
 60 90 l 1
 80 90 l 1
 80 100 l 1
EndSplineSet
EndChar

StartChar: four.inferior
Encoding: 8324 8324 107
Width: 110
GlyphClass: 1
Flags: W
LayerCount: 2
Fore
SplineSet
50 30 m 5
 50 50 l 5
 60 50 l 5
 60 60 l 5
 90 60 l 5
 90 20 l 5
 100 20 l 5
 100 0 l 5
 90 0 l 5
 90 -9 l 5
 70 -9 l 5
 70 0 l 5
 40 0 l 5
 40 30 l 5
 50 30 l 5
60 40 m 5
 60 20 l 5
 70 20 l 5
 70 40 l 5
 60 40 l 5
EndSplineSet
EndChar

StartChar: five.inferior
Encoding: 8325 8325 108
Width: 110
GlyphClass: 1
Flags: W
LayerCount: 2
Fore
SplineSet
40 10 m 1
 80 10 l 1
 80 20 l 1
 40 20 l 1
 40 60 l 1
 100 60 l 1
 100 40 l 1
 60 40 l 1
 60 30 l 1
 90 30 l 1
 90 20 l 1
 100 20 l 1
 100 0 l 1
 90 0 l 1
 90 -10 l 1
 40 -10 l 1
 40 10 l 1
EndSplineSet
EndChar

StartChar: six.inferior
Encoding: 8326 8326 109
Width: 110
GlyphClass: 1
Flags: W
LayerCount: 2
Fore
SplineSet
90 40 m 1
 60 40 l 1
 60 30 l 1
 90 30 l 1
 90 20 l 1
 100 20 l 1
 100 0 l 1
 90 0 l 1
 90 -10 l 1
 50 -10 l 1
 50 0 l 1
 40 0 l 1
 40 50 l 1
 50 50 l 1
 50 60 l 1
 90 60 l 1
 90 40 l 1
60 10 m 1
 80 10 l 1
 80 20 l 1
 60 20 l 1
 60 10 l 1
EndSplineSet
EndChar

StartChar: seven.inferior
Encoding: 8327 8327 110
Width: 110
GlyphClass: 1
Flags: W
LayerCount: 2
Fore
SplineSet
20 40 m 1
 20 60 l 1
 80 60 l 1
 80 30 l 1
 70 30 l 1
 70 10 l 1
 60 10 l 1
 60 -10 l 1
 40 -10 l 1
 40 10 l 1
 50 10 l 1
 50 30 l 1
 60 30 l 1
 60 40 l 1
 20 40 l 1
EndSplineSet
EndChar

StartChar: eight.inferior
Encoding: 8328 8328 111
Width: 110
GlyphClass: 1
Flags: W
LayerCount: 2
Fore
SplineSet
40 0 m 1
 40 20 l 1
 50 20 l 1
 50 30 l 1
 40 30 l 1
 40 50 l 1
 50 50 l 1
 50 60 l 1
 90 60 l 1
 90 50 l 1
 100 50 l 1
 100 30 l 1
 90 30 l 1
 90 20 l 1
 100 20 l 1
 100 0 l 1
 90 0 l 1
 90 -10 l 1
 50 -10 l 1
 50 0 l 1
 40 0 l 1
60 30 m 1
 80 30 l 1
 80 40 l 1
 60 40 l 1
 60 30 l 1
60 10 m 1
 80 10 l 1
 80 20 l 1
 60 20 l 1
 60 10 l 1
EndSplineSet
EndChar

StartChar: nine.inferior
Encoding: 8329 8329 112
Width: 110
GlyphClass: 1
Flags: W
LayerCount: 2
Fore
SplineSet
50 10 m 1
 80 10 l 1
 80 20 l 1
 50 20 l 1
 50 30 l 1
 40 30 l 1
 40 50 l 1
 50 50 l 1
 50 60 l 1
 90 60 l 1
 90 50 l 1
 100 50 l 1
 100 0 l 1
 90 0 l 1
 90 -10 l 1
 50 -10 l 1
 50 10 l 1
80 40 m 1
 60 40 l 1
 60 30 l 1
 80 30 l 1
 80 40 l 1
EndSplineSet
EndChar

StartChar: zero.inferior
Encoding: 8320 8320 113
Width: 110
GlyphClass: 1
Flags: W
LayerCount: 2
Fore
SplineSet
40 0 m 1
 40 50 l 1
 50 50 l 1
 50 60 l 1
 90 60 l 1
 90 50 l 1
 100 50 l 1
 100 0 l 1
 90 0 l 1
 90 -10 l 1
 50 -10 l 1
 50 0 l 1
 40 0 l 1
60 10 m 1
 80 10 l 1
 80 40 l 1
 60 40 l 1
 60 10 l 1
EndSplineSet
EndChar

StartChar: two.inferior
Encoding: 8322 8322 114
Width: 110
GlyphClass: 1
Flags: W
LayerCount: 2
Fore
SplineSet
40 40 m 5
 40 60 l 5
 90 60 l 5
 90 50 l 5
 100 50 l 5
 100 30 l 5
 90 30 l 5
 90 20 l 5
 70 20 l 5
 70 10 l 5
 100 10 l 5
 100 -10 l 5
 40 -10 l 5
 40 10 l 5
 50 10 l 5
 50 20 l 5
 60 20 l 5
 60 30 l 5
 80 30 l 5
 80 40 l 5
 40 40 l 5
EndSplineSet
EndChar

StartChar: three.inferior
Encoding: 8323 8323 115
Width: 110
GlyphClass: 1
Flags: W
LayerCount: 2
Fore
SplineSet
40 40 m 1
 40 60 l 1
 90 60 l 1
 90 50 l 1
 100 50 l 1
 100 30 l 1
 90 30 l 1
 90 20 l 1
 100 20 l 1
 100 0 l 1
 90 0 l 1
 90 -10 l 1
 40 -10 l 1
 40 10 l 1
 80 10 l 1
 80 20 l 1
 50 20 l 1
 50 30 l 1
 80 30 l 1
 80 40 l 1
 40 40 l 1
EndSplineSet
EndChar

StartChar: one.inferior
Encoding: 8321 8321 116
Width: 110
GlyphClass: 1
Flags: W
LayerCount: 2
Fore
SplineSet
40 30 m 1
 40 50 l 1
 60 50 l 1
 60 60 l 1
 80 60 l 1
 80 -9 l 1
 60 -9 l 1
 60 30 l 1
 40 30 l 1
EndSplineSet
EndChar

StartChar: n.superior
Encoding: 8319 8319 117
Width: 110
GlyphClass: 1
Flags: W
LayerCount: 2
Fore
SplineSet
90 50 m 1
 70 50 l 1
 70 100 l 1
 50 100 l 1
 50 90 l 1
 40 90 l 1
 40 50 l 1
 20 50 l 1
 20 120 l 1
 40 120 l 1
 40 110 l 1
 50 110 l 1
 50 120 l 1
 80 120 l 1
 80 110 l 1
 90 110 l 1
 90 50 l 1
EndSplineSet
EndChar

StartChar: rsupmod
Encoding: 691 691 118
Width: 110
GlyphClass: 1
Flags: W
LayerCount: 2
Fore
SplineSet
100 100 m 1
 70 100 l 1
 70 90 l 1
 60 90 l 1
 60 60 l 1
 40 60 l 1
 40 120 l 1
 60 120 l 1
 60 110 l 1
 70 110 l 1
 70 120 l 1
 100 120 l 1
 100 100 l 1
EndSplineSet
EndChar

StartChar: gmod
Encoding: 7501 7501 119
Width: 110
GlyphClass: 1
Flags: W
LayerCount: 2
Fore
SplineSet
100 110 m 1
 90 110 l 1
 90 120 l 1
 100 120 l 1
 100 110 l 1
20 110 m 1
 30 110 l 1
 30 120 l 1
 80 120 l 1
 80 110 l 1
 90 110 l 1
 90 100 l 1
 80 100 l 1
 80 90 l 1
 60 90 l 1
 60 80 l 1
 90 80 l 1
 90 70 l 1
 100 70 l 1
 100 60 l 1
 90 60 l 1
 90 50 l 1
 30 50 l 1
 30 60 l 1
 20 60 l 1
 20 70 l 1
 30 70 l 1
 30 80 l 1
 40 80 l 1
 40 90 l 1
 30 90 l 1
 30 100 l 1
 20 100 l 1
 20 110 l 1
60 110 m 1
 50 110 l 1
 50 100 l 1
 60 100 l 1
 60 110 l 1
50 70 m 1
 50 60 l 1
 70 60 l 1
 70 70 l 1
 50 70 l 1
EndSplineSet
EndChar

StartChar: einferior
Encoding: 8337 8337 120
Width: 110
GlyphClass: 1
Flags: W
LayerCount: 2
Fore
SplineSet
20 0 m 1
 20 30 l 1
 30 30 l 1
 30 40 l 1
 70 40 l 1
 70 30 l 1
 80 30 l 1
 80 10 l 1
 40 10 l 1
 40 0 l 1
 80 0 l 1
 80 -10 l 1
 30 -10 l 1
 30 0 l 1
 20 0 l 1
40 20 m 1
 60 20 l 1
 60 30 l 1
 40 30 l 1
 40 20 l 1
EndSplineSet
EndChar

StartChar: pinferior
Encoding: 8346 8346 121
Width: 110
GlyphClass: 1
Flags: W
LayerCount: 2
Fore
SplineSet
40 -10 m 1
 40 50 l 1
 90 50 l 1
 90 40 l 1
 100 40 l 1
 100 10 l 1
 90 10 l 1
 90 0 l 1
 60 0 l 1
 60 -10 l 1
 40 -10 l 1
60 30 m 1
 60 20 l 1
 80 20 l 1
 80 30 l 1
 60 30 l 1
EndSplineSet
EndChar

StartChar: ninferior
Encoding: 8345 8345 122
Width: 110
GlyphClass: 1
Flags: W
LayerCount: 2
Fore
SplineSet
90 -10 m 1
 70 -10 l 1
 70 30 l 1
 50 30 l 1
 50 20 l 1
 40 20 l 1
 40 -10 l 1
 20 -10 l 1
 20 50 l 1
 40 50 l 1
 40 40 l 1
 50 40 l 1
 50 50 l 1
 80 50 l 1
 80 40 l 1
 90 40 l 1
 90 -10 l 1
EndSplineSet
EndChar

StartChar: minferior
Encoding: 8344 8344 123
Width: 110
GlyphClass: 1
Flags: W
LayerCount: 2
Fore
SplineSet
60 -10 m 1
 40 -10 l 1
 40 30 l 1
 20 30 l 1
 20 -10 l 1
 0 -10 l 1
 0 50 l 1
 10 50 l 1
 10 40 l 1
 20 40 l 1
 20 50 l 1
 50 50 l 1
 50 40 l 1
 60 40 l 1
 60 50 l 1
 90 50 l 1
 90 40 l 1
 100 40 l 1
 100 -10 l 1
 80 -10 l 1
 80 30 l 1
 60 30 l 1
 60 -10 l 1
EndSplineSet
EndChar

StartChar: Asmall
Encoding: 7424 7424 124
Width: 110
GlyphClass: 1
Flags: W
LayerCount: 2
Fore
SplineSet
20 -10 m 1
 20 10 l 1
 30 10 l 1
 30 30 l 1
 40 30 l 1
 40 50 l 1
 50 50 l 1
 50 60 l 1
 70 60 l 1
 70 50 l 1
 80 50 l 1
 80 30 l 1
 90 30 l 1
 90 10 l 1
 100 10 l 1
 100 -10 l 1
 80 -10 l 1
 80 0 l 1
 40 0 l 1
 40 -10 l 1
 20 -10 l 1
70 20 m 1
 70 30 l 1
 50 30 l 1
 50 20 l 1
 70 20 l 1
EndSplineSet
EndChar

StartChar: Bsmall
Encoding: 665 665 125
Width: 110
GlyphClass: 1
Flags: W
LayerCount: 2
Fore
SplineSet
40 -10 m 1
 40 60 l 1
 90 60 l 1
 90 50 l 1
 100 50 l 1
 100 30 l 1
 90 30 l 1
 90 20 l 1
 100 20 l 1
 100 0 l 1
 90 0 l 1
 90 -10 l 1
 40 -10 l 1
60 30 m 1
 80 30 l 1
 80 40 l 1
 60 40 l 1
 60 30 l 1
60 10 m 1
 80 10 l 1
 80 20 l 1
 60 20 l 1
 60 10 l 1
EndSplineSet
EndChar

StartChar: Csmall
Encoding: 7428 7428 126
Width: 110
GlyphClass: 1
Flags: W
LayerCount: 2
Fore
SplineSet
20 0 m 1
 20 50 l 1
 30 50 l 1
 30 60 l 1
 80 60 l 1
 80 50 l 1
 90 50 l 1
 90 30 l 1
 70 30 l 1
 70 40 l 1
 40 40 l 1
 40 10 l 1
 70 10 l 1
 70 20 l 1
 90 20 l 1
 90 0 l 1
 80 0 l 1
 80 -10 l 1
 30 -10 l 1
 30 0 l 1
 20 0 l 1
EndSplineSet
EndChar

StartChar: Fsmall
Encoding: 42800 42800 127
Width: 110
GlyphClass: 1
Flags: W
LayerCount: 2
Fore
SplineSet
20 -10 m 1
 20 60 l 1
 80 60 l 1
 80 40 l 1
 40 40 l 1
 40 30 l 1
 70 30 l 1
 70 10 l 1
 40 10 l 1
 40 -10 l 1
 20 -10 l 1
EndSplineSet
EndChar

StartChar: Jsmall
Encoding: 7434 7434 128
Width: 110
GlyphClass: 1
Flags: W
LayerCount: 2
Fore
SplineSet
20 0 m 1
 20 20 l 1
 40 20 l 1
 40 10 l 1
 60 10 l 1
 60 60 l 1
 80 60 l 1
 80 0 l 1
 70 0 l 1
 70 -10 l 1
 30 -10 l 1
 30 0 l 1
 20 0 l 1
EndSplineSet
EndChar

StartChar: Ksmall
Encoding: 7435 7435 129
Width: 110
GlyphClass: 1
Flags: W
LayerCount: 2
Fore
SplineSet
40 -10 m 1
 40 60 l 1
 60 60 l 1
 60 40 l 1
 70 40 l 1
 70 50 l 1
 80 50 l 1
 80 60 l 1
 110 60 l 1
 110 50 l 1
 100 50 l 1
 100 40 l 1
 90 40 l 1
 90 30 l 1
 80 30 l 1
 80 20 l 1
 90 20 l 1
 90 10 l 1
 100 10 l 1
 100 0 l 1
 110 0 l 1
 110 -10 l 1
 80 -10 l 1
 80 0 l 1
 70 0 l 1
 70 10 l 1
 60 10 l 1
 60 -10 l 1
 40 -10 l 1
EndSplineSet
EndChar

StartChar: Nsmall
Encoding: 628 628 130
Width: 110
GlyphClass: 1
Flags: W
LayerCount: 2
Fore
SplineSet
40 -10 m 1
 40 60 l 1
 60 60 l 1
 60 50 l 1
 70 50 l 1
 70 40 l 1
 80 40 l 1
 80 30 l 1
 90 30 l 1
 90 60 l 1
 110 60 l 1
 110 -10 l 1
 90 -10 l 1
 90 0 l 1
 80 0 l 1
 80 10 l 1
 70 10 l 1
 70 20 l 1
 60 20 l 1
 60 -10 l 1
 40 -10 l 1
EndSplineSet
EndChar

StartChar: Psmall
Encoding: 7448 7448 131
Width: 110
GlyphClass: 1
Flags: W
LayerCount: 2
Fore
SplineSet
60 -10 m 1
 60 60 l 1
 110 60 l 1
 110 50 l 1
 120 50 l 1
 120 20 l 1
 110 20 l 1
 110 10 l 1
 80 10 l 1
 80 -10 l 1
 60 -10 l 1
80 40 m 1
 80 30 l 1
 100 30 l 1
 100 40 l 1
 80 40 l 1
EndSplineSet
EndChar

StartChar: HexA
Encoding: 57345 57345 132
Width: 110
GlyphClass: 1
Flags: W
LayerCount: 2
Fore
SplineSet
0 0 m 1
 0 50 l 1
 10 50 l 1
 10 80 l 1
 20 80 l 1
 20 100 l 1
 30 100 l 1
 30 120 l 1
 70 120 l 1
 70 100 l 1
 80 100 l 1
 80 80 l 1
 90 80 l 1
 90 50 l 1
 100 50 l 1
 100 0 l 1
 70 0 l 1
 70 30 l 1
 20 30 l 1
 20 0 l 1
 0 0 l 1
50 50 m 1
 50 70 l 1
 30 70 l 1
 30 50 l 1
 50 50 l 1
EndSplineSet
EndChar

StartChar: HexB
Encoding: 57346 57346 133
Width: 110
GlyphClass: 1
Flags: W
LayerCount: 2
Fore
SplineSet
0 0 m 1
 0 120 l 1
 90 120 l 1
 90 110 l 1
 100 110 l 1
 100 70 l 1
 90 70 l 1
 90 60 l 1
 100 60 l 1
 100 10 l 1
 90 10 l 1
 90 0 l 1
 0 0 l 1
40 100 m 1
 40 70 l 1
 80 70 l 1
 80 100 l 1
 40 100 l 1
40 20 m 1
 80 20 l 1
 80 50 l 1
 40 50 l 1
 40 20 l 1
EndSplineSet
EndChar

StartChar: HexC-nCr
Encoding: 57347 57347 134
Width: 110
GlyphClass: 1
Flags: W
LayerCount: 2
Fore
SplineSet
0 30 m 1
 0 90 l 1
 10 90 l 1
 10 110 l 1
 30 110 l 1
 30 120 l 1
 90 120 l 1
 90 110 l 1
 100 110 l 1
 100 90 l 1
 80 90 l 1
 80 100 l 1
 50 100 l 1
 50 90 l 1
 40 90 l 1
 40 30 l 1
 50 30 l 1
 50 20 l 1
 80 20 l 1
 80 30 l 1
 100 30 l 1
 100 10 l 1
 90 10 l 1
 90 0 l 1
 30 0 l 1
 30 10 l 1
 10 10 l 1
 10 30 l 1
 0 30 l 1
EndSplineSet
EndChar

StartChar: HexD
Encoding: 57348 57348 135
Width: 110
GlyphClass: 1
Flags: W
LayerCount: 2
Fore
SplineSet
100 20 m 1
 90 20 l 1
 90 10 l 1
 80 10 l 1
 80 0 l 1
 0 0 l 1
 0 120 l 1
 80 120 l 1
 80 110 l 1
 90 110 l 1
 90 100 l 1
 100 100 l 1
 100 20 l 1
40 20 m 1
 70 20 l 1
 70 30 l 1
 80 30 l 1
 80 90 l 1
 70 90 l 1
 70 100 l 1
 40 100 l 1
 40 20 l 1
EndSplineSet
EndChar

StartChar: HexE
Encoding: 57349 57349 136
Width: 110
GlyphClass: 1
Flags: W
LayerCount: 2
Fore
SplineSet
20 0 m 1
 20 120 l 1
 110 120 l 1
 110 100 l 1
 60 100 l 1
 60 70 l 1
 100 70 l 1
 100 50 l 1
 60 50 l 1
 60 20 l 1
 110 20 l 1
 110 0 l 1
 20 0 l 1
EndSplineSet
EndChar

StartChar: HexF
Encoding: 57350 57350 137
Width: 110
GlyphClass: 1
Flags: W
LayerCount: 2
Fore
SplineSet
20 0 m 1
 20 120 l 1
 110 120 l 1
 110 100 l 1
 60 100 l 1
 60 70 l 1
 100 70 l 1
 100 50 l 1
 60 50 l 1
 60 0 l 1
 20 0 l 1
EndSplineSet
EndChar

StartChar: nPr
Encoding: 57351 57351 138
Width: 110
GlyphClass: 1
Flags: W
LayerCount: 2
Fore
SplineSet
0 0 m 1
 0 120 l 1
 90 120 l 1
 90 110 l 1
 100 110 l 1
 100 60 l 1
 90 60 l 1
 90 50 l 1
 40 50 l 1
 40 0 l 1
 0 0 l 1
40 100 m 1
 40 70 l 1
 80 70 l 1
 80 100 l 1
 40 100 l 1
EndSplineSet
EndChar

StartChar: x.bar
Encoding: 57352 57352 139
Width: 110
GlyphClass: 1
Flags: W
LayerCount: 2
Fore
SplineSet
20 100 m 1
 20 120 l 1
 100 120 l 1
 100 100 l 1
 20 100 l 1
30 60 m 1
 30 70 l 1
 20 70 l 1
 20 90 l 1
 40 90 l 1
 40 80 l 1
 50 80 l 1
 50 70 l 1
 70 70 l 1
 70 80 l 1
 80 80 l 1
 80 90 l 1
 100 90 l 1
 100 70 l 1
 90 70 l 1
 90 60 l 1
 80 60 l 1
 80 50 l 1
 70 50 l 1
 70 40 l 1
 80 40 l 1
 80 30 l 1
 90 30 l 1
 90 20 l 1
 100 20 l 1
 100 0 l 1
 80 0 l 1
 80 10 l 1
 70 10 l 1
 70 20 l 1
 50 20 l 1
 50 10 l 1
 40 10 l 1
 40 0 l 1
 20 0 l 1
 20 20 l 1
 30 20 l 1
 30 30 l 1
 40 30 l 1
 40 40 l 1
 50 40 l 1
 50 50 l 1
 40 50 l 1
 40 60 l 1
 30 60 l 1
EndSplineSet
EndChar

StartChar: x.hat
Encoding: 57353 57353 140
Width: 110
GlyphClass: 1
Flags: W
LayerCount: 2
Fore
SplineSet
20 90 m 1
 20 100 l 1
 30 100 l 1
 30 110 l 1
 40 110 l 1
 40 120 l 1
 70 120 l 1
 70 110 l 1
 80 110 l 1
 80 100 l 1
 90 100 l 1
 90 90 l 1
 60 90 l 1
 60 100 l 1
 50 100 l 1
 50 90 l 1
 20 90 l 1
30 50 m 1
 30 60 l 1
 20 60 l 1
 20 80 l 1
 40 80 l 1
 40 70 l 1
 50 70 l 1
 50 60 l 1
 70 60 l 1
 70 70 l 1
 80 70 l 1
 80 80 l 1
 100 80 l 1
 100 60 l 1
 90 60 l 1
 90 50 l 1
 80 50 l 1
 80 30 l 1
 90 30 l 1
 90 20 l 1
 100 20 l 1
 100 0 l 1
 80 0 l 1
 80 10 l 1
 70 10 l 1
 70 20 l 1
 50 20 l 1
 50 10 l 1
 40 10 l 1
 40 0 l 1
 20 0 l 1
 20 20 l 1
 30 20 l 1
 30 30 l 1
 40 30 l 1
 40 50 l 1
 30 50 l 1
EndSplineSet
EndChar

StartChar: y.bar
Encoding: 57354 57354 141
Width: 110
GlyphClass: 1
Flags: W
LayerCount: 2
Fore
SplineSet
100 100 m 1
 20 100 l 1
 20 120 l 1
 100 120 l 1
 100 100 l 1
20 70 m 1
 20 90 l 1
 40 90 l 1
 40 70 l 1
 50 70 l 1
 50 50 l 1
 70 50 l 1
 70 70 l 1
 80 70 l 1
 80 90 l 1
 100 90 l 1
 100 70 l 1
 90 70 l 1
 90 50 l 1
 80 50 l 1
 80 30 l 1
 70 30 l 1
 70 10 l 1
 60 10 l 1
 60 0 l 1
 50 0 l 1
 50 -10 l 1
 20 -10 l 1
 20 10 l 1
 40 10 l 1
 40 20 l 1
 50 20 l 1
 50 30 l 1
 40 30 l 1
 40 50 l 1
 30 50 l 1
 30 70 l 1
 20 70 l 1
EndSplineSet
EndChar

StartChar: y.hat
Encoding: 57355 57355 142
Width: 110
GlyphClass: 1
Flags: W
LayerCount: 2
Fore
SplineSet
20 90 m 1
 20 100 l 1
 30 100 l 1
 30 110 l 1
 40 110 l 1
 40 120 l 1
 70 120 l 1
 70 110 l 1
 80 110 l 1
 80 100 l 1
 90 100 l 1
 90 90 l 1
 60 90 l 1
 60 100 l 1
 50 100 l 1
 50 90 l 1
 20 90 l 1
20 60 m 1
 20 80 l 1
 40 80 l 1
 40 60 l 1
 50 60 l 1
 50 40 l 1
 70 40 l 1
 70 60 l 1
 80 60 l 1
 80 80 l 1
 100 80 l 1
 100 60 l 1
 90 60 l 1
 90 40 l 1
 80 40 l 1
 80 20 l 1
 70 20 l 1
 70 0 l 1
 60 0 l 1
 60 -10 l 1
 20 -10 l 1
 20 10 l 1
 50 10 l 1
 50 20 l 1
 40 20 l 1
 40 40 l 1
 30 40 l 1
 30 60 l 1
 20 60 l 1
EndSplineSet
EndChar

StartChar: times.small
Encoding: 57356 57356 143
Width: 110
GlyphClass: 1
Flags: W
LayerCount: 2
Fore
SplineSet
60 20 m 1
 70 20 l 1
 70 30 l 1
 80 30 l 1
 80 40 l 1
 70 40 l 1
 70 50 l 1
 60 50 l 1
 60 70 l 1
 70 70 l 1
 70 60 l 1
 80 60 l 1
 80 50 l 1
 100 50 l 1
 100 60 l 1
 110 60 l 1
 110 70 l 1
 120 70 l 1
 120 50 l 1
 110 50 l 1
 110 40 l 1
 100 40 l 1
 100 30 l 1
 110 30 l 1
 110 20 l 1
 120 20 l 1
 120 0 l 1
 110 0 l 1
 110 10 l 1
 100 10 l 1
 100 20 l 1
 80 20 l 1
 80 10 l 1
 70 10 l 1
 70 0 l 1
 60 0 l 1
 60 20 l 1
EndSplineSet
EndChar

StartChar: EE
Encoding: 57357 57357 144
Width: 110
GlyphClass: 1
Flags: W
LayerCount: 2
Fore
SplineSet
60 10 m 1
 60 50 l 1
 70 50 l 1
 70 60 l 1
 100 60 l 1
 100 50 l 1
 110 50 l 1
 110 10 l 1
 100 10 l 1
 100 0 l 1
 70 0 l 1
 70 10 l 1
 60 10 l 1
20 60 m 1
 40 60 l 1
 40 0 l 1
 20 0 l 1
 20 60 l 1
80 40 m 1
 80 20 l 1
 90 20 l 1
 90 40 l 1
 80 40 l 1
EndSplineSet
EndChar

StartChar: times.small.2
Encoding: 57358 57358 145
Width: 110
GlyphClass: 1
Flags: W
LayerCount: 2
Fore
SplineSet
100 0 m 1
 90 0 l 1
 90 10 l 1
 80 10 l 1
 80 20 l 1
 60 20 l 1
 60 10 l 1
 50 10 l 1
 50 0 l 1
 40 0 l 1
 40 20 l 1
 50 20 l 1
 50 30 l 1
 60 30 l 1
 60 40 l 1
 50 40 l 1
 50 50 l 1
 40 50 l 1
 40 70 l 1
 50 70 l 1
 50 60 l 1
 60 60 l 1
 60 50 l 1
 80 50 l 1
 80 60 l 1
 90 60 l 1
 90 70 l 1
 100 70 l 1
 100 50 l 1
 90 50 l 1
 90 40 l 1
 80 40 l 1
 80 30 l 1
 90 30 l 1
 90 20 l 1
 100 20 l 1
 100 0 l 1
EndSplineSet
EndChar

StartChar: EE-
Encoding: 57359 57359 146
Width: 110
GlyphClass: 1
Flags: W
LayerCount: 2
Fore
SplineSet
50 80 m 1
 50 100 l 1
 100 100 l 1
 100 80 l 1
 50 80 l 1
30 10 m 1
 30 50 l 1
 40 50 l 1
 40 60 l 1
 70 60 l 1
 70 50 l 1
 80 50 l 1
 80 10 l 1
 70 10 l 1
 70 0 l 1
 40 0 l 1
 40 10 l 1
 30 10 l 1
0 60 m 1
 20 60 l 1
 20 0 l 1
 0 0 l 1
 0 60 l 1
50 40 m 1
 50 20 l 1
 60 20 l 1
 60 40 l 1
 50 40 l 1
EndSplineSet
EndChar

StartChar: ten.small
Encoding: 9192 9192 147
AltUni2: 00e010.ffffffff.0 00e010.ffffffff.0
Width: 110
GlyphClass: 1
Flags: W
LayerCount: 2
Fore
SplineSet
10 50 m 1
 0 50 l 1
 0 70 l 1
 10 70 l 1
 10 80 l 1
 30 80 l 1
 30 0 l 1
 10 0 l 1
 10 50 l 1
50 10 m 1
 50 70 l 1
 60 70 l 1
 60 80 l 1
 90 80 l 1
 90 70 l 1
 100 70 l 1
 100 10 l 1
 90 10 l 1
 90 0 l 1
 60 0 l 1
 60 10 l 1
 50 10 l 1
70 60 m 1
 70 20 l 1
 80 20 l 1
 80 60 l 1
 70 60 l 1
EndSplineSet
EndChar

StartChar: minus.one.superior
Encoding: 57361 57361 148
Width: 110
GlyphClass: 1
Flags: W
LayerCount: 2
Fore
SplineSet
70 90 m 1
 50 90 l 1
 50 110 l 1
 70 110 l 1
 70 120 l 1
 90 120 l 1
 90 50 l 1
 70 50 l 1
 70 90 l 1
0 70 m 1
 0 90 l 1
 50 90 l 1
 50 70 l 1
 0 70 l 1
EndSplineSet
EndChar

StartChar: ten.superior
Encoding: 57362 57362 149
Width: 110
GlyphClass: 1
Flags: W
LayerCount: 2
Fore
SplineSet
10 50 m 1
 10 90 l 1
 0 90 l 1
 0 110 l 1
 10 110 l 1
 10 120 l 1
 30 120 l 1
 30 50 l 1
 10 50 l 1
50 50 m 1
 50 60 l 1
 40 60 l 1
 40 110 l 1
 50 110 l 1
 50 120 l 1
 90 120 l 1
 90 110 l 1
 100 110 l 1
 100 60 l 1
 90 60 l 1
 90 50 l 1
 50 50 l 1
60 70 m 1
 80 70 l 1
 80 100 l 1
 60 100 l 1
 60 70 l 1
EndSplineSet
EndChar

StartChar: x.itc.superior
Encoding: 57363 57363 150
Width: 110
GlyphClass: 1
Flags: W
LayerCount: 2
Fore
SplineSet
20 50 m 1
 20 70 l 1
 40 70 l 1
 40 80 l 1
 50 80 l 1
 50 100 l 1
 40 100 l 1
 40 90 l 1
 30 90 l 1
 30 80 l 1
 20 80 l 1
 20 100 l 1
 30 100 l 1
 30 110 l 1
 60 110 l 1
 60 100 l 1
 70 100 l 1
 70 110 l 1
 90 110 l 1
 90 90 l 1
 70 90 l 1
 70 80 l 1
 60 80 l 1
 60 60 l 1
 70 60 l 1
 70 70 l 1
 90 70 l 1
 90 60 l 1
 80 60 l 1
 80 50 l 1
 50 50 l 1
 50 60 l 1
 40 60 l 1
 40 50 l 1
 20 50 l 1
EndSplineSet
EndChar

StartChar: tau.itc.inferior
Encoding: 57364 57364 151
Width: 110
GlyphClass: 1
Flags: W
LayerCount: 2
Fore
SplineSet
20 30 m 1
 30 30 l 1
 30 40 l 1
 100 40 l 1
 100 30 l 1
 70 30 l 1
 70 10 l 1
 100 10 l 1
 100 0 l 1
 90 0 l 1
 90 -10 l 1
 60 -10 l 1
 60 0 l 1
 50 0 l 1
 50 30 l 1
 30 30 l 1
 30 20 l 1
 20 20 l 1
 20 30 l 1
EndSplineSet
EndChar

StartChar: mu.itc.inferior
Encoding: 57365 57365 152
Width: 110
GlyphClass: 1
Flags: W
LayerCount: 2
Fore
SplineSet
20 10 m 1
 30 10 l 1
 30 40 l 1
 40 40 l 1
 40 60 l 1
 60 60 l 1
 60 40 l 1
 50 40 l 1
 50 20 l 1
 70 20 l 1
 70 40 l 1
 80 40 l 1
 80 60 l 1
 100 60 l 1
 100 40 l 1
 90 40 l 1
 90 10 l 1
 100 10 l 1
 100 0 l 1
 80 0 l 1
 80 10 l 1
 70 10 l 1
 70 0 l 1
 50 0 l 1
 50 10 l 1
 40 10 l 1
 40 -10 l 1
 20 -10 l 1
 20 10 l 1
EndSplineSet
EndChar

StartChar: pm.inferior
Encoding: 57366 57366 153
Width: 110
GlyphClass: 1
Flags: W
LayerCount: 2
Fore
SplineSet
120 30 m 1
 120 10 l 1
 100 10 l 1
 100 30 l 1
 80 30 l 1
 80 40 l 1
 100 40 l 1
 100 60 l 1
 120 60 l 1
 120 40 l 1
 140 40 l 1
 140 30 l 1
 120 30 l 1
80 0 m 1
 140 0 l 1
 140 -10 l 1
 80 -10 l 1
 80 0 l 1
EndSplineSet
EndChar

StartChar: infty.inferior
Encoding: 57367 57367 154
Width: 110
GlyphClass: 1
Flags: W
LayerCount: 2
Fore
SplineSet
90 -10 m 1
 60 -10 l 1
 60 0 l 1
 40 0 l 1
 40 -10 l 1
 10 -10 l 1
 10 0 l 1
 0 0 l 1
 0 60 l 1
 10 60 l 1
 10 70 l 1
 40 70 l 1
 40 60 l 1
 60 60 l 1
 60 70 l 1
 90 70 l 1
 90 60 l 1
 100 60 l 1
 100 0 l 1
 90 0 l 1
 90 -10 l 1
40 10 m 1
 40 50 l 1
 20 50 l 1
 20 10 l 1
 40 10 l 1
80 10 m 1
 80 50 l 1
 60 50 l 1
 60 10 l 1
 80 10 l 1
EndSplineSet
EndChar

StartChar: Calth-gk
Encoding: 57368 57368 155
Width: 110
GlyphClass: 1
Flags: W
LayerCount: 2
Fore
SplineSet
20 20 m 1
 20 70 l 1
 30 70 l 1
 30 80 l 1
 40 80 l 1
 40 90 l 1
 90 90 l 1
 90 80 l 1
 100 80 l 1
 100 60 l 1
 80 60 l 1
 80 70 l 1
 50 70 l 1
 50 60 l 1
 40 60 l 1
 40 30 l 1
 50 30 l 1
 50 20 l 1
 80 20 l 1
 80 30 l 1
 100 30 l 1
 100 10 l 1
 90 10 l 1
 90 0 l 1
 40 0 l 1
 40 10 l 1
 30 10 l 1
 30 20 l 1
 20 20 l 1
EndSplineSet
EndChar

StartChar: cAlth-gk
Encoding: 57369 57369 156
Width: 110
GlyphClass: 1
Flags: W
LayerCount: 2
Fore
SplineSet
90 80 m 1
 100 80 l 1
 100 0 l 1
 30 0 l 1
 30 10 l 1
 20 10 l 1
 20 50 l 1
 30 50 l 1
 30 60 l 1
 80 60 l 1
 80 70 l 1
 30 70 l 1
 30 90 l 1
 90 90 l 1
 90 80 l 1
80 20 m 1
 80 40 l 1
 40 40 l 1
 40 20 l 1
 80 20 l 1
EndSplineSet
EndChar

StartChar: caLTh-gk
Encoding: 57370 57370 157
Width: 110
GlyphClass: 1
Flags: W
LayerCount: 2
Fore
SplineSet
0 100 m 1
 0 120 l 1
 30 120 l 1
 30 20 l 1
 40 20 l 1
 40 0 l 1
 0 0 l 1
 0 20 l 1
 10 20 l 1
 10 100 l 1
 0 100 l 1
100 30 m 1
 80 30 l 1
 80 10 l 1
 100 10 l 1
 100 -10 l 1
 70 -10 l 1
 70 0 l 1
 60 0 l 1
 60 30 l 1
 50 30 l 1
 50 50 l 1
 60 50 l 1
 60 60 l 1
 80 60 l 1
 80 50 l 1
 100 50 l 1
 100 30 l 1
EndSplineSet
Ligature2: "Ligature Substitution lookup 2 subtable" l t
EndChar

StartChar: caltH-gk
Encoding: 57371 57371 158
Width: 110
GlyphClass: 1
Flags: W
LayerCount: 2
Fore
SplineSet
40 20 m 1
 40 -10 l 1
 20 -10 l 1
 20 60 l 1
 40 60 l 1
 40 40 l 1
 70 40 l 1
 70 30 l 1
 80 30 l 1
 80 -10 l 1
 60 -10 l 1
 60 20 l 1
 40 20 l 1
EndSplineSet
EndChar

StartChar: calth-gk
Encoding: 57372 57372 159
Width: 110
GlyphClass: 1
Flags: W
LayerCount: 2
Fore
SplineSet
0 0 m 1
 0 30 l 1
 10 30 l 1
 10 60 l 1
 20 60 l 1
 20 90 l 1
 30 90 l 1
 30 120 l 1
 50 120 l 1
 50 80 l 1
 40 80 l 1
 40 50 l 1
 30 50 l 1
 30 20 l 1
 20 20 l 1
 20 0 l 1
 0 0 l 1
100 120 m 1
 100 100 l 1
 90 100 l 1
 90 80 l 1
 80 80 l 1
 80 40 l 1
 90 40 l 1
 90 20 l 1
 100 20 l 1
 100 0 l 1
 80 0 l 1
 80 10 l 1
 70 10 l 1
 70 30 l 1
 60 30 l 1
 60 90 l 1
 70 90 l 1
 70 110 l 1
 80 110 l 1
 80 120 l 1
 100 120 l 1
EndSplineSet
Ligature2: "Ligature Substitution lookup 2 subtable" slash parenleft
EndChar

StartChar: calth-Gk
Encoding: 57373 57373 160
Width: 110
GlyphClass: 1
Flags: W
LayerCount: 2
Fore
SplineSet
10 0 m 1
 0 0 l 1
 0 20 l 1
 10 20 l 1
 10 40 l 1
 20 40 l 1
 20 50 l 1
 10 50 l 1
 10 80 l 1
 20 80 l 1
 20 90 l 1
 60 90 l 1
 60 80 l 1
 70 80 l 1
 70 90 l 1
 90 90 l 1
 90 70 l 1
 70 70 l 1
 70 50 l 1
 60 50 l 1
 60 40 l 1
 30 40 l 1
 30 30 l 1
 60 30 l 1
 60 20 l 1
 70 20 l 1
 70 0 l 1
 60 0 l 1
 60 -10 l 1
 10 -10 l 1
 10 0 l 1
28 70 m 1
 28 60 l 1
 51 60 l 1
 51 70 l 1
 28 70 l 1
80 60 m 1
 100 60 l 1
 100 40 l 1
 80 40 l 1
 80 60 l 1
20 10 m 1
 50 10 l 1
 50 20 l 1
 20 20 l 1
 20 10 l 1
EndSplineSet
Ligature2: "Ligature Substitution lookup 2 subtable" g asterisk
EndChar

StartChar: calth-gK
Encoding: 57374 57374 161
Width: 110
GlyphClass: 1
Flags: W
LayerCount: 2
Fore
SplineSet
0 0 m 1
 0 120 l 1
 20 120 l 1
 20 90 l 1
 30 90 l 1
 30 120 l 1
 50 120 l 1
 50 90 l 1
 40 90 l 1
 40 70 l 1
 30 70 l 1
 30 50 l 1
 40 50 l 1
 40 30 l 1
 50 30 l 1
 50 0 l 1
 30 0 l 1
 30 30 l 1
 20 30 l 1
 20 0 l 1
 0 0 l 1
60 120 m 1
 80 120 l 1
 80 110 l 1
 90 110 l 1
 90 90 l 1
 100 90 l 1
 100 30 l 1
 90 30 l 1
 90 10 l 1
 80 10 l 1
 80 0 l 1
 60 0 l 1
 60 20 l 1
 70 20 l 1
 70 40 l 1
 80 40 l 1
 80 80 l 1
 70 80 l 1
 70 100 l 1
 60 100 l 1
 60 120 l 1
EndSplineSet
Ligature2: "Ligature Substitution lookup 2 subtable" K parenright
EndChar

StartChar: to
Encoding: 57375 57375 162
Width: 110
GlyphClass: 1
Flags: W
LayerCount: 2
Fore
SplineSet
40 30 m 1
 40 20 l 1
 20 20 l 1
 20 90 l 1
 40 90 l 1
 40 80 l 1
 60 80 l 1
 60 70 l 1
 80 70 l 1
 80 60 l 1
 100 60 l 1
 100 50 l 1
 80 50 l 1
 80 40 l 1
 60 40 l 1
 60 30 l 1
 40 30 l 1
EndSplineSet
EndChar

StartChar: kgk
Encoding: 57376 57376 163
Width: 110
GlyphClass: 1
Flags: W
LayerCount: 2
Fore
SplineSet
0 0 m 1
 0 30 l 1
 10 30 l 1
 10 60 l 1
 20 60 l 1
 20 90 l 1
 30 90 l 1
 30 120 l 1
 50 120 l 1
 50 80 l 1
 40 80 l 1
 40 50 l 1
 30 50 l 1
 30 20 l 1
 20 20 l 1
 20 0 l 1
 0 0 l 1
100 120 m 1
 100 100 l 1
 90 100 l 1
 90 80 l 1
 80 80 l 1
 80 40 l 1
 90 40 l 1
 90 20 l 1
 100 20 l 1
 100 0 l 1
 80 0 l 1
 80 10 l 1
 70 10 l 1
 70 30 l 1
 60 30 l 1
 60 90 l 1
 70 90 l 1
 70 110 l 1
 80 110 l 1
 80 120 l 1
 100 120 l 1
EndSplineSet
Ligature2: "Ligature Substitution lookup 4 subtable" slash parenleft
EndChar

StartChar: Kgk
Encoding: 57377 57377 164
Width: 110
GlyphClass: 1
Flags: W
LayerCount: 2
Fore
SplineSet
40 0 m 1
 40 120 l 1
 60 120 l 1
 60 60 l 1
 70 60 l 1
 70 70 l 1
 80 70 l 1
 80 80 l 1
 90 80 l 1
 90 90 l 1
 110 90 l 1
 110 70 l 1
 100 70 l 1
 100 60 l 1
 90 60 l 1
 90 40 l 1
 100 40 l 1
 100 30 l 1
 110 30 l 1
 110 20 l 1
 120 20 l 1
 120 0 l 1
 100 0 l 1
 100 10 l 1
 90 10 l 1
 90 20 l 1
 80 20 l 1
 80 30 l 1
 70 30 l 1
 70 40 l 1
 60 40 l 1
 60 0 l 1
 40 0 l 1
EndSplineSet
EndChar

StartChar: kGk
Encoding: 57378 57378 165
Width: 110
GlyphClass: 1
Flags: W
LayerCount: 2
Fore
SplineSet
10 0 m 1
 0 0 l 1
 0 20 l 1
 10 20 l 1
 10 40 l 1
 20 40 l 1
 20 50 l 1
 10 50 l 1
 10 80 l 1
 20 80 l 1
 20 90 l 1
 60 90 l 1
 60 80 l 1
 70 80 l 1
 70 90 l 1
 90 90 l 1
 90 70 l 1
 70 70 l 1
 70 50 l 1
 60 50 l 1
 60 40 l 1
 30 40 l 1
 30 30 l 1
 60 30 l 1
 60 20 l 1
 70 20 l 1
 70 0 l 1
 60 0 l 1
 60 -10 l 1
 10 -10 l 1
 10 0 l 1
28 70 m 1
 28 60 l 1
 51 60 l 1
 51 70 l 1
 28 70 l 1
80 60 m 1
 100 60 l 1
 100 40 l 1
 80 40 l 1
 80 60 l 1
20 10 m 1
 50 10 l 1
 50 20 l 1
 20 20 l 1
 20 10 l 1
EndSplineSet
Ligature2: "Ligature Substitution lookup 4 subtable" g asterisk
EndChar

StartChar: kgK
Encoding: 57379 57379 166
Width: 110
GlyphClass: 1
Flags: W
LayerCount: 2
Fore
SplineSet
0 0 m 1
 0 120 l 1
 20 120 l 1
 20 90 l 1
 30 90 l 1
 30 120 l 1
 50 120 l 1
 50 90 l 1
 40 90 l 1
 40 70 l 1
 30 70 l 1
 30 50 l 1
 40 50 l 1
 40 30 l 1
 50 30 l 1
 50 0 l 1
 30 0 l 1
 30 30 l 1
 20 30 l 1
 20 0 l 1
 0 0 l 1
60 120 m 1
 80 120 l 1
 80 110 l 1
 90 110 l 1
 90 90 l 1
 100 90 l 1
 100 30 l 1
 90 30 l 1
 90 10 l 1
 80 10 l 1
 80 0 l 1
 60 0 l 1
 60 20 l 1
 70 20 l 1
 70 40 l 1
 80 40 l 1
 80 80 l 1
 70 80 l 1
 70 100 l 1
 60 100 l 1
 60 120 l 1
EndSplineSet
Ligature2: "Ligature Substitution lookup 4 subtable" K parenright
EndChar

StartChar: div
Encoding: 8991 8991 167
AltUni2: 00e024.ffffffff.0 00e024.ffffffff.0
Width: 110
GlyphClass: 1
Flags: W
LayerCount: 2
Fore
SplineSet
20 20 m 1
 80 20 l 1
 80 90 l 1
 100 90 l 1
 100 0 l 1
 20 0 l 1
 20 20 l 1
EndSplineSet
EndChar

StartChar: dms
Encoding: 57381 57381 168
Width: 110
GlyphClass: 1
Flags: W
LayerCount: 2
Fore
SplineSet
20 120 m 1
 70 120 l 1
 70 70 l 1
 20 70 l 1
 20 120 l 1
30 110 m 1
 30 80 l 1
 60 80 l 1
 60 110 l 1
 30 110 l 1
EndSplineSet
EndChar

StartChar: cursor.replace
Encoding: 57382 57382 169
Width: 110
GlyphClass: 1
Flags: W
LayerCount: 2
Fore
SplineSet
0 20 m 1
 100 20 l 1
 100 -10 l 1
 0 -10 l 1
 0 20 l 1
EndSplineSet
EndChar

StartChar: cursor.full
Encoding: 57383 57383 170
Width: 110
GlyphClass: 1
Flags: W
LayerCount: 2
Fore
SplineSet
0 120 m 1
 100 120 l 1
 100 -10 l 1
 0 -10 l 1
 0 120 l 1
EndSplineSet
EndChar

StartChar: BOX
Encoding: 57384 57384 171
Width: 110
GlyphClass: 1
Flags: W
LayerCount: 2
Fore
SplineSet
0 120 m 1
 100 120 l 1
 100 -10 l 1
 0 -10 l 1
 0 120 l 1
20 100 m 1
 20 10 l 1
 80 10 l 1
 80 100 l 1
 20 100 l 1
EndSplineSet
Substitution2: "'ss01' Style Set 1 lookup 5 subtable" box.superior
Substitution2: "'aalt' Access All Alternates lookup 0 subtable" box.superior
EndChar

StartChar: cut
Encoding: 57385 57385 172
Width: 110
GlyphClass: 1
Flags: W
LayerCount: 2
Fore
SplineSet
0 0 m 1
 0 120 l 1
 100 120 l 1
 100 0 l 1
 0 0 l 1
10 40 m 1
 10 20 l 1
 20 20 l 1
 20 10 l 1
 40 10 l 1
 40 20 l 1
 60 20 l 1
 60 10 l 1
 80 10 l 1
 80 20 l 1
 60 20 l 1
 60 40 l 1
 80 40 l 1
 80 20 l 1
 90 20 l 1
 90 40 l 1
 80 40 l 1
 80 50 l 1
 60 50 l 1
 60 60 l 1
 70 60 l 1
 70 80 l 1
 80 80 l 1
 80 110 l 1
 70 110 l 1
 70 90 l 1
 60 90 l 1
 60 70 l 1
 40 70 l 1
 40 90 l 1
 30 90 l 1
 30 110 l 1
 20 110 l 1
 20 80 l 1
 30 80 l 1
 30 60 l 1
 40 60 l 1
 40 50 l 1
 20 50 l 1
 20 40 l 1
 10 40 l 1
20 40 m 1
 40 40 l 1
 40 20 l 1
 20 20 l 1
 20 40 l 1
EndSplineSet
EndChar

StartChar: paste
Encoding: 57386 57386 173
Width: 110
GlyphClass: 1
Flags: W
LayerCount: 2
Fore
SplineSet
100 0 m 1
 0 0 l 1
 0 120 l 1
 100 120 l 1
 100 0 l 1
10 110 m 1
 10 40 l 1
 40 40 l 1
 40 10 l 1
 90 10 l 1
 90 80 l 1
 60 80 l 1
 60 110 l 1
 10 110 l 1
20 100 m 1
 50 100 l 1
 50 80 l 1
 40 80 l 1
 40 50 l 1
 20 50 l 1
 20 100 l 1
50 20 m 1
 50 70 l 1
 80 70 l 1
 80 20 l 1
 50 20 l 1
EndSplineSet
EndChar

StartChar: divR-Fr
Encoding: 57387 57387 174
Width: 110
GlyphClass: 1
Flags: W
LayerCount: 2
Fore
SplineSet
60 0 m 1
 60 120 l 1
 80 120 l 1
 80 70 l 1
 130 70 l 1
 130 50 l 1
 80 50 l 1
 80 0 l 1
 60 0 l 1
EndSplineSet
EndChar

StartChar: divR-Sp
Encoding: 8985 8985 175
AltUni2: 00e02c.ffffffff.0 00e02c.ffffffff.0
Width: 110
GlyphClass: 1
Flags: W
LayerCount: 2
Fore
SplineSet
0 20 m 1
 0 90 l 1
 20 90 l 1
 20 40 l 1
 100 40 l 1
 100 20 l 1
 0 20 l 1
EndSplineSet
EndChar

StartChar: arrow-hook.up
Encoding: 57389 57389 176
Width: 110
GlyphClass: 1
Flags: W
LayerCount: 2
Fore
SplineSet
0 80 m 1
 0 90 l 1
 10 90 l 1
 10 100 l 1
 20 100 l 1
 20 110 l 1
 30 110 l 1
 30 120 l 1
 50 120 l 1
 50 110 l 1
 60 110 l 1
 60 100 l 1
 70 100 l 1
 70 90 l 1
 80 90 l 1
 80 80 l 1
 50 80 l 1
 50 20 l 1
 80 20 l 1
 80 70 l 1
 100 70 l 1
 100 10 l 1
 90 10 l 1
 90 0 l 1
 40 0 l 1
 40 10 l 1
 30 10 l 1
 30 80 l 1
 0 80 l 1
EndSplineSet
EndChar

StartChar: Shaku.Length
Encoding: 57600 57600 177
Width: 110
GlyphClass: 1
Flags: W
LayerCount: 2
Fore
SplineSet
20 10 m 1
 10 10 l 1
 10 0 l 1
 0 0 l 1
 0 20 l 1
 10 20 l 1
 10 40 l 1
 20 40 l 1
 20 120 l 1
 90 120 l 1
 90 60 l 1
 60 60 l 1
 60 50 l 1
 70 50 l 1
 70 30 l 1
 80 30 l 1
 80 20 l 1
 90 20 l 1
 90 10 l 1
 100 10 l 1
 100 0 l 1
 80 0 l 1
 80 10 l 1
 70 10 l 1
 70 20 l 1
 60 20 l 1
 60 40 l 1
 50 40 l 1
 50 60 l 1
 30 60 l 1
 30 30 l 1
 20 30 l 1
 20 10 l 1
30 110 m 1
 30 70 l 1
 80 70 l 1
 80 110 l 1
 30 110 l 1
EndSplineSet
EndChar

StartChar: Sun
Encoding: 57601 57601 178
Width: 110
GlyphClass: 1
Flags: W
LayerCount: 2
Fore
SplineSet
70 0 m 1
 40 0 l 1
 40 10 l 1
 60 10 l 1
 60 80 l 1
 0 80 l 1
 0 90 l 1
 60 90 l 1
 60 120 l 1
 70 120 l 1
 70 90 l 1
 100 90 l 1
 100 80 l 1
 70 80 l 1
 70 0 l 1
20 60 m 1
 30 60 l 1
 30 50 l 1
 40 50 l 1
 40 30 l 1
 30 30 l 1
 30 40 l 1
 20 40 l 1
 20 60 l 1
EndSplineSet
EndChar

StartChar: Fun
Encoding: 57602 57602 179
Width: 110
GlyphClass: 1
Flags: W
LayerCount: 2
Fore
SplineSet
20 110 m 1
 30 110 l 1
 30 120 l 1
 40 120 l 1
 40 100 l 1
 30 100 l 1
 30 80 l 1
 20 80 l 1
 20 70 l 1
 10 70 l 1
 10 60 l 1
 0 60 l 1
 0 80 l 1
 10 80 l 1
 10 90 l 1
 20 90 l 1
 20 110 l 1
70 100 m 1
 60 100 l 1
 60 120 l 1
 70 120 l 1
 70 110 l 1
 80 110 l 1
 80 90 l 1
 90 90 l 1
 90 80 l 1
 100 80 l 1
 100 60 l 1
 90 60 l 1
 90 70 l 1
 80 70 l 1
 80 80 l 1
 70 80 l 1
 70 100 l 1
50 60 m 1
 50 30 l 1
 40 30 l 1
 40 10 l 1
 30 10 l 1
 30 0 l 1
 10 0 l 1
 10 10 l 1
 20 10 l 1
 20 20 l 1
 30 20 l 1
 30 40 l 1
 40 40 l 1
 40 60 l 1
 20 60 l 1
 20 70 l 1
 80 70 l 1
 80 0 l 1
 50 0 l 1
 50 10 l 1
 70 10 l 1
 70 60 l 1
 50 60 l 1
EndSplineSet
EndChar

StartChar: Ken
Encoding: 57603 57603 180
Width: 110
GlyphClass: 1
Flags: W
LayerCount: 2
Fore
SplineSet
10 70 m 1
 10 0 l 1
 0 0 l 1
 0 120 l 1
 40 120 l 1
 40 70 l 1
 10 70 l 1
30 60 m 1
 70 60 l 1
 70 10 l 1
 90 10 l 1
 90 70 l 1
 60 70 l 1
 60 120 l 1
 100 120 l 1
 100 0 l 1
 70 0 l 1
 70 10 l 1
 30 10 l 1
 30 60 l 1
10 110 m 1
 10 100 l 1
 30 100 l 1
 30 110 l 1
 10 110 l 1
70 110 m 1
 70 100 l 1
 90 100 l 1
 90 110 l 1
 70 110 l 1
10 90 m 1
 10 80 l 1
 30 80 l 1
 30 90 l 1
 10 90 l 1
70 90 m 1
 70 80 l 1
 90 80 l 1
 90 90 l 1
 70 90 l 1
40 50 m 1
 40 40 l 1
 60 40 l 1
 60 50 l 1
 40 50 l 1
40 30 m 1
 40 20 l 1
 60 20 l 1
 60 30 l 1
 40 30 l 1
EndSplineSet
EndChar

StartChar: Chou
Encoding: 57604 57604 181
Width: 110
GlyphClass: 1
Flags: W
LayerCount: 2
Fore
SplineSet
0 30 m 1
 0 120 l 1
 50 120 l 1
 50 100 l 1
 100 100 l 1
 100 90 l 1
 80 90 l 1
 80 0 l 1
 50 0 l 1
 50 10 l 1
 70 10 l 1
 70 90 l 1
 50 90 l 1
 50 30 l 1
 0 30 l 1
10 110 m 1
 10 80 l 1
 20 80 l 1
 20 110 l 1
 10 110 l 1
30 110 m 1
 30 80 l 1
 40 80 l 1
 40 110 l 1
 30 110 l 1
30 70 m 1
 30 40 l 1
 40 40 l 1
 40 70 l 1
 30 70 l 1
10 70 m 1
 10 40 l 1
 20 40 l 1
 20 70 l 1
 10 70 l 1
EndSplineSet
EndChar

StartChar: Ri
Encoding: 57605 57605 182
Width: 110
GlyphClass: 1
Flags: W
LayerCount: 2
Fore
SplineSet
60 50 m 1
 30 50 l 1
 30 120 l 1
 100 120 l 1
 100 50 l 1
 70 50 l 1
 70 40 l 1
 100 40 l 1
 100 30 l 1
 70 30 l 1
 70 10 l 1
 110 10 l 1
 110 0 l 1
 20 0 l 1
 20 10 l 1
 60 10 l 1
 60 30 l 1
 30 30 l 1
 30 40 l 1
 60 40 l 1
 60 50 l 1
40 110 m 1
 40 90 l 1
 60 90 l 1
 60 110 l 1
 40 110 l 1
70 110 m 1
 70 90 l 1
 90 90 l 1
 90 110 l 1
 70 110 l 1
40 80 m 1
 40 60 l 1
 60 60 l 1
 60 80 l 1
 40 80 l 1
70 80 m 1
 70 60 l 1
 90 60 l 1
 90 80 l 1
 70 80 l 1
EndSplineSet
EndChar

StartChar: Kai
Encoding: 57606 57606 183
Width: 110
GlyphClass: 1
Flags: W
LayerCount: 2
Fore
SplineSet
40 80 m 1
 30 80 l 1
 30 70 l 1
 20 70 l 1
 20 90 l 1
 10 90 l 1
 10 100 l 1
 0 100 l 1
 0 120 l 1
 10 120 l 1
 10 110 l 1
 20 110 l 1
 20 90 l 1
 30 90 l 1
 30 120 l 1
 40 120 l 1
 40 110 l 1
 100 110 l 1
 100 100 l 1
 40 100 l 1
 40 90 l 1
 90 90 l 1
 90 60 l 1
 100 60 l 1
 100 50 l 1
 90 50 l 1
 90 30 l 1
 100 30 l 1
 100 20 l 1
 90 20 l 1
 90 0 l 1
 60 0 l 1
 60 10 l 1
 80 10 l 1
 80 20 l 1
 50 20 l 1
 50 10 l 1
 40 10 l 1
 40 50 l 1
 30 50 l 1
 30 60 l 1
 40 60 l 1
 40 80 l 1
10 70 m 1
 20 70 l 1
 20 50 l 1
 10 50 l 1
 10 60 l 1
 0 60 l 1
 0 80 l 1
 10 80 l 1
 10 70 l 1
50 80 m 1
 50 60 l 1
 60 60 l 1
 60 80 l 1
 50 80 l 1
70 80 m 1
 70 60 l 1
 80 60 l 1
 80 80 l 1
 70 80 l 1
50 50 m 1
 50 30 l 1
 60 30 l 1
 60 50 l 1
 50 50 l 1
70 50 m 1
 70 30 l 1
 80 30 l 1
 80 50 l 1
 70 50 l 1
20 10 m 1
 10 10 l 1
 10 0 l 1
 0 0 l 1
 0 20 l 1
 10 20 l 1
 10 40 l 1
 20 40 l 1
 20 50 l 1
 30 50 l 1
 30 30 l 1
 20 30 l 1
 20 10 l 1
EndSplineSet
EndChar

StartChar: Jou
Encoding: 57607 57607 184
Width: 110
GlyphClass: 1
Flags: W
LayerCount: 2
Fore
SplineSet
100 90 m 1
 70 90 l 1
 70 60 l 1
 60 60 l 1
 60 40 l 1
 50 40 l 1
 50 30 l 1
 60 30 l 1
 60 20 l 1
 80 20 l 1
 80 10 l 1
 100 10 l 1
 100 0 l 1
 70 0 l 1
 70 10 l 1
 50 10 l 1
 50 20 l 1
 40 20 l 1
 40 10 l 1
 20 10 l 1
 20 0 l 1
 0 0 l 1
 0 10 l 1
 10 10 l 1
 10 20 l 1
 30 20 l 1
 30 30 l 1
 40 30 l 1
 40 40 l 1
 30 40 l 1
 30 60 l 1
 20 60 l 1
 20 80 l 1
 30 80 l 1
 30 70 l 1
 40 70 l 1
 40 50 l 1
 50 50 l 1
 50 70 l 1
 60 70 l 1
 60 90 l 1
 0 90 l 1
 0 100 l 1
 60 100 l 1
 60 120 l 1
 70 120 l 1
 70 100 l 1
 100 100 l 1
 100 90 l 1
EndSplineSet
EndChar

StartChar: Mou
Encoding: 57608 57608 185
Width: 110
GlyphClass: 1
Flags: W
LayerCount: 2
Fore
SplineSet
40 120 m 1
 90 120 l 1
 90 110 l 1
 50 110 l 1
 50 80 l 1
 60 80 l 1
 60 90 l 1
 90 90 l 1
 90 80 l 1
 70 80 l 1
 70 70 l 1
 50 70 l 1
 50 50 l 1
 60 50 l 1
 60 60 l 1
 100 60 l 1
 100 50 l 1
 70 50 l 1
 70 40 l 1
 50 40 l 1
 50 10 l 1
 90 10 l 1
 90 20 l 1
 100 20 l 1
 100 0 l 1
 40 0 l 1
 40 40 l 1
 30 40 l 1
 30 30 l 1
 0 30 l 1
 0 40 l 1
 20 40 l 1
 20 50 l 1
 40 50 l 1
 40 70 l 1
 30 70 l 1
 30 60 l 1
 0 60 l 1
 0 70 l 1
 20 70 l 1
 20 80 l 1
 40 80 l 1
 40 100 l 1
 10 100 l 1
 10 110 l 1
 40 110 l 1
 40 120 l 1
EndSplineSet
EndChar

StartChar: Rin
Encoding: 57609 57609 186
Width: 110
GlyphClass: 1
Flags: W
LayerCount: 2
Fore
SplineSet
20 30 m 1
 10 30 l 1
 10 0 l 1
 0 0 l 1
 0 40 l 1
 10 40 l 1
 10 120 l 1
 90 120 l 1
 90 110 l 1
 20 110 l 1
 20 30 l 1
60 10 m 1
 90 10 l 1
 90 0 l 1
 20 0 l 1
 20 10 l 1
 50 10 l 1
 50 30 l 1
 30 30 l 1
 30 40 l 1
 50 40 l 1
 50 50 l 1
 30 50 l 1
 30 100 l 1
 80 100 l 1
 80 50 l 1
 60 50 l 1
 60 40 l 1
 80 40 l 1
 80 30 l 1
 60 30 l 1
 60 10 l 1
40 90 m 1
 40 80 l 1
 50 80 l 1
 50 90 l 1
 40 90 l 1
60 90 m 1
 60 80 l 1
 70 80 l 1
 70 90 l 1
 60 90 l 1
40 70 m 1
 40 60 l 1
 50 60 l 1
 50 70 l 1
 40 70 l 1
60 70 m 1
 60 60 l 1
 70 60 l 1
 70 70 l 1
 60 70 l 1
EndSplineSet
EndChar

StartChar: Bu
Encoding: 57610 57610 187
Width: 110
GlyphClass: 1
Flags: W
LayerCount: 2
Fore
SplineSet
80 40 m 1
 90 40 l 1
 90 20 l 1
 80 20 l 1
 80 10 l 1
 60 10 l 1
 60 0 l 1
 30 0 l 1
 30 10 l 1
 50 10 l 1
 50 20 l 1
 70 20 l 1
 70 30 l 1
 50 30 l 1
 50 40 l 1
 60 40 l 1
 60 70 l 1
 20 70 l 1
 20 80 l 1
 30 80 l 1
 30 110 l 1
 40 110 l 1
 40 80 l 1
 60 80 l 1
 60 120 l 1
 70 120 l 1
 70 100 l 1
 100 100 l 1
 100 90 l 1
 70 90 l 1
 70 80 l 1
 110 80 l 1
 110 70 l 1
 70 70 l 1
 70 30 l 1
 80 30 l 1
 80 40 l 1
30 60 m 1
 40 60 l 1
 40 40 l 1
 30 40 l 1
 30 30 l 1
 20 30 l 1
 20 50 l 1
 30 50 l 1
 30 60 l 1
90 60 m 1
 100 60 l 1
 100 50 l 1
 110 50 l 1
 110 30 l 1
 100 30 l 1
 100 40 l 1
 90 40 l 1
 90 60 l 1
EndSplineSet
EndChar

StartChar: Shaku.Volume
Encoding: 57611 57611 188
Width: 110
GlyphClass: 1
Flags: W
LayerCount: 2
Fore
SplineSet
20 70 m 1
 10 70 l 1
 10 60 l 1
 0 60 l 1
 0 80 l 1
 10 80 l 1
 10 100 l 1
 20 100 l 1
 20 120 l 1
 30 120 l 1
 30 100 l 1
 100 100 l 1
 100 10 l 1
 90 10 l 1
 90 0 l 1
 50 0 l 1
 50 10 l 1
 80 10 l 1
 80 20 l 1
 90 20 l 1
 90 90 l 1
 20 90 l 1
 20 70 l 1
30 60 m 1
 40 60 l 1
 40 50 l 1
 50 50 l 1
 50 30 l 1
 40 30 l 1
 40 40 l 1
 30 40 l 1
 30 50 l 1
 20 50 l 1
 20 70 l 1
 30 70 l 1
 30 60 l 1
EndSplineSet
EndChar

StartChar: Tsubo
Encoding: 57612 57612 189
Width: 110
GlyphClass: 1
Flags: W
LayerCount: 2
Fore
SplineSet
30 50 m 1
 30 60 l 1
 60 60 l 1
 60 110 l 1
 30 110 l 1
 30 120 l 1
 100 120 l 1
 100 110 l 1
 70 110 l 1
 70 60 l 1
 100 60 l 1
 100 50 l 1
 70 50 l 1
 70 0 l 1
 60 0 l 1
 60 50 l 1
 30 50 l 1
30 40 m 1
 30 30 l 1
 20 30 l 1
 20 20 l 1
 0 20 l 1
 0 30 l 1
 10 30 l 1
 10 90 l 1
 0 90 l 1
 0 100 l 1
 10 100 l 1
 10 120 l 1
 20 120 l 1
 20 100 l 1
 40 100 l 1
 40 90 l 1
 50 90 l 1
 50 70 l 1
 40 70 l 1
 40 80 l 1
 30 80 l 1
 30 90 l 1
 20 90 l 1
 20 40 l 1
 30 40 l 1
90 70 m 1
 80 70 l 1
 80 90 l 1
 90 90 l 1
 90 100 l 1
 100 100 l 1
 100 80 l 1
 90 80 l 1
 90 70 l 1
EndSplineSet
EndChar

StartChar: Se
Encoding: 57613 57613 190
Width: 110
GlyphClass: 1
Flags: W
LayerCount: 2
Fore
SplineSet
0 10 m 1
 0 80 l 1
 50 80 l 1
 50 90 l 1
 0 90 l 1
 0 100 l 1
 20 100 l 1
 20 120 l 1
 30 120 l 1
 30 100 l 1
 50 100 l 1
 50 90 l 1
 60 90 l 1
 60 100 l 1
 70 100 l 1
 70 120 l 1
 80 120 l 1
 80 100 l 1
 100 100 l 1
 100 70 l 1
 90 70 l 1
 90 50 l 1
 80 50 l 1
 80 40 l 1
 90 40 l 1
 90 20 l 1
 100 20 l 1
 100 0 l 1
 90 0 l 1
 90 10 l 1
 80 10 l 1
 80 30 l 1
 70 30 l 1
 70 10 l 1
 60 10 l 1
 60 0 l 1
 50 0 l 1
 50 10 l 1
 0 10 l 1
70 80 m 1
 60 80 l 1
 60 60 l 1
 50 60 l 1
 50 20 l 1
 60 20 l 1
 60 40 l 1
 70 40 l 1
 70 60 l 1
 80 60 l 1
 80 80 l 1
 90 80 l 1
 90 90 l 1
 70 90 l 1
 70 80 l 1
10 70 m 1
 10 50 l 1
 20 50 l 1
 20 70 l 1
 10 70 l 1
30 70 m 1
 30 50 l 1
 40 50 l 1
 40 70 l 1
 30 70 l 1
30 40 m 1
 30 20 l 1
 40 20 l 1
 40 40 l 1
 30 40 l 1
10 40 m 1
 10 20 l 1
 20 20 l 1
 20 40 l 1
 10 40 l 1
EndSplineSet
EndChar

StartChar: Tan
Encoding: 57614 57614 191
Width: 110
GlyphClass: 1
Flags: W
LayerCount: 2
Fore
SplineSet
30 80 m 1
 20 80 l 1
 20 20 l 1
 10 20 l 1
 10 0 l 1
 0 0 l 1
 0 30 l 1
 10 30 l 1
 10 120 l 1
 100 120 l 1
 100 110 l 1
 20 110 l 1
 20 90 l 1
 90 90 l 1
 90 60 l 1
 80 60 l 1
 80 40 l 1
 70 40 l 1
 70 30 l 1
 80 30 l 1
 80 20 l 1
 90 20 l 1
 90 10 l 1
 100 10 l 1
 100 0 l 1
 80 0 l 1
 80 10 l 1
 70 10 l 1
 70 20 l 1
 50 20 l 1
 50 10 l 1
 40 10 l 1
 40 0 l 1
 20 0 l 1
 20 10 l 1
 30 10 l 1
 30 20 l 1
 40 20 l 1
 40 30 l 1
 50 30 l 1
 50 40 l 1
 40 40 l 1
 40 60 l 1
 30 60 l 1
 30 80 l 1
70 70 m 1
 80 70 l 1
 80 80 l 1
 40 80 l 1
 40 70 l 1
 50 70 l 1
 50 50 l 1
 70 50 l 1
 70 70 l 1
EndSplineSet
EndChar

StartChar: Shou
Encoding: 57615 57615 192
Width: 110
GlyphClass: 1
Flags: W
LayerCount: 2
Fore
SplineSet
40 120 m 1
 60 120 l 1
 60 110 l 1
 50 110 l 1
 50 100 l 1
 40 100 l 1
 40 70 l 1
 70 70 l 1
 70 120 l 1
 80 120 l 1
 80 70 l 1
 100 70 l 1
 100 60 l 1
 80 60 l 1
 80 0 l 1
 70 0 l 1
 70 60 l 1
 40 60 l 1
 40 40 l 1
 30 40 l 1
 30 20 l 1
 20 20 l 1
 20 0 l 1
 0 0 l 1
 0 10 l 1
 10 10 l 1
 10 30 l 1
 20 30 l 1
 20 50 l 1
 30 50 l 1
 30 60 l 1
 0 60 l 1
 0 70 l 1
 30 70 l 1
 30 90 l 1
 0 90 l 1
 0 100 l 1
 20 100 l 1
 20 110 l 1
 40 110 l 1
 40 120 l 1
EndSplineSet
EndChar

StartChar: Gou
Encoding: 57616 57616 193
Width: 110
GlyphClass: 1
Flags: W
LayerCount: 2
Fore
SplineSet
30 80 m 1
 20 80 l 1
 20 70 l 1
 0 70 l 1
 0 80 l 1
 10 80 l 1
 10 90 l 1
 20 90 l 1
 20 100 l 1
 30 100 l 1
 30 110 l 1
 40 110 l 1
 40 120 l 1
 60 120 l 1
 60 110 l 1
 70 110 l 1
 70 100 l 1
 80 100 l 1
 80 90 l 1
 90 90 l 1
 90 80 l 1
 100 80 l 1
 100 70 l 1
 80 70 l 1
 80 80 l 1
 70 80 l 1
 70 70 l 1
 30 70 l 1
 30 80 l 1
30 90 m 1
 30 80 l 1
 70 80 l 1
 70 90 l 1
 60 90 l 1
 60 100 l 1
 40 100 l 1
 40 90 l 1
 30 90 l 1
20 50 m 1
 80 50 l 1
 80 0 l 1
 70 0 l 1
 70 10 l 1
 30 10 l 1
 30 0 l 1
 20 0 l 1
 20 50 l 1
30 40 m 1
 30 20 l 1
 70 20 l 1
 70 40 l 1
 30 40 l 1
EndSplineSet
EndChar

StartChar: To
Encoding: 57617 57617 194
Width: 110
GlyphClass: 1
Flags: W
LayerCount: 2
Fore
SplineSet
60 50 m 1
 60 120 l 1
 70 120 l 1
 70 60 l 1
 100 60 l 1
 100 50 l 1
 70 50 l 1
 70 0 l 1
 60 0 l 1
 60 40 l 1
 40 40 l 1
 40 30 l 1
 0 30 l 1
 0 40 l 1
 30 40 l 1
 30 50 l 1
 60 50 l 1
20 110 m 1
 40 110 l 1
 40 100 l 1
 50 100 l 1
 50 90 l 1
 30 90 l 1
 30 100 l 1
 20 100 l 1
 20 110 l 1
10 80 m 1
 30 80 l 1
 30 70 l 1
 40 70 l 1
 40 60 l 1
 20 60 l 1
 20 70 l 1
 10 70 l 1
 10 80 l 1
EndSplineSet
EndChar

StartChar: Koku
Encoding: 57618 57618 195
Width: 110
GlyphClass: 1
Flags: W
LayerCount: 2
Fore
SplineSet
80 10 m 1
 30 10 l 1
 30 0 l 1
 20 0 l 1
 20 50 l 1
 10 50 l 1
 10 40 l 1
 0 40 l 1
 0 60 l 1
 10 60 l 1
 10 70 l 1
 20 70 l 1
 20 90 l 1
 30 90 l 1
 30 100 l 1
 0 100 l 1
 0 110 l 1
 100 110 l 1
 100 100 l 1
 40 100 l 1
 40 80 l 1
 30 80 l 1
 30 70 l 1
 90 70 l 1
 90 0 l 1
 80 0 l 1
 80 10 l 1
30 60 m 1
 30 20 l 1
 80 20 l 1
 80 60 l 1
 30 60 l 1
EndSplineSet
EndChar

StartChar: Kan
Encoding: 57619 57619 196
Width: 110
GlyphClass: 1
Flags: W
LayerCount: 2
Fore
SplineSet
90 10 m 1
 40 10 l 1
 40 0 l 1
 20 0 l 1
 20 10 l 1
 40 10 l 1
 40 20 l 1
 30 20 l 1
 30 70 l 1
 40 70 l 1
 40 80 l 1
 30 80 l 1
 30 90 l 1
 20 90 l 1
 20 100 l 1
 30 100 l 1
 30 120 l 1
 100 120 l 1
 100 100 l 1
 110 100 l 1
 110 90 l 1
 100 90 l 1
 100 80 l 1
 90 80 l 1
 90 90 l 1
 70 90 l 1
 70 80 l 1
 90 80 l 1
 90 70 l 1
 100 70 l 1
 100 20 l 1
 90 20 l 1
 90 30 l 1
 40 30 l 1
 40 20 l 1
 90 20 l 1
 90 10 l 1
 110 10 l 1
 110 0 l 1
 90 0 l 1
 90 10 l 1
40 110 m 1
 40 100 l 1
 60 100 l 1
 60 110 l 1
 40 110 l 1
70 110 m 1
 70 100 l 1
 90 100 l 1
 90 110 l 1
 70 110 l 1
40 90 m 1
 40 80 l 1
 60 80 l 1
 60 90 l 1
 40 90 l 1
40 70 m 1
 40 60 l 1
 90 60 l 1
 90 70 l 1
 40 70 l 1
40 50 m 1
 40 40 l 1
 90 40 l 1
 90 50 l 1
 40 50 l 1
EndSplineSet
EndChar

StartChar: Monme
Encoding: 57620 57620 197
Width: 110
GlyphClass: 1
Flags: W
LayerCount: 2
Fore
SplineSet
30 100 m 1
 30 120 l 1
 40 120 l 1
 40 100 l 1
 90 100 l 1
 90 20 l 1
 100 20 l 1
 100 10 l 1
 80 10 l 1
 80 0 l 1
 50 0 l 1
 50 10 l 1
 70 10 l 1
 70 20 l 1
 60 20 l 1
 60 30 l 1
 50 30 l 1
 50 40 l 1
 40 40 l 1
 40 20 l 1
 30 20 l 1
 30 10 l 1
 20 10 l 1
 20 0 l 1
 0 0 l 1
 0 10 l 1
 10 10 l 1
 10 20 l 1
 20 20 l 1
 20 30 l 1
 30 30 l 1
 30 50 l 1
 40 50 l 1
 40 60 l 1
 30 60 l 1
 30 70 l 1
 20 70 l 1
 20 60 l 1
 0 60 l 1
 0 70 l 1
 10 70 l 1
 10 80 l 1
 20 80 l 1
 20 100 l 1
 30 100 l 1
50 90 m 1
 30 90 l 1
 30 80 l 1
 40 80 l 1
 40 70 l 1
 50 70 l 1
 50 90 l 1
50 50 m 1
 60 50 l 1
 60 40 l 1
 70 40 l 1
 70 30 l 1
 80 30 l 1
 80 90 l 1
 60 90 l 1
 60 60 l 1
 50 60 l 1
 50 50 l 1
EndSplineSet
EndChar

StartChar: Kin
Encoding: 57621 57621 198
Width: 110
GlyphClass: 1
Flags: W
LayerCount: 2
Fore
SplineSet
60 120 m 1
 90 120 l 1
 90 110 l 1
 70 110 l 1
 70 100 l 1
 30 100 l 1
 30 70 l 1
 100 70 l 1
 100 60 l 1
 70 60 l 1
 70 0 l 1
 60 0 l 1
 60 60 l 1
 30 60 l 1
 30 30 l 1
 20 30 l 1
 20 10 l 1
 10 10 l 1
 10 0 l 1
 0 0 l 1
 0 20 l 1
 10 20 l 1
 10 40 l 1
 20 40 l 1
 20 110 l 1
 60 110 l 1
 60 120 l 1
EndSplineSet
EndChar

StartChar: Gbold
Encoding: 119814 119814 199
Width: 110
GlyphClass: 1
Flags: W
LayerCount: 2
Fore
SplineSet
0 30 m 1
 0 90 l 1
 10 90 l 1
 10 110 l 1
 30 110 l 1
 30 120 l 1
 90 120 l 1
 90 110 l 1
 100 110 l 1
 100 90 l 1
 80 90 l 1
 80 100 l 1
 50 100 l 1
 50 90 l 1
 40 90 l 1
 40 30 l 1
 50 30 l 1
 50 20 l 1
 80 20 l 1
 80 50 l 1
 60 50 l 1
 60 70 l 1
 100 70 l 1
 100 10 l 1
 90 10 l 1
 90 0 l 1
 30 0 l 1
 30 10 l 1
 10 10 l 1
 10 30 l 1
 0 30 l 1
EndSplineSet
EndChar

StartChar: Mbold
Encoding: 119820 119820 200
Width: 110
GlyphClass: 1
Flags: W
LayerCount: 2
Fore
SplineSet
0 0 m 1
 0 120 l 1
 30 120 l 1
 30 100 l 1
 40 100 l 1
 40 60 l 1
 60 60 l 1
 60 100 l 1
 70 100 l 1
 70 120 l 1
 100 120 l 1
 100 0 l 1
 70 0 l 1
 70 40 l 1
 60 40 l 1
 60 0 l 1
 40 0 l 1
 40 40 l 1
 30 40 l 1
 30 0 l 1
 0 0 l 1
EndSplineSet
EndChar

StartChar: Pbold
Encoding: 119823 119823 201
Width: 110
GlyphClass: 1
Flags: W
LayerCount: 2
Fore
SplineSet
20 0 m 1
 20 120 l 1
 100 120 l 1
 100 110 l 1
 110 110 l 1
 110 60 l 1
 100 60 l 1
 100 50 l 1
 50 50 l 1
 50 0 l 1
 20 0 l 1
50 100 m 1
 50 70 l 1
 80 70 l 1
 80 100 l 1
 50 100 l 1
EndSplineSet
EndChar

StartChar: Tbold
Encoding: 119827 119827 202
Width: 110
GlyphClass: 1
Flags: W
LayerCount: 2
Fore
SplineSet
20 100 m 1
 20 120 l 1
 110 120 l 1
 110 100 l 1
 80 100 l 1
 80 0 l 1
 50 0 l 1
 50 100 l 1
 20 100 l 1
EndSplineSet
EndChar

StartChar: fbold
Encoding: 119839 119839 203
Width: 110
GlyphClass: 1
Flags: W
LayerCount: 2
Fore
SplineSet
20 60 m 1
 20 80 l 1
 40 80 l 1
 40 110 l 1
 50 110 l 1
 50 120 l 1
 100 120 l 1
 100 110 l 1
 110 110 l 1
 110 90 l 1
 90 90 l 1
 90 100 l 1
 70 100 l 1
 70 80 l 1
 100 80 l 1
 100 60 l 1
 70 60 l 1
 70 0 l 1
 40 0 l 1
 40 60 l 1
 20 60 l 1
EndSplineSet
EndChar

StartChar: kbold
Encoding: 119844 119844 204
Width: 110
GlyphClass: 1
Flags: W
LayerCount: 2
Fore
SplineSet
20 0 m 1
 20 120 l 1
 50 120 l 1
 50 60 l 1
 60 60 l 1
 60 70 l 1
 70 70 l 1
 70 80 l 1
 80 80 l 1
 80 90 l 1
 110 90 l 1
 110 70 l 1
 100 70 l 1
 100 60 l 1
 90 60 l 1
 90 50 l 1
 80 50 l 1
 80 40 l 1
 90 40 l 1
 90 30 l 1
 100 30 l 1
 100 20 l 1
 110 20 l 1
 110 0 l 1
 80 0 l 1
 80 10 l 1
 70 10 l 1
 70 20 l 1
 60 20 l 1
 60 30 l 1
 50 30 l 1
 50 0 l 1
 20 0 l 1
EndSplineSet
EndChar

StartChar: mbold
Encoding: 119846 119846 205
Width: 110
GlyphClass: 1
Flags: W
LayerCount: 2
Fore
SplineSet
100 80 m 1
 100 0 l 1
 70 0 l 1
 70 70 l 1
 60 70 l 1
 60 0 l 1
 40 0 l 1
 40 70 l 1
 30 70 l 1
 30 0 l 1
 0 0 l 1
 0 90 l 1
 20 90 l 1
 20 80 l 1
 30 80 l 1
 30 90 l 1
 50 90 l 1
 50 80 l 1
 60 80 l 1
 60 90 l 1
 90 90 l 1
 90 80 l 1
 100 80 l 1
EndSplineSet
EndChar

StartChar: nbold
Encoding: 119847 119847 206
Width: 110
GlyphClass: 1
Flags: W
LayerCount: 2
Fore
SplineSet
100 0 m 1
 70 0 l 1
 70 70 l 1
 60 70 l 1
 60 60 l 1
 50 60 l 1
 50 0 l 1
 20 0 l 1
 20 90 l 1
 40 90 l 1
 40 80 l 1
 50 80 l 1
 50 90 l 1
 90 90 l 1
 90 80 l 1
 100 80 l 1
 100 0 l 1
EndSplineSet
EndChar

StartChar: pbold
Encoding: 119849 119849 207
Width: 110
GlyphClass: 1
Flags: W
LayerCount: 2
Fore
SplineSet
20 -10 m 1
 20 90 l 1
 100 90 l 1
 100 80 l 1
 110 80 l 1
 110 30 l 1
 100 30 l 1
 100 20 l 1
 50 20 l 1
 50 -10 l 1
 20 -10 l 1
50 70 m 1
 50 40 l 1
 80 40 l 1
 80 70 l 1
 50 70 l 1
EndSplineSet
EndChar

StartChar: Fitalic
Encoding: 119865 119865 208
Width: 110
GlyphClass: 1
Flags: W
LayerCount: 2
Fore
SplineSet
50 50 m 1
 50 30 l 1
 40 30 l 1
 40 0 l 1
 20 0 l 1
 20 40 l 1
 30 40 l 1
 30 90 l 1
 40 90 l 1
 40 120 l 1
 110 120 l 1
 110 100 l 1
 60 100 l 1
 60 80 l 1
 50 80 l 1
 50 70 l 1
 100 70 l 1
 100 50 l 1
 50 50 l 1
EndSplineSet
EndChar

StartChar: titalic
Encoding: 119905 119905 209
Width: 110
GlyphClass: 1
Flags: W
LayerCount: 2
Fore
SplineSet
40 50 m 1
 40 70 l 1
 20 70 l 1
 20 90 l 1
 50 90 l 1
 50 110 l 1
 70 110 l 1
 70 90 l 1
 100 90 l 1
 100 70 l 1
 60 70 l 1
 60 40 l 1
 50 40 l 1
 50 20 l 1
 70 20 l 1
 70 30 l 1
 90 30 l 1
 90 10 l 1
 80 10 l 1
 80 0 l 1
 40 0 l 1
 40 10 l 1
 30 10 l 1
 30 50 l 1
 40 50 l 1
EndSplineSet
EndChar

StartChar: ebolditalic
Encoding: 119942 119942 210
Width: 110
GlyphClass: 1
Flags: W
LayerCount: 2
Fore
SplineSet
0 50 m 1
 10 50 l 1
 10 70 l 1
 20 70 l 1
 20 80 l 1
 40 80 l 1
 40 90 l 1
 90 90 l 1
 90 80 l 1
 100 80 l 1
 100 60 l 1
 90 60 l 1
 90 50 l 1
 80 50 l 1
 80 40 l 1
 60 40 l 1
 60 30 l 1
 30 30 l 1
 30 20 l 1
 60 20 l 1
 60 30 l 1
 90 30 l 1
 90 10 l 1
 80 10 l 1
 80 0 l 1
 20 0 l 1
 20 10 l 1
 10 10 l 1
 10 20 l 1
 0 20 l 1
 0 50 l 1
40 40 m 1
 40 50 l 1
 60 50 l 1
 60 60 l 1
 70 60 l 1
 70 70 l 1
 50 70 l 1
 50 60 l 1
 40 60 l 1
 40 50 l 1
 30 50 l 1
 30 40 l 1
 40 40 l 1
EndSplineSet
EndChar

StartChar: ibolditalic
Encoding: 119946 119946 211
Width: 110
GlyphClass: 1
Flags: W
LayerCount: 2
Fore
SplineSet
70 120 m 1
 100 120 l 1
 100 100 l 1
 70 100 l 1
 70 120 l 1
40 10 m 1
 40 40 l 1
 50 40 l 1
 50 60 l 1
 60 60 l 1
 60 70 l 1
 50 70 l 1
 50 90 l 1
 90 90 l 1
 90 50 l 1
 80 50 l 1
 80 30 l 1
 70 30 l 1
 70 20 l 1
 90 20 l 1
 90 30 l 1
 110 30 l 1
 110 10 l 1
 100 10 l 1
 100 0 l 1
 50 0 l 1
 50 10 l 1
 40 10 l 1
EndSplineSet
EndChar

StartChar: xbolditalic
Encoding: 119961 119961 212
Width: 110
GlyphClass: 1
Flags: W
LayerCount: 2
Fore
SplineSet
20 0 m 1
 0 0 l 1
 0 20 l 1
 10 20 l 1
 10 30 l 1
 20 30 l 1
 20 40 l 1
 30 40 l 1
 30 50 l 1
 40 50 l 1
 40 60 l 1
 30 60 l 1
 30 70 l 1
 20 70 l 1
 20 60 l 1
 0 60 l 1
 0 80 l 1
 10 80 l 1
 10 90 l 1
 50 90 l 1
 50 80 l 1
 60 80 l 1
 60 70 l 1
 70 70 l 1
 70 80 l 1
 80 80 l 1
 80 90 l 1
 100 90 l 1
 100 70 l 1
 90 70 l 1
 90 60 l 1
 80 60 l 1
 80 50 l 1
 70 50 l 1
 70 40 l 1
 60 40 l 1
 60 30 l 1
 70 30 l 1
 70 20 l 1
 80 20 l 1
 80 30 l 1
 100 30 l 1
 100 10 l 1
 90 10 l 1
 90 0 l 1
 50 0 l 1
 50 10 l 1
 40 10 l 1
 40 20 l 1
 30 20 l 1
 30 10 l 1
 20 10 l 1
 20 0 l 1
EndSplineSet
EndChar

StartChar: ybolditalic
Encoding: 119962 119962 213
Width: 110
GlyphClass: 1
Flags: W
LayerCount: 2
Fore
SplineSet
0 0 m 1
 0 20 l 1
 20 20 l 1
 20 10 l 1
 40 10 l 1
 40 20 l 1
 50 20 l 1
 50 30 l 1
 40 30 l 1
 40 40 l 1
 30 40 l 1
 30 70 l 1
 10 70 l 1
 10 90 l 1
 40 90 l 1
 40 80 l 1
 50 80 l 1
 50 50 l 1
 70 50 l 1
 70 70 l 1
 80 70 l 1
 80 90 l 1
 100 90 l 1
 100 60 l 1
 90 60 l 1
 90 40 l 1
 80 40 l 1
 80 20 l 1
 70 20 l 1
 70 10 l 1
 60 10 l 1
 60 0 l 1
 50 0 l 1
 50 -10 l 1
 10 -10 l 1
 10 0 l 1
 0 0 l 1
EndSplineSet
EndChar

StartChar: zbolditalic
Encoding: 119963 119963 214
Width: 110
GlyphClass: 1
Flags: W
LayerCount: 2
Fore
SplineSet
80 0 m 1
 0 0 l 1
 0 20 l 1
 10 20 l 1
 10 30 l 1
 20 30 l 1
 20 40 l 1
 30 40 l 1
 30 50 l 1
 40 50 l 1
 40 60 l 1
 50 60 l 1
 50 70 l 1
 10 70 l 1
 10 80 l 1
 20 80 l 1
 20 90 l 1
 100 90 l 1
 100 80 l 1
 90 80 l 1
 90 70 l 1
 80 70 l 1
 80 60 l 1
 70 60 l 1
 70 50 l 1
 60 50 l 1
 60 40 l 1
 50 40 l 1
 50 30 l 1
 40 30 l 1
 40 20 l 1
 90 20 l 1
 90 10 l 1
 80 10 l 1
 80 0 l 1
EndSplineSet
EndChar

StartChar: alpha
Encoding: 945 945 215
Width: 110
GlyphClass: 1
Flags: HW
LayerCount: 2
Fore
SplineSet
70 20 m 25
 70 70 l 25
 40 70 l 1
 40 20 l 1
 70 20 l 25
70 10 m 1
 70 0 l 1
 30 0 l 1
 30 10 l 1
 20 10 l 1
 20 80 l 1
 30 80 l 1
 30 90 l 1
 70 90 l 5
 70 80 l 5
 80 80 l 5
 80 90 l 5
 100 90 l 1
 100 70 l 1
 90 70 l 1
 90 20 l 1
 100 20 l 1
 100 0 l 1
 80 0 l 1
 80 10 l 1
 70 10 l 1
EndSplineSet
EndChar

StartChar: gammaitalic
Encoding: 120574 120574 216
Width: 110
GlyphClass: 1
Flags: W
LayerCount: 2
Fore
SplineSet
20 60 m 1
 20 70 l 1
 0 70 l 1
 0 90 l 1
 30 90 l 1
 30 80 l 1
 40 80 l 1
 40 70 l 1
 50 70 l 1
 50 80 l 1
 70 80 l 1
 70 90 l 1
 100 90 l 1
 100 70 l 1
 80 70 l 1
 80 60 l 1
 60 60 l 1
 60 50 l 1
 50 50 l 1
 50 40 l 1
 40 40 l 1
 40 20 l 1
 30 20 l 1
 30 -10 l 1
 10 -10 l 1
 10 30 l 1
 20 30 l 1
 20 50 l 1
 30 50 l 1
 30 60 l 1
 20 60 l 1
EndSplineSet
EndChar

StartChar: epsilonitalic
Encoding: 120576 120576 217
Width: 110
GlyphClass: 1
Flags: W
LayerCount: 2
Fore
SplineSet
20 40 m 1
 30 40 l 1
 30 50 l 1
 40 50 l 1
 40 60 l 1
 30 60 l 1
 30 80 l 1
 40 80 l 1
 40 90 l 1
 100 90 l 1
 100 70 l 1
 50 70 l 1
 50 60 l 1
 80 60 l 1
 80 40 l 1
 50 40 l 1
 50 30 l 1
 40 30 l 1
 40 20 l 1
 90 20 l 1
 90 0 l 1
 30 0 l 1
 30 10 l 1
 20 10 l 1
 20 40 l 1
EndSplineSet
EndChar

StartChar: thetaitalic
Encoding: 120579 120579 218
Width: 110
GlyphClass: 1
Flags: W
LayerCount: 2
Fore
SplineSet
30 70 m 1
 30 100 l 1
 40 100 l 1
 40 110 l 1
 50 110 l 1
 50 120 l 1
 90 120 l 1
 90 110 l 1
 100 110 l 1
 100 100 l 1
 110 100 l 1
 110 50 l 1
 100 50 l 1
 100 20 l 1
 90 20 l 1
 90 10 l 1
 80 10 l 1
 80 0 l 1
 40 0 l 1
 40 10 l 1
 30 10 l 1
 30 20 l 1
 20 20 l 1
 20 70 l 1
 30 70 l 1
50 70 m 1
 90 70 l 1
 90 90 l 1
 80 90 l 1
 80 100 l 1
 60 100 l 1
 60 90 l 1
 50 90 l 1
 50 70 l 1
50 30 m 1
 50 20 l 1
 70 20 l 1
 70 30 l 1
 80 30 l 1
 80 50 l 1
 40 50 l 1
 40 30 l 1
 50 30 l 1
EndSplineSet
EndChar

StartChar: lamdaitalic
Encoding: 120582 120582 219
Width: 110
GlyphClass: 1
Flags: W
LayerCount: 2
Fore
SplineSet
10 20 m 1
 10 40 l 1
 20 40 l 1
 20 60 l 1
 30 60 l 1
 30 80 l 1
 40 80 l 1
 40 100 l 1
 20 100 l 1
 20 120 l 1
 50 120 l 1
 50 110 l 1
 60 110 l 1
 60 60 l 1
 70 60 l 1
 70 20 l 1
 100 20 l 1
 100 0 l 1
 60 0 l 1
 60 10 l 1
 50 10 l 1
 50 50 l 1
 40 50 l 1
 40 30 l 1
 30 30 l 1
 30 10 l 1
 20 10 l 1
 20 0 l 1
 0 0 l 1
 0 20 l 1
 10 20 l 1
EndSplineSet
EndChar

StartChar: muitalic
Encoding: 120583 120583 220
Width: 110
GlyphClass: 1
Flags: W
LayerCount: 2
Fore
SplineSet
20 -10 m 1
 20 30 l 1
 30 30 l 1
 30 60 l 1
 40 60 l 1
 40 90 l 1
 60 90 l 1
 60 50 l 1
 50 50 l 1
 50 30 l 1
 70 30 l 1
 70 40 l 1
 80 40 l 1
 80 60 l 1
 90 60 l 1
 90 90 l 1
 110 90 l 1
 110 50 l 1
 100 50 l 1
 100 10 l 1
 80 10 l 1
 80 20 l 1
 70 20 l 1
 70 10 l 1
 50 10 l 1
 50 20 l 1
 40 20 l 1
 40 -10 l 1
 20 -10 l 1
EndSplineSet
EndChar

StartChar: piitalic
Encoding: 120587 120587 221
Width: 110
GlyphClass: 1
Flags: W
LayerCount: 2
Fore
SplineSet
10 20 m 1
 10 50 l 1
 20 50 l 1
 20 70 l 1
 0 70 l 1
 0 80 l 1
 10 80 l 1
 10 90 l 1
 100 90 l 1
 100 70 l 1
 80 70 l 1
 80 40 l 1
 70 40 l 1
 70 20 l 1
 90 20 l 1
 90 0 l 1
 60 0 l 1
 60 10 l 1
 50 10 l 1
 50 50 l 1
 60 50 l 1
 60 70 l 1
 40 70 l 1
 40 40 l 1
 30 40 l 1
 30 10 l 1
 20 10 l 1
 20 0 l 1
 0 0 l 1
 0 20 l 1
 10 20 l 1
EndSplineSet
EndChar

StartChar: sigmaitalic
Encoding: 120590 120590 222
Width: 110
GlyphClass: 1
Flags: W
LayerCount: 2
Fore
SplineSet
0 20 m 1
 0 50 l 1
 10 50 l 1
 10 70 l 1
 20 70 l 1
 20 80 l 1
 30 80 l 1
 30 90 l 1
 100 90 l 1
 100 70 l 1
 80 70 l 1
 80 60 l 1
 90 60 l 1
 90 40 l 1
 80 40 l 1
 80 20 l 1
 70 20 l 1
 70 10 l 1
 60 10 l 1
 60 0 l 1
 20 0 l 1
 20 10 l 1
 10 10 l 1
 10 20 l 1
 0 20 l 1
20 30 m 1
 30 30 l 1
 30 20 l 1
 50 20 l 1
 50 30 l 1
 60 30 l 1
 60 50 l 1
 70 50 l 1
 70 60 l 1
 60 60 l 1
 60 70 l 1
 40 70 l 1
 40 60 l 1
 30 60 l 1
 30 40 l 1
 20 40 l 1
 20 30 l 1
EndSplineSet
EndChar

StartChar: phisymbolitalic
Encoding: 120601 120601 223
Width: 110
GlyphClass: 1
Flags: W
LayerCount: 2
Fore
SplineSet
30 20 m 1
 20 20 l 1
 20 70 l 1
 30 70 l 1
 30 80 l 1
 40 80 l 1
 40 90 l 1
 70 90 l 1
 70 120 l 1
 90 120 l 1
 90 90 l 1
 100 90 l 1
 100 80 l 1
 110 80 l 1
 110 30 l 1
 100 30 l 1
 100 20 l 1
 90 20 l 1
 90 10 l 1
 60 10 l 1
 60 -10 l 1
 40 -10 l 1
 40 10 l 1
 30 10 l 1
 30 20 l 1
80 50 m 1
 70 50 l 1
 70 30 l 1
 80 30 l 1
 80 40 l 1
 90 40 l 1
 90 70 l 1
 80 70 l 1
 80 50 l 1
40 30 m 1
 50 30 l 1
 50 50 l 1
 60 50 l 1
 60 70 l 1
 50 70 l 1
 50 60 l 1
 40 60 l 1
 40 30 l 1
EndSplineSet
EndChar

StartChar: mubolditalic
Encoding: 120641 120641 224
Width: 110
GlyphClass: 1
Flags: W
LayerCount: 2
Fore
SplineSet
50 -10 m 1
 20 -10 l 1
 20 30 l 1
 30 30 l 1
 30 60 l 1
 40 60 l 1
 40 90 l 1
 70 90 l 1
 70 60 l 1
 80 60 l 1
 80 90 l 1
 110 90 l 1
 110 60 l 1
 100 60 l 1
 100 40 l 1
 110 40 l 1
 110 20 l 1
 80 20 l 1
 80 30 l 1
 70 30 l 1
 70 20 l 1
 50 20 l 1
 50 -10 l 1
70 60 m 1
 60 60 l 1
 60 40 l 1
 70 40 l 1
 70 60 l 1
EndSplineSet
EndChar

StartChar: minus.inferior
Encoding: 8331 8331 225
Width: 110
GlyphClass: 1
Flags: W
LayerCount: 2
Fore
SplineSet
40 20 m 1
 40 30 l 1
 90 30 l 1
 90 20 l 1
 40 20 l 1
EndSplineSet
EndChar

StartChar: parenleft.inferior
Encoding: 8333 8333 226
Width: 110
GlyphClass: 1
Flags: W
LayerCount: 2
Fore
SplineSet
100 -10 m 1
 70 -10 l 1
 70 0 l 1
 60 0 l 1
 60 50 l 1
 70 50 l 1
 70 60 l 1
 100 60 l 1
 100 40 l 1
 80 40 l 1
 80 10 l 1
 100 10 l 1
 100 -10 l 1
EndSplineSet
EndChar

StartChar: parenright.inferior
Encoding: 8334 8334 227
Width: 110
GlyphClass: 1
Flags: W
LayerCount: 2
Fore
SplineSet
80 -10 m 1
 80 10 l 1
 100 10 l 1
 100 40 l 1
 80 40 l 1
 80 60 l 1
 110 60 l 1
 110 50 l 1
 120 50 l 1
 120 0 l 1
 110 0 l 1
 110 -10 l 1
 80 -10 l 1
EndSplineSet
EndChar

StartChar: litre
Encoding: 8467 8467 228
Width: 110
GlyphClass: 1
Flags: W
LayerCount: 2
Fore
SplineSet
30 0 m 1
 0 0 l 1
 0 20 l 1
 20 20 l 1
 20 30 l 1
 30 30 l 1
 30 40 l 1
 20 40 l 1
 20 80 l 1
 30 80 l 1
 30 100 l 1
 40 100 l 1
 40 110 l 1
 50 110 l 1
 50 120 l 1
 80 120 l 1
 80 110 l 1
 90 110 l 1
 90 60 l 1
 80 60 l 1
 80 40 l 1
 70 40 l 1
 70 30 l 1
 60 30 l 1
 60 20 l 1
 70 20 l 1
 70 10 l 1
 80 10 l 1
 80 20 l 1
 100 20 l 1
 100 0 l 1
 90 0 l 1
 90 -10 l 1
 60 -10 l 1
 60 0 l 1
 50 0 l 1
 50 10 l 1
 30 10 l 1
 30 0 l 1
40 70 m 1
 40 40 l 1
 50 40 l 1
 50 50 l 1
 60 50 l 1
 60 70 l 1
 70 70 l 1
 70 100 l 1
 60 100 l 1
 60 90 l 1
 50 90 l 1
 50 70 l 1
 40 70 l 1
EndSplineSet
EndChar

StartChar: angstrom
Encoding: 8491 8491 229
Width: 110
GlyphClass: 1
Flags: W
LayerCount: 2
Fore
SplineSet
20 0 m 1
 20 30 l 1
 30 30 l 1
 30 60 l 1
 40 60 l 1
 40 80 l 1
 50 80 l 1
 50 90 l 1
 40 90 l 1
 40 110 l 1
 50 110 l 1
 50 120 l 1
 80 120 l 1
 80 110 l 1
 90 110 l 1
 90 90 l 1
 80 90 l 1
 80 80 l 1
 90 80 l 1
 90 60 l 1
 100 60 l 1
 100 30 l 1
 110 30 l 1
 110 0 l 1
 90 0 l 1
 90 20 l 1
 40 20 l 1
 40 0 l 1
 20 0 l 1
70 90 m 1
 70 100 l 1
 60 100 l 1
 60 90 l 1
 70 90 l 1
80 40 m 1
 80 50 l 1
 70 50 l 1
 70 70 l 1
 60 70 l 1
 60 50 l 1
 50 50 l 1
 50 40 l 1
 80 40 l 1
EndSplineSet
EndChar

StartChar: arrowright
Encoding: 8594 8594 230
Width: 110
GlyphClass: 1
Flags: W
LayerCount: 2
Fore
SplineSet
0 70 m 1
 60 70 l 1
 60 100 l 1
 70 100 l 1
 70 90 l 1
 80 90 l 1
 80 80 l 1
 90 80 l 1
 90 70 l 1
 100 70 l 1
 100 50 l 1
 90 50 l 1
 90 40 l 1
 80 40 l 1
 80 30 l 1
 70 30 l 1
 70 20 l 1
 60 20 l 1
 60 50 l 1
 0 50 l 1
 0 70 l 1
EndSplineSet
EndChar

StartChar: arrowanticlockwiseopencircle
Encoding: 8634 8634 231
Width: 110
GlyphClass: 1
Flags: W
LayerCount: 2
Fore
SplineSet
30 20 m 1
 20 20 l 1
 20 40 l 1
 40 40 l 1
 40 30 l 1
 70 30 l 1
 70 40 l 1
 80 40 l 1
 80 70 l 1
 70 70 l 1
 70 80 l 1
 40 80 l 1
 40 70 l 1
 30 70 l 1
 30 60 l 1
 50 60 l 1
 50 50 l 1
 0 50 l 1
 0 100 l 1
 10 100 l 1
 10 80 l 1
 20 80 l 1
 20 90 l 1
 30 90 l 1
 30 100 l 1
 80 100 l 1
 80 90 l 1
 90 90 l 1
 90 80 l 1
 100 80 l 1
 100 30 l 1
 90 30 l 1
 90 20 l 1
 80 20 l 1
 80 10 l 1
 30 10 l 1
 30 20 l 1
EndSplineSet
EndChar

StartChar: arrowdblright
Encoding: 8658 8658 232
Width: 110
GlyphClass: 1
Flags: W
LayerCount: 2
Fore
SplineSet
20 40 m 1
 20 50 l 1
 100 50 l 1
 100 70 l 1
 20 70 l 1
 20 80 l 1
 80 80 l 1
 80 90 l 1
 70 90 l 1
 70 100 l 1
 80 100 l 1
 80 90 l 1
 90 90 l 1
 90 80 l 1
 100 80 l 1
 100 70 l 1
 110 70 l 1
 110 50 l 1
 100 50 l 1
 100 40 l 1
 90 40 l 1
 90 30 l 1
 80 30 l 1
 80 20 l 1
 70 20 l 1
 70 30 l 1
 80 30 l 1
 80 40 l 1
 20 40 l 1
EndSplineSet
EndChar

StartChar: whitearrowdown
Encoding: 8681 8681 233
Width: 110
GlyphClass: 1
Flags: W
LayerCount: 2
Fore
SplineSet
20 50 m 1
 20 70 l 1
 40 70 l 1
 40 110 l 1
 90 110 l 1
 90 70 l 1
 110 70 l 1
 110 50 l 1
 100 50 l 1
 100 40 l 1
 90 40 l 1
 90 30 l 1
 80 30 l 1
 80 20 l 1
 70 20 l 1
 70 30 l 1
 80 30 l 1
 80 40 l 1
 90 40 l 1
 90 50 l 1
 100 50 l 1
 100 60 l 1
 80 60 l 1
 80 100 l 1
 50 100 l 1
 50 60 l 1
 30 60 l 1
 30 50 l 1
 40 50 l 1
 40 40 l 1
 50 40 l 1
 50 30 l 1
 60 30 l 1
 60 20 l 1
 70 20 l 1
 70 10 l 1
 60 10 l 1
 60 20 l 1
 50 20 l 1
 50 30 l 1
 40 30 l 1
 40 40 l 1
 30 40 l 1
 30 50 l 1
 20 50 l 1
EndSplineSet
EndChar

StartChar: product
Encoding: 8719 8719 234
Width: 110
GlyphClass: 1
Flags: W
LayerCount: 2
Fore
SplineSet
0 0 m 1
 0 20 l 1
 10 20 l 1
 10 100 l 1
 0 100 l 1
 0 120 l 1
 100 120 l 1
 100 100 l 1
 90 100 l 1
 90 20 l 1
 100 20 l 1
 100 0 l 1
 60 0 l 1
 60 20 l 1
 70 20 l 1
 70 100 l 1
 30 100 l 1
 30 20 l 1
 40 20 l 1
 40 0 l 1
 0 0 l 1
EndSplineSet
EndChar

StartChar: summation
Encoding: 8721 8721 235
Width: 110
GlyphClass: 1
Flags: W
LayerCount: 2
Fore
SplineSet
0 -10 m 1
 0 10 l 1
 10 10 l 1
 10 20 l 1
 20 20 l 1
 20 30 l 1
 30 30 l 1
 30 40 l 1
 40 40 l 1
 40 50 l 1
 50 50 l 1
 50 60 l 1
 40 60 l 1
 40 70 l 1
 30 70 l 1
 30 80 l 1
 20 80 l 1
 20 90 l 1
 10 90 l 1
 10 100 l 1
 0 100 l 1
 0 120 l 1
 100 120 l 1
 100 90 l 1
 80 90 l 1
 80 100 l 1
 40 100 l 1
 40 90 l 1
 50 90 l 1
 50 80 l 1
 60 80 l 1
 60 70 l 1
 70 70 l 1
 70 60 l 1
 80 60 l 1
 80 50 l 1
 70 50 l 1
 70 40 l 1
 60 40 l 1
 60 30 l 1
 50 30 l 1
 50 20 l 1
 40 20 l 1
 40 10 l 1
 80 10 l 1
 80 20 l 1
 100 20 l 1
 100 -10 l 1
 0 -10 l 1
EndSplineSet
EndChar

StartChar: minus
Encoding: 8722 8722 236
Width: 110
GlyphClass: 1
Flags: W
LayerCount: 2
Fore
SplineSet
40 70 m 1
 100 70 l 1
 100 50 l 1
 40 50 l 1
 40 70 l 1
EndSplineSet
EndChar

StartChar: radical
Encoding: 8730 8730 237
Width: 110
GlyphClass: 1
Flags: W
LayerCount: 2
Fore
SplineSet
0 60 m 1
 0 80 l 1
 30 80 l 1
 30 50 l 1
 40 50 l 1
 40 60 l 1
 50 60 l 1
 50 90 l 1
 60 90 l 1
 60 120 l 1
 100 120 l 1
 100 100 l 1
 80 100 l 1
 80 80 l 1
 70 80 l 1
 70 50 l 1
 60 50 l 1
 60 20 l 1
 50 20 l 1
 50 0 l 1
 30 0 l 1
 30 20 l 1
 20 20 l 1
 20 40 l 1
 10 40 l 1
 10 60 l 1
 0 60 l 1
EndSplineSet
EndChar

StartChar: cuberoot-math
Encoding: 8731 8731 238
Width: 220
GlyphClass: 1
Flags: W
LayerCount: 2
Fore
SplineSet
40 100 m 1
 40 120 l 1
 90 120 l 1
 90 110 l 1
 100 110 l 1
 100 90 l 1
 90 90 l 1
 90 80 l 1
 100 80 l 1
 100 60 l 1
 90 60 l 1
 90 50 l 1
 40 50 l 1
 40 70 l 1
 80 70 l 1
 80 80 l 1
 50 80 l 1
 50 90 l 1
 80 90 l 1
 80 100 l 1
 40 100 l 1
130 60 m 1
 130 80 l 1
 160 80 l 1
 160 50 l 1
 170 50 l 1
 170 60 l 1
 180 60 l 1
 180 90 l 1
 190 90 l 1
 190 120 l 1
 230 120 l 1
 230 100 l 1
 210 100 l 1
 210 80 l 1
 200 80 l 1
 200 50 l 1
 190 50 l 1
 190 20 l 1
 180 20 l 1
 180 0 l 1
 160 0 l 1
 160 20 l 1
 150 20 l 1
 150 40 l 1
 140 40 l 1
 140 60 l 1
 130 60 l 1
EndSplineSet
EndChar

StartChar: angle
Encoding: 8736 8736 239
Width: 110
GlyphClass: 1
Flags: W
LayerCount: 2
Fore
SplineSet
0 0 m 1
 0 20 l 1
 10 20 l 1
 10 30 l 1
 20 30 l 1
 20 40 l 1
 30 40 l 1
 30 50 l 1
 40 50 l 1
 40 60 l 1
 50 60 l 1
 50 70 l 1
 60 70 l 1
 60 80 l 1
 70 80 l 1
 70 90 l 1
 80 90 l 1
 80 100 l 1
 90 100 l 1
 90 90 l 1
 100 90 l 1
 100 80 l 1
 90 80 l 1
 90 70 l 1
 80 70 l 1
 80 60 l 1
 70 60 l 1
 70 50 l 1
 60 50 l 1
 60 40 l 1
 50 40 l 1
 50 30 l 1
 40 30 l 1
 40 20 l 1
 100 20 l 1
 100 0 l 1
 0 0 l 1
EndSplineSet
EndChar

StartChar: integral
Encoding: 8747 8747 240
Width: 110
GlyphClass: 1
Flags: W
LayerCount: 2
Fore
SplineSet
20 0 m 1
 20 20 l 1
 40 20 l 1
 40 10 l 1
 50 10 l 1
 50 60 l 1
 60 60 l 1
 60 110 l 1
 70 110 l 1
 70 120 l 1
 100 120 l 1
 100 110 l 1
 110 110 l 1
 110 90 l 1
 90 90 l 1
 90 100 l 1
 80 100 l 1
 80 50 l 1
 70 50 l 1
 70 0 l 1
 60 0 l 1
 60 -10 l 1
 30 -10 l 1
 30 0 l 1
 20 0 l 1
EndSplineSet
EndChar

StartChar: notequal
Encoding: 8800 8800 241
Width: 110
GlyphClass: 1
Flags: W
LayerCount: 2
Fore
SplineSet
0 30 m 1
 0 50 l 1
 40 50 l 1
 40 70 l 1
 0 70 l 1
 0 90 l 1
 50 90 l 1
 50 120 l 1
 70 120 l 1
 70 90 l 1
 100 90 l 1
 100 70 l 1
 60 70 l 1
 60 50 l 1
 100 50 l 1
 100 30 l 1
 50 30 l 1
 50 0 l 1
 30 0 l 1
 30 30 l 1
 0 30 l 1
EndSplineSet
EndChar

StartChar: lessequal
Encoding: 8804 8804 242
Width: 110
GlyphClass: 1
Flags: W
LayerCount: 2
Fore
SplineSet
110 30 m 1
 82 30 l 1
 82 40 l 1
 60 40 l 1
 60 50 l 1
 40 50 l 1
 40 60 l 1
 20 60 l 1
 20 90 l 1
 40 90 l 1
 40 100 l 1
 60 100 l 1
 60 110 l 1
 80 110 l 1
 80 120 l 1
 110 120 l 1
 110 100 l 1
 90 100 l 1
 90 90 l 1
 70 90 l 1
 70 80 l 1
 50 80 l 1
 50 70 l 1
 70 70 l 1
 70 60 l 1
 90 60 l 1
 90 50 l 1
 110 50 l 1
 110 30 l 1
20 0 m 1
 20 20 l 1
 110 20 l 1
 110 0 l 1
 20 0 l 1
EndSplineSet
EndChar

StartChar: greaterequal
Encoding: 8805 8805 243
Width: 110
GlyphClass: 1
Flags: W
LayerCount: 2
Fore
SplineSet
20 30 m 1
 20 50 l 1
 40 50 l 1
 40 60 l 1
 60 60 l 1
 60 70 l 1
 80 70 l 1
 80 80 l 1
 60 80 l 1
 60 90 l 1
 40 90 l 1
 40 100 l 1
 20 100 l 1
 20 120 l 1
 50 120 l 1
 50 110 l 1
 70 110 l 1
 70 100 l 1
 90 100 l 1
 90 90 l 1
 110 90 l 1
 110 60 l 1
 90 60 l 1
 90 50 l 1
 70 50 l 1
 70 40 l 1
 48 40 l 1
 48 30 l 1
 20 30 l 1
110 0 m 1
 20 0 l 1
 20 20 l 1
 110 20 l 1
 110 0 l 1
EndSplineSet
EndChar

StartChar: dotmath
Encoding: 8901 8901 244
Width: 110
GlyphClass: 1
Flags: W
LayerCount: 2
Fore
SplineSet
70 70 m 1
 70 80 l 1
 90 80 l 1
 90 70 l 1
 100 70 l 1
 100 50 l 1
 90 50 l 1
 90 40 l 1
 70 40 l 1
 70 50 l 1
 60 50 l 1
 60 70 l 1
 70 70 l 1
EndSplineSet
EndChar

StartChar: shade
Encoding: 9618 9618 245
Width: 110
GlyphClass: 1
Flags: W
LayerCount: 2
Fore
SplineSet
10 20 m 1
 10 30 l 1
 0 30 l 1
 0 40 l 1
 10 40 l 1
 10 50 l 1
 0 50 l 1
 0 60 l 1
 10 60 l 1
 10 70 l 1
 0 70 l 1
 0 80 l 1
 10 80 l 1
 10 90 l 1
 0 90 l 1
 0 100 l 1
 10 100 l 1
 10 110 l 1
 0 110 l 1
 0 120 l 1
 10 120 l 1
 10 110 l 1
 20 110 l 1
 20 120 l 1
 30 120 l 1
 30 110 l 1
 40 110 l 1
 40 120 l 1
 50 120 l 1
 50 110 l 1
 60 110 l 1
 60 120 l 1
 70 120 l 1
 70 110 l 1
 80 110 l 1
 80 120 l 1
 90 120 l 1
 90 110 l 1
 100 110 l 1
 100 100 l 1
 90 100 l 1
 90 90 l 1
 100 90 l 1
 100 80 l 1
 90 80 l 1
 90 70 l 1
 100 70 l 1
 100 60 l 1
 90 60 l 1
 90 50 l 1
 100 50 l 1
 100 40 l 1
 90 40 l 1
 90 30 l 1
 100 30 l 1
 100 20 l 1
 90 20 l 1
 90 10 l 1
 100 10 l 1
 100 0 l 1
 90 0 l 1
 90 10 l 1
 80 10 l 1
 80 20 l 1
 90 20 l 1
 90 30 l 1
 80 30 l 1
 80 40 l 1
 90 40 l 1
 90 50 l 1
 80 50 l 1
 80 60 l 1
 90 60 l 1
 90 70 l 1
 80 70 l 1
 80 80 l 1
 90 80 l 1
 90 90 l 1
 80 90 l 1
 80 100 l 1
 70 100 l 1
 70 110 l 1
 60 110 l 1
 60 100 l 1
 50 100 l 1
 50 110 l 1
 40 110 l 1
 40 100 l 1
 30 100 l 1
 30 110 l 1
 20 110 l 1
 20 100 l 1
 10 100 l 1
 10 90 l 1
 20 90 l 1
 20 80 l 1
 10 80 l 1
 10 70 l 1
 20 70 l 1
 20 60 l 1
 10 60 l 1
 10 50 l 1
 20 50 l 1
 20 40 l 1
 10 40 l 1
 10 30 l 1
 20 30 l 1
 20 20 l 1
 10 20 l 1
 10 10 l 1
 20 10 l 1
 20 0 l 1
 30 0 l 1
 30 10 l 1
 40 10 l 1
 40 0 l 1
 50 0 l 1
 50 10 l 1
 60 10 l 1
 60 0 l 1
 70 0 l 1
 70 10 l 1
 80 10 l 1
 80 0 l 1
 90 0 l 1
 90 -10 l 1
 80 -10 l 1
 80 0 l 1
 70 0 l 1
 70 -10 l 1
 60 -10 l 1
 60 0 l 1
 50 0 l 1
 50 -10 l 1
 40 -10 l 1
 40 0 l 1
 30 0 l 1
 30 -10 l 1
 20 -10 l 1
 20 0 l 1
 10 0 l 1
 10 -10 l 1
 0 -10 l 1
 0 0 l 1
 10 0 l 1
 10 10 l 1
 0 10 l 1
 0 20 l 1
 10 20 l 1
90 110 m 1
 80 110 l 1
 80 100 l 1
 90 100 l 1
 90 110 l 1
20 20 m 1
 30 20 l 1
 30 30 l 1
 20 30 l 1
 20 40 l 1
 30 40 l 1
 30 50 l 1
 20 50 l 1
 20 60 l 1
 30 60 l 1
 30 70 l 1
 20 70 l 1
 20 80 l 1
 30 80 l 1
 30 90 l 1
 20 90 l 1
 20 100 l 1
 30 100 l 1
 30 90 l 1
 40 90 l 1
 40 100 l 1
 50 100 l 1
 50 90 l 1
 60 90 l 1
 60 100 l 1
 70 100 l 1
 70 90 l 1
 80 90 l 1
 80 80 l 1
 70 80 l 1
 70 70 l 1
 80 70 l 1
 80 60 l 1
 70 60 l 1
 70 50 l 1
 80 50 l 1
 80 40 l 1
 70 40 l 1
 70 30 l 1
 80 30 l 1
 80 20 l 1
 70 20 l 1
 70 30 l 1
 60 30 l 1
 60 40 l 1
 70 40 l 1
 70 50 l 1
 60 50 l 1
 60 60 l 1
 70 60 l 1
 70 70 l 1
 60 70 l 1
 60 80 l 1
 50 80 l 1
 50 90 l 1
 40 90 l 1
 40 80 l 1
 30 80 l 1
 30 70 l 1
 40 70 l 1
 40 60 l 1
 30 60 l 1
 30 50 l 1
 40 50 l 1
 40 40 l 1
 30 40 l 1
 30 30 l 1
 40 30 l 1
 40 20 l 1
 50 20 l 1
 50 30 l 1
 60 30 l 1
 60 20 l 1
 70 20 l 1
 70 10 l 1
 60 10 l 1
 60 20 l 1
 50 20 l 1
 50 10 l 1
 40 10 l 1
 40 20 l 1
 30 20 l 1
 30 10 l 1
 20 10 l 1
 20 20 l 1
70 90 m 1
 60 90 l 1
 60 80 l 1
 70 80 l 1
 70 90 l 1
50 70 m 1
 40 70 l 1
 40 80 l 1
 50 80 l 1
 50 70 l 1
 60 70 l 1
 60 60 l 1
 50 60 l 1
 50 50 l 1
 60 50 l 1
 60 40 l 1
 50 40 l 1
 50 30 l 1
 40 30 l 1
 40 40 l 1
 50 40 l 1
 50 50 l 1
 40 50 l 1
 40 60 l 1
 50 60 l 1
 50 70 l 1
EndSplineSet
EndChar

StartChar: triagup
Encoding: 9650 9650 246
Width: 110
GlyphClass: 1
Flags: W
LayerCount: 2
Fore
SplineSet
30 40 m 1
 30 60 l 1
 40 60 l 1
 40 80 l 1
 50 80 l 1
 50 100 l 1
 70 100 l 1
 70 80 l 1
 80 80 l 1
 80 60 l 1
 90 60 l 1
 90 40 l 1
 100 40 l 1
 100 20 l 1
 20 20 l 1
 20 40 l 1
 30 40 l 1
EndSplineSet
EndChar

StartChar: trianglerightblack
Encoding: 9654 9654 247
Width: 110
GlyphClass: 1
Flags: W
LayerCount: 2
Fore
SplineSet
40 30 m 1
 40 20 l 1
 20 20 l 1
 20 90 l 1
 40 90 l 1
 40 80 l 1
 60 80 l 1
 60 70 l 1
 80 70 l 1
 80 60 l 1
 100 60 l 1
 100 50 l 1
 80 50 l 1
 80 40 l 1
 60 40 l 1
 60 30 l 1
 40 30 l 1
EndSplineSet
Substitution2: "Single Substitution lookup 9 subtable" to
Substitution2: "'ss01' Style Set 1 lookup 5 subtable" triangle.right-above
Substitution2: "'aalt' Access All Alternates lookup 0 subtable" triangle.right-above
EndChar

StartChar: trianglerightwhite
Encoding: 9655 9655 248
Width: 110
GlyphClass: 1
Flags: W
LayerCount: 2
Fore
SplineSet
60 60 m 1
 60 70 l 1
 40 70 l 1
 40 80 l 1
 30 80 l 1
 30 30 l 1
 40 30 l 1
 40 20 l 1
 20 20 l 1
 20 90 l 1
 40 90 l 1
 40 80 l 1
 60 80 l 1
 60 70 l 1
 80 70 l 1
 80 60 l 1
 100 60 l 1
 100 50 l 1
 80 50 l 1
 80 40 l 1
 60 40 l 1
 60 30 l 1
 40 30 l 1
 40 40 l 1
 60 40 l 1
 60 50 l 1
 80 50 l 1
 80 60 l 1
 60 60 l 1
EndSplineSet
Substitution2: "'ss01' Style Set 1 lookup 5 subtable" uniE032
Substitution2: "'aalt' Access All Alternates lookup 0 subtable" uniE032
EndChar

StartChar: trianglerightsmallblack
Encoding: 9656 9656 249
Width: 110
GlyphClass: 1
Flags: W
LayerCount: 2
Fore
SplineSet
60 20 m 1
 60 80 l 1
 80 80 l 1
 80 70 l 1
 100 70 l 1
 100 60 l 1
 120 60 l 1
 120 40 l 1
 100 40 l 1
 100 30 l 1
 80 30 l 1
 80 20 l 1
 60 20 l 1
EndSplineSet
EndChar

StartChar: triagdn
Encoding: 9660 9660 250
Width: 110
GlyphClass: 1
Flags: W
LayerCount: 2
Fore
SplineSet
30 80 m 1
 20 80 l 1
 20 100 l 1
 100 100 l 1
 100 80 l 1
 90 80 l 1
 90 60 l 1
 80 60 l 1
 80 40 l 1
 70 40 l 1
 70 20 l 1
 50 20 l 1
 50 40 l 1
 40 40 l 1
 40 60 l 1
 30 60 l 1
 30 80 l 1
EndSplineSet
EndChar

StartChar: triangleleftblack
Encoding: 9664 9664 251
Width: 110
GlyphClass: 1
Flags: W
LayerCount: 2
Fore
SplineSet
80 30 m 1
 60 30 l 1
 60 40 l 1
 40 40 l 1
 40 50 l 1
 20 50 l 1
 20 60 l 1
 40 60 l 1
 40 70 l 1
 60 70 l 1
 60 80 l 1
 80 80 l 1
 80 90 l 1
 100 90 l 1
 100 20 l 1
 80 20 l 1
 80 30 l 1
EndSplineSet
Substitution2: "'ss01' Style Set 1 lookup 5 subtable" triangle.left-below
Substitution2: "'aalt' Access All Alternates lookup 0 subtable" triangle.left-below
EndChar

StartChar: triangleleftwhite
Encoding: 9665 9665 252
Width: 110
GlyphClass: 1
Flags: W
LayerCount: 2
Fore
SplineSet
80 30 m 1
 60 30 l 1
 60 40 l 1
 40 40 l 1
 40 50 l 1
 20 50 l 1
 20 60 l 1
 40 60 l 1
 40 70 l 1
 60 70 l 1
 60 80 l 1
 80 80 l 1
 80 90 l 1
 100 90 l 1
 100 20 l 1
 80 20 l 1
 80 30 l 1
60 60 m 1
 40 60 l 1
 40 50 l 1
 60 50 l 1
 60 40 l 1
 80 40 l 1
 80 30 l 1
 90 30 l 1
 90 80 l 1
 80 80 l 1
 80 70 l 1
 60 70 l 1
 60 60 l 1
EndSplineSet
Substitution2: "'ss01' Style Set 1 lookup 5 subtable" uniE033
Substitution2: "'aalt' Access All Alternates lookup 0 subtable" uniE033
EndChar

StartChar: plancktwopi
Encoding: 8463 8463 253
Width: 110
GlyphClass: 1
Flags: W
LayerCount: 2
Fore
SplineSet
0 80 m 1
 0 100 l 1
 10 100 l 1
 10 120 l 1
 30 120 l 1
 30 110 l 1
 50 110 l 1
 50 120 l 1
 80 120 l 1
 80 100 l 1
 60 100 l 1
 60 90 l 1
 30 90 l 1
 30 70 l 1
 40 70 l 1
 40 80 l 1
 80 80 l 1
 80 70 l 1
 90 70 l 1
 90 0 l 1
 70 0 l 1
 70 60 l 1
 40 60 l 1
 40 50 l 1
 30 50 l 1
 30 0 l 1
 10 0 l 1
 10 80 l 1
 0 80 l 1
EndSplineSet
EndChar

StartChar: circle
Encoding: 9675 9675 254
Width: 110
GlyphClass: 1
Flags: W
LayerCount: 2
Fore
SplineSet
70 100 m 1
 70 90 l 1
 30 90 l 1
 30 100 l 1
 70 100 l 1
90 90 m 1
 90 70 l 1
 80 70 l 1
 80 80 l 1
 70 80 l 1
 70 90 l 1
 90 90 l 1
10 70 m 1
 10 90 l 1
 30 90 l 1
 30 80 l 1
 20 80 l 1
 20 70 l 1
 10 70 l 1
90 30 m 1
 90 70 l 1
 100 70 l 1
 100 30 l 1
 90 30 l 1
0 30 m 1
 0 70 l 1
 10 70 l 1
 10 30 l 1
 0 30 l 1
10 10 m 1
 10 30 l 1
 20 30 l 1
 20 20 l 1
 30 20 l 1
 30 10 l 1
 10 10 l 1
70 10 m 1
 70 20 l 1
 80 20 l 1
 80 30 l 1
 90 30 l 1
 90 10 l 1
 70 10 l 1
30 0 m 1
 30 10 l 1
 70 10 l 1
 70 0 l 1
 30 0 l 1
EndSplineSet
EndChar

StartChar: fisheye
Encoding: 9673 9673 255
Width: 110
GlyphClass: 1
Flags: W
LayerCount: 2
Fore
SplineSet
70 100 m 1
 70 90 l 1
 30 90 l 1
 30 100 l 1
 70 100 l 1
90 90 m 1
 90 70 l 1
 80 70 l 1
 80 80 l 1
 70 80 l 1
 70 90 l 1
 90 90 l 1
10 70 m 1
 10 90 l 1
 30 90 l 1
 30 80 l 1
 20 80 l 1
 20 70 l 1
 10 70 l 1
20 40 m 1
 20 60 l 1
 30 60 l 1
 30 70 l 1
 40 70 l 1
 40 80 l 1
 60 80 l 1
 60 70 l 1
 70 70 l 1
 70 60 l 1
 80 60 l 1
 80 40 l 1
 70 40 l 1
 70 30 l 1
 60 30 l 1
 60 20 l 1
 40 20 l 1
 40 30 l 1
 30 30 l 1
 30 40 l 1
 20 40 l 1
90 30 m 1
 90 70 l 1
 100 70 l 1
 100 30 l 1
 90 30 l 1
0 30 m 1
 0 70 l 1
 10 70 l 1
 10 30 l 1
 0 30 l 1
10 10 m 1
 10 30 l 1
 20 30 l 1
 20 20 l 1
 30 20 l 1
 30 10 l 1
 10 10 l 1
70 10 m 1
 70 20 l 1
 80 20 l 1
 80 30 l 1
 90 30 l 1
 90 10 l 1
 70 10 l 1
30 0 m 1
 30 10 l 1
 70 10 l 1
 70 0 l 1
 30 0 l 1
EndSplineSet
EndChar

StartChar: noentry
Encoding: 9940 9940 256
Width: 110
GlyphClass: 1
Flags: W
LayerCount: 2
Fore
SplineSet
90 70 m 1
 100 70 l 1
 100 30 l 1
 90 30 l 1
 90 10 l 1
 70 10 l 1
 70 0 l 1
 30 0 l 1
 30 10 l 1
 10 10 l 1
 10 30 l 1
 0 30 l 1
 0 70 l 1
 10 70 l 1
 10 90 l 1
 30 90 l 1
 30 100 l 1
 70 100 l 1
 70 90 l 1
 90 90 l 1
 90 70 l 1
80 60 m 1
 20 60 l 1
 20 40 l 1
 80 40 l 1
 80 60 l 1
EndSplineSet
Substitution2: "'ss01' Style Set 1 lookup 5 subtable" execute-tag
Substitution2: "'aalt' Access All Alternates lookup 0 subtable" execute-tag
EndChar

StartChar: dietwo
Encoding: 9857 9857 257
Width: 110
GlyphClass: 1
Flags: W
LayerCount: 2
Fore
SplineSet
80 100 m 1
 80 90 l 1
 10 90 l 1
 10 100 l 1
 80 100 l 1
0 20 m 1
 0 90 l 1
 10 90 l 1
 10 20 l 1
 0 20 l 1
90 90 m 1
 90 20 l 1
 80 20 l 1
 80 90 l 1
 90 90 l 1
20 60 m 1
 20 80 l 1
 40 80 l 1
 40 60 l 1
 20 60 l 1
50 30 m 1
 50 50 l 1
 70 50 l 1
 70 30 l 1
 50 30 l 1
10 10 m 1
 10 20 l 1
 80 20 l 1
 80 10 l 1
 10 10 l 1
EndSplineSet
EndChar

StartChar: triangle.left-below
Encoding: 57390 57390 258
Width: 110
GlyphClass: 1
Flags: W
LayerCount: 2
Fore
SplineSet
20 20 m 1
 20 30 l 1
 40 30 l 1
 40 40 l 1
 70 40 l 1
 70 50 l 1
 100 50 l 1
 100 0 l 1
 70 0 l 1
 70 10 l 1
 40 10 l 1
 40 20 l 1
 20 20 l 1
EndSplineSet
EndChar

StartChar: triangle.right-above
Encoding: 57391 57391 259
Width: 110
GlyphClass: 1
Flags: W
LayerCount: 2
Fore
SplineSet
120 90 m 1
 100 90 l 1
 100 80 l 1
 70 80 l 1
 70 70 l 1
 40 70 l 1
 40 120 l 1
 70 120 l 1
 70 110 l 1
 100 110 l 1
 100 100 l 1
 120 100 l 1
 120 90 l 1
EndSplineSet
EndChar

StartChar: triangle.left.right
Encoding: 57392 57392 260
Width: 110
GlyphClass: 1
Flags: W
LayerCount: 2
Fore
SplineSet
110 90 m 1
 90 90 l 1
 90 80 l 1
 60 80 l 1
 60 70 l 1
 30 70 l 1
 30 120 l 1
 60 120 l 1
 60 110 l 1
 90 110 l 1
 90 100 l 1
 110 100 l 1
 110 90 l 1
20 20 m 1
 20 30 l 1
 40 30 l 1
 40 40 l 1
 70 40 l 1
 70 50 l 1
 100 50 l 1
 100 0 l 1
 70 0 l 1
 70 10 l 1
 40 10 l 1
 40 20 l 1
 20 20 l 1
EndSplineSet
Ligature2: "'calt' Contextual Alternates lookup 7 subtable" trianglerightblack triangleleftblack
EndChar

StartChar: triangle.up.down
Encoding: 57393 57393 261
Width: 110
GlyphClass: 1
Flags: W
LayerCount: 2
Fore
SplineSet
20 90 m 1
 20 100 l 1
 30 100 l 1
 30 110 l 1
 40 110 l 1
 40 120 l 1
 60 120 l 1
 60 110 l 1
 70 110 l 1
 70 100 l 1
 80 100 l 1
 80 90 l 1
 90 90 l 1
 90 80 l 1
 100 80 l 1
 100 70 l 1
 0 70 l 1
 0 80 l 1
 10 80 l 1
 10 90 l 1
 20 90 l 1
20 20 m 1
 10 20 l 1
 10 30 l 1
 0 30 l 1
 0 40 l 1
 100 40 l 1
 100 30 l 1
 90 30 l 1
 90 20 l 1
 80 20 l 1
 80 10 l 1
 70 10 l 1
 70 0 l 1
 60 0 l 1
 60 -10 l 1
 40 -10 l 1
 40 0 l 1
 30 0 l 1
 30 10 l 1
 20 10 l 1
 20 20 l 1
EndSplineSet
Ligature2: "'calt' Contextual Alternates lookup 7 subtable" triagup triagdn
EndChar

StartChar: uniE032
Encoding: 57394 57394 262
Width: 110
GlyphClass: 1
Flags: W
LayerCount: 2
Fore
SplineSet
20 80 m 1
 20 90 l 1
 30 90 l 1
 30 80 l 1
 40 80 l 1
 40 70 l 1
 50 70 l 1
 50 60 l 1
 60 60 l 1
 60 50 l 1
 70 50 l 1
 70 40 l 1
 60 40 l 1
 60 50 l 1
 50 50 l 1
 50 60 l 1
 40 60 l 1
 40 70 l 1
 30 70 l 1
 30 80 l 1
 20 80 l 1
50 70 m 1
 50 80 l 1
 60 80 l 1
 60 70 l 1
 70 70 l 1
 70 60 l 1
 80 60 l 1
 80 50 l 1
 90 50 l 1
 90 40 l 1
 80 40 l 1
 80 50 l 1
 70 50 l 1
 70 60 l 1
 60 60 l 1
 60 70 l 1
 50 70 l 1
30 70 m 1
 30 60 l 1
 40 60 l 1
 40 50 l 1
 50 50 l 1
 50 40 l 1
 60 40 l 1
 60 30 l 1
 50 30 l 1
 50 40 l 1
 40 40 l 1
 40 50 l 1
 30 50 l 1
 30 60 l 1
 20 60 l 1
 20 70 l 1
 30 70 l 1
80 60 m 1
 80 70 l 1
 90 70 l 1
 90 60 l 1
 100 60 l 1
 100 50 l 1
 90 50 l 1
 90 60 l 1
 80 60 l 1
30 50 m 1
 30 40 l 1
 40 40 l 1
 40 30 l 1
 30 30 l 1
 30 40 l 1
 20 40 l 1
 20 50 l 1
 30 50 l 1
30 30 m 1
 30 20 l 1
 20 20 l 1
 20 30 l 1
 30 30 l 1
EndSplineSet
EndChar

StartChar: uniE033
Encoding: 57395 57395 263
Width: 110
GlyphClass: 1
Flags: W
LayerCount: 2
Fore
SplineSet
100 80 m 1
 90 80 l 1
 90 90 l 1
 100 90 l 1
 100 80 l 1
60 70 m 1
 60 80 l 1
 70 80 l 1
 70 70 l 1
 60 70 l 1
80 70 m 1
 80 80 l 1
 90 80 l 1
 90 70 l 1
 80 70 l 1
70 70 m 1
 80 70 l 1
 80 60 l 1
 90 60 l 1
 90 50 l 1
 100 50 l 1
 100 40 l 1
 90 40 l 1
 90 50 l 1
 80 50 l 1
 80 60 l 1
 70 60 l 1
 70 70 l 1
30 60 m 1
 30 70 l 1
 40 70 l 1
 40 60 l 1
 30 60 l 1
90 70 m 1
 100 70 l 1
 100 60 l 1
 90 60 l 1
 90 70 l 1
50 60 m 1
 50 70 l 1
 60 70 l 1
 60 60 l 1
 50 60 l 1
60 60 m 1
 70 60 l 1
 70 50 l 1
 80 50 l 1
 80 40 l 1
 90 40 l 1
 90 30 l 1
 100 30 l 1
 100 20 l 1
 90 20 l 1
 90 30 l 1
 80 30 l 1
 80 40 l 1
 70 40 l 1
 70 50 l 1
 60 50 l 1
 60 60 l 1
40 60 m 1
 50 60 l 1
 50 50 l 1
 60 50 l 1
 60 40 l 1
 70 40 l 1
 70 30 l 1
 60 30 l 1
 60 40 l 1
 50 40 l 1
 50 50 l 1
 40 50 l 1
 40 60 l 1
30 50 m 1
 20 50 l 1
 20 60 l 1
 30 60 l 1
 30 50 l 1
40 40 m 1
 30 40 l 1
 30 50 l 1
 40 50 l 1
 40 40 l 1
EndSplineSet
EndChar

StartChar: coin
Encoding: 57396 57396 264
Width: 110
GlyphClass: 1
Flags: W
LayerCount: 2
Fore
SplineSet
50 80 m 1
 40 80 l 1
 40 100 l 1
 20 100 l 1
 20 110 l 1
 60 110 l 1
 60 100 l 1
 50 100 l 1
 50 80 l 1
10 80 m 1
 10 100 l 1
 20 100 l 1
 20 80 l 1
 10 80 l 1
70 80 m 1
 60 80 l 1
 60 100 l 1
 70 100 l 1
 70 80 l 1
0 30 m 1
 0 80 l 1
 10 80 l 1
 10 30 l 1
 0 30 l 1
60 30 m 1
 50 30 l 1
 50 80 l 1
 60 80 l 1
 60 30 l 1
80 30 m 1
 70 30 l 1
 70 80 l 1
 80 80 l 1
 80 30 l 1
10 10 m 1
 10 30 l 1
 20 30 l 1
 20 10 l 1
 40 10 l 1
 40 30 l 1
 50 30 l 1
 50 10 l 1
 60 10 l 1
 60 0 l 1
 20 0 l 1
 20 10 l 1
 10 10 l 1
70 10 m 1
 60 10 l 1
 60 30 l 1
 70 30 l 1
 70 10 l 1
EndSplineSet
EndChar

StartChar: uniE035
Encoding: 57397 57397 265
Width: 110
GlyphClass: 1
Flags: W
LayerCount: 2
Fore
SplineSet
90 40 m 1
 60 40 l 1
 60 50 l 1
 30 50 l 1
 30 40 l 1
 0 40 l 1
 0 70 l 1
 30 70 l 1
 30 60 l 1
 60 60 l 1
 60 70 l 1
 90 70 l 1
 90 40 l 1
20 60 m 1
 10 60 l 1
 10 50 l 1
 20 50 l 1
 20 60 l 1
EndSplineSet
EndChar

StartChar: uniE036
Encoding: 57398 57398 266
Width: 110
GlyphClass: 1
Flags: W
LayerCount: 2
Fore
SplineSet
10 20 m 1
 10 30 l 1
 20 30 l 1
 20 20 l 1
 40 20 l 1
 40 50 l 1
 10 50 l 1
 10 30 l 1
 0 30 l 1
 0 80 l 1
 10 80 l 1
 10 60 l 1
 40 60 l 1
 40 90 l 1
 20 90 l 1
 20 100 l 1
 40 100 l 1
 40 110 l 1
 50 110 l 1
 50 100 l 1
 70 100 l 1
 70 90 l 1
 50 90 l 1
 50 60 l 1
 80 60 l 1
 80 80 l 1
 90 80 l 1
 90 60 l 1
 100 60 l 1
 100 50 l 1
 90 50 l 1
 90 30 l 1
 80 30 l 1
 80 50 l 1
 50 50 l 1
 50 20 l 1
 70 20 l 1
 70 10 l 1
 20 10 l 1
 20 20 l 1
 10 20 l 1
80 90 m 1
 80 80 l 1
 70 80 l 1
 70 90 l 1
 80 90 l 1
20 90 m 1
 20 80 l 1
 10 80 l 1
 10 90 l 1
 20 90 l 1
70 20 m 1
 70 30 l 1
 80 30 l 1
 80 20 l 1
 70 20 l 1
EndSplineSet
EndChar

StartChar: uniE037
Encoding: 57399 57399 267
Width: 110
GlyphClass: 1
Flags: W
LayerCount: 2
Fore
SplineSet
0 20 m 1
 0 50 l 1
 10 50 l 1
 10 30 l 1
 40 30 l 1
 40 60 l 1
 20 60 l 1
 20 70 l 1
 40 70 l 1
 40 80 l 1
 50 80 l 1
 50 70 l 1
 70 70 l 1
 70 60 l 1
 50 60 l 1
 50 30 l 1
 80 30 l 1
 80 50 l 1
 90 50 l 1
 90 30 l 1
 100 30 l 1
 100 20 l 1
 0 20 l 1
80 60 m 1
 80 50 l 1
 70 50 l 1
 70 60 l 1
 80 60 l 1
20 60 m 1
 20 50 l 1
 10 50 l 1
 10 60 l 1
 20 60 l 1
EndSplineSet
EndChar

StartChar: clockFaceThreeOclock
Encoding: 128338 128338 268
Width: 110
GlyphClass: 1
Flags: W
LayerCount: 2
Fore
SplineSet
70 90 m 1
 80 90 l 1
 80 80 l 1
 90 80 l 1
 90 30 l 1
 80 30 l 1
 80 20 l 1
 70 20 l 1
 70 30 l 1
 80 30 l 1
 80 80 l 1
 70 80 l 1
 70 90 l 1
 50 90 l 1
 50 60 l 1
 70 60 l 1
 70 50 l 1
 40 50 l 1
 40 90 l 1
 20 90 l 1
 20 80 l 1
 10 80 l 1
 10 30 l 1
 20 30 l 1
 20 20 l 1
 70 20 l 1
 70 10 l 1
 20 10 l 1
 20 20 l 1
 10 20 l 1
 10 30 l 1
 0 30 l 1
 0 80 l 1
 10 80 l 1
 10 90 l 1
 20 90 l 1
 20 100 l 1
 70 100 l 1
 70 90 l 1
EndSplineSet
EndChar

StartChar: Eth
Encoding: 208 208 269
Width: 110
GlyphClass: 1
Flags: W
LayerCount: 2
Fore
SplineSet
0 50 m 1
 0 70 l 1
 10 70 l 1
 10 120 l 1
 70 120 l 1
 70 110 l 1
 80 110 l 1
 80 100 l 1
 90 100 l 1
 90 20 l 1
 80 20 l 1
 80 10 l 1
 70 10 l 1
 70 0 l 1
 10 0 l 1
 10 50 l 1
 0 50 l 1
30 20 m 1
 60 20 l 1
 60 30 l 1
 70 30 l 1
 70 90 l 1
 60 90 l 1
 60 100 l 1
 30 100 l 1
 30 70 l 1
 60 70 l 1
 60 50 l 1
 30 50 l 1
 30 20 l 1
EndSplineSet
EndChar

StartChar: Agrave
Encoding: 192 192 270
Width: 110
GlyphClass: 1
Flags: W
LayerCount: 2
Fore
SplineSet
20 0 m 1
 20 30 l 1
 30 30 l 1
 30 60 l 1
 40 60 l 1
 40 80 l 1
 50 80 l 1
 50 100 l 1
 60 100 l 1
 60 110 l 1
 40 110 l 1
 40 120 l 1
 70 120 l 1
 70 110 l 1
 90 110 l 1
 90 100 l 1
 80 100 l 1
 80 80 l 1
 90 80 l 1
 90 60 l 1
 100 60 l 1
 100 30 l 1
 110 30 l 1
 110 0 l 1
 90 0 l 1
 90 20 l 1
 40 20 l 1
 40 0 l 1
 20 0 l 1
80 40 m 1
 80 50 l 1
 70 50 l 1
 70 70 l 1
 60 70 l 1
 60 50 l 1
 50 50 l 1
 50 40 l 1
 80 40 l 1
EndSplineSet
EndChar

StartChar: Aacute
Encoding: 193 193 271
Width: 110
GlyphClass: 1
Flags: W
LayerCount: 2
Fore
SplineSet
110 0 m 1
 90 0 l 1
 90 20 l 1
 40 20 l 1
 40 0 l 1
 20 0 l 1
 20 30 l 1
 30 30 l 1
 30 60 l 1
 40 60 l 1
 40 80 l 1
 50 80 l 1
 50 100 l 1
 40 100 l 1
 40 110 l 1
 60 110 l 1
 60 120 l 1
 90 120 l 1
 90 110 l 1
 70 110 l 1
 70 100 l 1
 80 100 l 1
 80 80 l 1
 90 80 l 1
 90 60 l 1
 100 60 l 1
 100 30 l 1
 110 30 l 1
 110 0 l 1
50 40 m 1
 80 40 l 1
 80 50 l 1
 70 50 l 1
 70 70 l 1
 60 70 l 1
 60 50 l 1
 50 50 l 1
 50 40 l 1
EndSplineSet
EndChar

StartChar: Acircumflex
Encoding: 194 194 272
Width: 110
GlyphClass: 1
Flags: W
LayerCount: 2
Fore
SplineSet
20 0 m 1
 20 30 l 1
 30 30 l 1
 30 60 l 1
 40 60 l 1
 40 80 l 1
 50 80 l 1
 50 100 l 1
 30 100 l 1
 30 110 l 1
 40 110 l 1
 40 120 l 1
 80 120 l 1
 80 110 l 1
 90 110 l 1
 90 100 l 1
 80 100 l 1
 80 80 l 1
 90 80 l 1
 90 60 l 1
 100 60 l 1
 100 30 l 1
 110 30 l 1
 110 0 l 1
 90 0 l 1
 90 20 l 1
 40 20 l 1
 40 0 l 1
 20 0 l 1
50 100 m 1
 70 100 l 1
 70 110 l 1
 50 110 l 1
 50 100 l 1
80 40 m 1
 80 50 l 1
 70 50 l 1
 70 70 l 1
 60 70 l 1
 60 50 l 1
 50 50 l 1
 50 40 l 1
 80 40 l 1
EndSplineSet
EndChar

StartChar: Atilde
Encoding: 195 195 273
Width: 110
GlyphClass: 1
Flags: W
LayerCount: 2
Fore
SplineSet
20 0 m 1
 20 30 l 1
 30 30 l 1
 30 60 l 1
 40 60 l 1
 40 80 l 1
 50 80 l 1
 50 100 l 1
 30 100 l 1
 30 110 l 1
 40 110 l 1
 40 120 l 1
 70 120 l 1
 70 110 l 1
 80 110 l 1
 80 120 l 1
 100 120 l 1
 100 110 l 1
 90 110 l 1
 90 100 l 1
 80 100 l 1
 80 80 l 1
 90 80 l 1
 90 60 l 1
 100 60 l 1
 100 30 l 1
 110 30 l 1
 110 0 l 1
 90 0 l 1
 90 20 l 1
 40 20 l 1
 40 0 l 1
 20 0 l 1
60 110 m 1
 50 110 l 1
 50 100 l 1
 60 100 l 1
 60 110 l 1
80 40 m 1
 80 50 l 1
 70 50 l 1
 70 70 l 1
 60 70 l 1
 60 50 l 1
 50 50 l 1
 50 40 l 1
 80 40 l 1
EndSplineSet
EndChar

StartChar: Adieresis
Encoding: 196 196 274
Width: 110
GlyphClass: 1
Flags: W
LayerCount: 2
Fore
SplineSet
20 0 m 1
 20 30 l 1
 30 30 l 1
 30 60 l 1
 40 60 l 1
 40 80 l 1
 50 80 l 1
 50 100 l 1
 40 100 l 1
 40 120 l 1
 60 120 l 1
 60 100 l 1
 70 100 l 1
 70 120 l 1
 90 120 l 1
 90 100 l 1
 80 100 l 1
 80 80 l 1
 90 80 l 1
 90 60 l 1
 100 60 l 1
 100 30 l 1
 110 30 l 1
 110 0 l 1
 90 0 l 1
 90 20 l 1
 40 20 l 1
 40 0 l 1
 20 0 l 1
80 40 m 1
 80 50 l 1
 70 50 l 1
 70 70 l 1
 60 70 l 1
 60 50 l 1
 50 50 l 1
 50 40 l 1
 80 40 l 1
EndSplineSet
EndChar

StartChar: Aring
Encoding: 197 197 275
Width: 110
GlyphClass: 1
Flags: W
LayerCount: 2
Fore
SplineSet
20 0 m 1
 20 30 l 1
 30 30 l 1
 30 60 l 1
 40 60 l 1
 40 80 l 1
 50 80 l 1
 50 90 l 1
 40 90 l 1
 40 110 l 1
 50 110 l 1
 50 120 l 1
 80 120 l 1
 80 110 l 1
 90 110 l 1
 90 90 l 1
 80 90 l 1
 80 80 l 1
 90 80 l 1
 90 60 l 1
 100 60 l 1
 100 30 l 1
 110 30 l 1
 110 0 l 1
 90 0 l 1
 90 20 l 1
 40 20 l 1
 40 0 l 1
 20 0 l 1
70 90 m 1
 70 100 l 1
 60 100 l 1
 60 90 l 1
 70 90 l 1
80 40 m 1
 80 50 l 1
 70 50 l 1
 70 70 l 1
 60 70 l 1
 60 50 l 1
 50 50 l 1
 50 40 l 1
 80 40 l 1
EndSplineSet
EndChar

StartChar: Abreve
Encoding: 258 258 276
Width: 110
GlyphClass: 1
Flags: W
LayerCount: 2
Fore
SplineSet
80 120 m 1
 100 120 l 1
 100 110 l 1
 90 110 l 1
 90 100 l 1
 40 100 l 1
 40 110 l 1
 30 110 l 1
 30 120 l 1
 50 120 l 1
 50 110 l 1
 80 110 l 1
 80 120 l 1
20 0 m 1
 20 30 l 1
 30 30 l 1
 30 60 l 1
 40 60 l 1
 40 80 l 1
 50 80 l 1
 50 90 l 1
 80 90 l 1
 80 80 l 1
 90 80 l 1
 90 60 l 1
 100 60 l 1
 100 30 l 1
 110 30 l 1
 110 0 l 1
 90 0 l 1
 90 20 l 1
 40 20 l 1
 40 0 l 1
 20 0 l 1
80 40 m 1
 80 50 l 1
 70 50 l 1
 70 70 l 1
 60 70 l 1
 60 50 l 1
 50 50 l 1
 50 40 l 1
 80 40 l 1
EndSplineSet
EndChar

StartChar: Aogonek
Encoding: 260 260 277
Width: 110
GlyphClass: 1
Flags: W
LayerCount: 2
Fore
SplineSet
0 10 m 1
 0 50 l 1
 10 50 l 1
 10 80 l 1
 20 80 l 1
 20 100 l 1
 30 100 l 1
 30 120 l 1
 60 120 l 1
 60 100 l 1
 70 100 l 1
 70 80 l 1
 80 80 l 1
 80 50 l 1
 90 50 l 1
 90 10 l 1
 80 10 l 1
 80 0 l 1
 100 0 l 1
 100 -10 l 1
 70 -10 l 1
 70 0 l 1
 60 0 l 1
 60 20 l 1
 70 20 l 1
 70 40 l 1
 20 40 l 1
 20 10 l 1
 0 10 l 1
60 60 m 1
 60 70 l 1
 50 70 l 1
 50 90 l 1
 40 90 l 1
 40 70 l 1
 30 70 l 1
 30 60 l 1
 60 60 l 1
EndSplineSet
EndChar

StartChar: AE
Encoding: 198 198 278
Width: 110
GlyphClass: 1
Flags: W
LayerCount: 2
Fore
SplineSet
0 0 m 1
 0 50 l 1
 10 50 l 1
 10 80 l 1
 20 80 l 1
 20 110 l 1
 30 110 l 1
 30 120 l 1
 100 120 l 1
 100 100 l 1
 70 100 l 1
 70 70 l 1
 90 70 l 1
 90 50 l 1
 70 50 l 1
 70 20 l 1
 100 20 l 1
 100 0 l 1
 50 0 l 1
 50 30 l 1
 20 30 l 1
 20 0 l 1
 0 0 l 1
50 50 m 1
 50 100 l 1
 40 100 l 1
 40 70 l 1
 30 70 l 1
 30 50 l 1
 50 50 l 1
EndSplineSet
EndChar

StartChar: Ccedilla
Encoding: 199 199 279
Width: 110
GlyphClass: 1
Flags: W
LayerCount: 2
Fore
SplineSet
20 30 m 1
 20 100 l 1
 30 100 l 1
 30 110 l 1
 40 110 l 1
 40 120 l 1
 90 120 l 1
 90 110 l 1
 100 110 l 1
 100 90 l 1
 80 90 l 1
 80 100 l 1
 50 100 l 1
 50 90 l 1
 40 90 l 1
 40 40 l 1
 50 40 l 1
 50 30 l 1
 80 30 l 1
 80 40 l 1
 100 40 l 1
 100 20 l 1
 90 20 l 1
 90 10 l 1
 80 10 l 1
 80 0 l 1
 70 0 l 1
 70 -10 l 1
 40 -10 l 1
 40 0 l 1
 60 0 l 1
 60 10 l 1
 40 10 l 1
 40 20 l 1
 30 20 l 1
 30 30 l 1
 20 30 l 1
EndSplineSet
EndChar

StartChar: Egrave
Encoding: 200 200 280
Width: 110
GlyphClass: 1
Flags: W
LayerCount: 2
Fore
SplineSet
20 0 m 1
 20 100 l 1
 50 100 l 1
 50 110 l 1
 30 110 l 1
 30 120 l 1
 60 120 l 1
 60 110 l 1
 70 110 l 1
 70 100 l 1
 100 100 l 1
 100 80 l 1
 40 80 l 1
 40 60 l 1
 90 60 l 1
 90 40 l 1
 40 40 l 1
 40 20 l 1
 100 20 l 1
 100 0 l 1
 20 0 l 1
EndSplineSet
EndChar

StartChar: Eacute
Encoding: 201 201 281
Width: 110
GlyphClass: 1
Flags: W
LayerCount: 2
Fore
SplineSet
20 0 m 1
 20 100 l 1
 50 100 l 1
 50 110 l 1
 60 110 l 1
 60 120 l 1
 90 120 l 1
 90 110 l 1
 70 110 l 1
 70 100 l 1
 100 100 l 1
 100 80 l 1
 40 80 l 1
 40 60 l 1
 90 60 l 1
 90 40 l 1
 40 40 l 1
 40 20 l 1
 100 20 l 1
 100 0 l 1
 20 0 l 1
EndSplineSet
EndChar

StartChar: Ecircumflex
Encoding: 202 202 282
Width: 110
GlyphClass: 1
Flags: W
LayerCount: 2
Fore
SplineSet
70 100 m 1
 70 110 l 1
 50 110 l 1
 50 100 l 1
 30 100 l 1
 30 110 l 1
 40 110 l 1
 40 120 l 1
 80 120 l 1
 80 110 l 1
 90 110 l 1
 90 100 l 1
 70 100 l 1
20 0 m 1
 20 90 l 1
 100 90 l 1
 100 70 l 1
 40 70 l 1
 40 60 l 1
 90 60 l 1
 90 40 l 1
 40 40 l 1
 40 20 l 1
 100 20 l 1
 100 0 l 1
 20 0 l 1
EndSplineSet
EndChar

StartChar: Edieresis
Encoding: 203 203 283
Width: 110
GlyphClass: 1
Flags: W
LayerCount: 2
Fore
SplineSet
40 100 m 1
 40 120 l 1
 60 120 l 1
 60 100 l 1
 40 100 l 1
70 100 m 1
 70 120 l 1
 90 120 l 1
 90 100 l 1
 70 100 l 1
20 0 m 1
 20 90 l 1
 100 90 l 1
 100 70 l 1
 40 70 l 1
 40 60 l 1
 90 60 l 1
 90 40 l 1
 40 40 l 1
 40 20 l 1
 100 20 l 1
 100 0 l 1
 20 0 l 1
EndSplineSet
EndChar

StartChar: Igrave
Encoding: 204 204 284
Width: 110
GlyphClass: 1
Flags: W
LayerCount: 2
Fore
SplineSet
90 100 m 1
 60 100 l 1
 60 110 l 1
 40 110 l 1
 40 120 l 1
 70 120 l 1
 70 110 l 1
 90 110 l 1
 90 100 l 1
40 70 m 1
 40 90 l 1
 100 90 l 1
 100 70 l 1
 80 70 l 1
 80 20 l 1
 100 20 l 1
 100 0 l 1
 40 0 l 1
 40 20 l 1
 60 20 l 1
 60 70 l 1
 40 70 l 1
EndSplineSet
EndChar

StartChar: Iacute
Encoding: 205 205 285
Width: 110
GlyphClass: 1
Flags: W
LayerCount: 2
Fore
SplineSet
50 100 m 1
 50 110 l 1
 70 110 l 1
 70 120 l 1
 100 120 l 1
 100 110 l 1
 80 110 l 1
 80 100 l 1
 50 100 l 1
40 70 m 1
 40 90 l 1
 100 90 l 1
 100 70 l 1
 80 70 l 1
 80 20 l 1
 100 20 l 1
 100 0 l 1
 40 0 l 1
 40 20 l 1
 60 20 l 1
 60 70 l 1
 40 70 l 1
EndSplineSet
EndChar

StartChar: Icircumflex
Encoding: 206 206 286
Width: 110
GlyphClass: 1
Flags: W
LayerCount: 2
Fore
SplineSet
80 100 m 1
 80 110 l 1
 60 110 l 1
 60 100 l 1
 40 100 l 1
 40 110 l 1
 50 110 l 1
 50 120 l 1
 90 120 l 1
 90 110 l 1
 100 110 l 1
 100 100 l 1
 80 100 l 1
40 70 m 1
 40 90 l 1
 100 90 l 1
 100 70 l 1
 80 70 l 1
 80 20 l 1
 100 20 l 1
 100 0 l 1
 40 0 l 1
 40 20 l 1
 60 20 l 1
 60 70 l 1
 40 70 l 1
EndSplineSet
EndChar

StartChar: Idieresis
Encoding: 207 207 287
Width: 110
GlyphClass: 1
Flags: W
LayerCount: 2
Fore
SplineSet
40 100 m 1
 40 120 l 1
 60 120 l 1
 60 100 l 1
 40 100 l 1
70 100 m 1
 70 120 l 1
 90 120 l 1
 90 100 l 1
 70 100 l 1
40 70 m 1
 40 90 l 1
 100 90 l 1
 100 70 l 1
 80 70 l 1
 80 20 l 1
 100 20 l 1
 100 0 l 1
 40 0 l 1
 40 20 l 1
 60 20 l 1
 60 70 l 1
 40 70 l 1
EndSplineSet
EndChar

StartChar: Ntilde
Encoding: 209 209 288
Width: 110
GlyphClass: 1
Flags: W
LayerCount: 2
Fore
SplineSet
60 100 m 1
 60 110 l 1
 50 110 l 1
 50 100 l 1
 30 100 l 1
 30 110 l 1
 40 110 l 1
 40 120 l 1
 70 120 l 1
 70 110 l 1
 80 110 l 1
 80 120 l 1
 100 120 l 1
 100 110 l 1
 90 110 l 1
 90 100 l 1
 60 100 l 1
20 0 m 1
 20 90 l 1
 40 90 l 1
 40 80 l 1
 50 80 l 1
 50 70 l 1
 60 70 l 1
 60 60 l 1
 70 60 l 1
 70 50 l 1
 80 50 l 1
 80 90 l 1
 100 90 l 1
 100 0 l 1
 80 0 l 1
 80 20 l 1
 70 20 l 1
 70 30 l 1
 60 30 l 1
 60 40 l 1
 50 40 l 1
 50 50 l 1
 40 50 l 1
 40 0 l 1
 20 0 l 1
EndSplineSet
EndChar

StartChar: Ograve
Encoding: 210 210 289
Width: 110
GlyphClass: 1
Flags: W
LayerCount: 2
Fore
SplineSet
20 20 m 1
 20 80 l 1
 30 80 l 1
 30 90 l 1
 40 90 l 1
 40 100 l 1
 50 100 l 1
 50 110 l 1
 30 110 l 1
 30 120 l 1
 60 120 l 1
 60 110 l 1
 70 110 l 1
 70 100 l 1
 90 100 l 1
 90 90 l 1
 100 90 l 1
 100 80 l 1
 110 80 l 1
 110 20 l 1
 100 20 l 1
 100 10 l 1
 90 10 l 1
 90 0 l 1
 40 0 l 1
 40 10 l 1
 30 10 l 1
 30 20 l 1
 20 20 l 1
50 20 m 1
 80 20 l 1
 80 30 l 1
 90 30 l 1
 90 70 l 1
 80 70 l 1
 80 80 l 1
 50 80 l 1
 50 70 l 1
 40 70 l 1
 40 30 l 1
 50 30 l 1
 50 20 l 1
EndSplineSet
EndChar

StartChar: Oacute
Encoding: 211 211 290
Width: 110
GlyphClass: 1
Flags: W
LayerCount: 2
Fore
SplineSet
20 20 m 1
 20 80 l 1
 30 80 l 1
 30 90 l 1
 40 90 l 1
 40 100 l 1
 60 100 l 1
 60 110 l 1
 70 110 l 1
 70 120 l 1
 100 120 l 1
 100 110 l 1
 80 110 l 1
 80 100 l 1
 90 100 l 1
 90 90 l 1
 100 90 l 1
 100 80 l 1
 110 80 l 1
 110 20 l 1
 100 20 l 1
 100 10 l 1
 90 10 l 1
 90 0 l 1
 40 0 l 1
 40 10 l 1
 30 10 l 1
 30 20 l 1
 20 20 l 1
50 20 m 1
 80 20 l 1
 80 30 l 1
 90 30 l 1
 90 70 l 1
 80 70 l 1
 80 80 l 1
 50 80 l 1
 50 70 l 1
 40 70 l 1
 40 30 l 1
 50 30 l 1
 50 20 l 1
EndSplineSet
EndChar

StartChar: Ocircumflex
Encoding: 212 212 291
Width: 110
GlyphClass: 1
Flags: W
LayerCount: 2
Fore
SplineSet
70 100 m 1
 70 110 l 1
 50 110 l 1
 50 100 l 1
 30 100 l 1
 30 110 l 1
 40 110 l 1
 40 120 l 1
 80 120 l 1
 80 110 l 1
 90 110 l 1
 90 100 l 1
 70 100 l 1
20 20 m 1
 20 70 l 1
 30 70 l 1
 30 80 l 1
 40 80 l 1
 40 90 l 1
 90 90 l 1
 90 80 l 1
 100 80 l 1
 100 70 l 1
 110 70 l 1
 110 20 l 1
 100 20 l 1
 100 10 l 1
 90 10 l 1
 90 0 l 1
 40 0 l 1
 40 10 l 1
 30 10 l 1
 30 20 l 1
 20 20 l 1
50 20 m 1
 80 20 l 1
 80 30 l 1
 90 30 l 1
 90 60 l 1
 80 60 l 1
 80 70 l 1
 50 70 l 1
 50 60 l 1
 40 60 l 1
 40 30 l 1
 50 30 l 1
 50 20 l 1
EndSplineSet
EndChar

StartChar: Otilde
Encoding: 213 213 292
Width: 110
GlyphClass: 1
Flags: W
LayerCount: 2
Fore
SplineSet
60 100 m 1
 60 110 l 1
 50 110 l 1
 50 100 l 1
 30 100 l 1
 30 110 l 1
 40 110 l 1
 40 120 l 1
 70 120 l 1
 70 110 l 1
 80 110 l 1
 80 120 l 1
 100 120 l 1
 100 110 l 1
 90 110 l 1
 90 100 l 1
 60 100 l 1
20 20 m 1
 20 70 l 1
 30 70 l 1
 30 80 l 1
 40 80 l 1
 40 90 l 1
 90 90 l 1
 90 80 l 1
 100 80 l 1
 100 70 l 1
 110 70 l 1
 110 20 l 1
 100 20 l 1
 100 10 l 1
 90 10 l 1
 90 0 l 1
 40 0 l 1
 40 10 l 1
 30 10 l 1
 30 20 l 1
 20 20 l 1
50 20 m 1
 80 20 l 1
 80 30 l 1
 90 30 l 1
 90 60 l 1
 80 60 l 1
 80 70 l 1
 50 70 l 1
 50 60 l 1
 40 60 l 1
 40 30 l 1
 50 30 l 1
 50 20 l 1
EndSplineSet
EndChar

StartChar: Odieresis
Encoding: 214 214 293
Width: 110
GlyphClass: 1
Flags: W
LayerCount: 2
Fore
SplineSet
40 100 m 1
 40 120 l 1
 60 120 l 1
 60 100 l 1
 40 100 l 1
70 100 m 1
 70 120 l 1
 90 120 l 1
 90 100 l 1
 70 100 l 1
20 20 m 1
 20 70 l 1
 30 70 l 1
 30 80 l 1
 40 80 l 1
 40 90 l 1
 90 90 l 1
 90 80 l 1
 100 80 l 1
 100 70 l 1
 110 70 l 1
 110 20 l 1
 100 20 l 1
 100 10 l 1
 90 10 l 1
 90 0 l 1
 40 0 l 1
 40 10 l 1
 30 10 l 1
 30 20 l 1
 20 20 l 1
50 20 m 1
 80 20 l 1
 80 30 l 1
 90 30 l 1
 90 60 l 1
 80 60 l 1
 80 70 l 1
 50 70 l 1
 50 60 l 1
 40 60 l 1
 40 30 l 1
 50 30 l 1
 50 20 l 1
EndSplineSet
EndChar

StartChar: Oslash
Encoding: 216 216 294
Width: 110
GlyphClass: 1
Flags: W
LayerCount: 2
Fore
SplineSet
20 0 m 1
 20 20 l 1
 30 20 l 1
 30 30 l 1
 20 30 l 1
 20 100 l 1
 30 100 l 1
 30 110 l 1
 40 110 l 1
 40 120 l 1
 80 120 l 1
 80 110 l 1
 90 110 l 1
 90 120 l 1
 110 120 l 1
 110 100 l 1
 100 100 l 1
 100 90 l 1
 110 90 l 1
 110 20 l 1
 100 20 l 1
 100 10 l 1
 90 10 l 1
 90 0 l 1
 50 0 l 1
 50 10 l 1
 40 10 l 1
 40 0 l 1
 20 0 l 1
40 50 m 1
 50 50 l 1
 50 60 l 1
 60 60 l 1
 60 80 l 1
 70 80 l 1
 70 90 l 1
 80 90 l 1
 80 100 l 1
 50 100 l 1
 50 90 l 1
 40 90 l 1
 40 50 l 1
50 20 m 1
 80 20 l 1
 80 30 l 1
 90 30 l 1
 90 70 l 1
 80 70 l 1
 80 60 l 1
 70 60 l 1
 70 40 l 1
 60 40 l 1
 60 30 l 1
 50 30 l 1
 50 20 l 1
EndSplineSet
EndChar

StartChar: Ugrave
Encoding: 217 217 295
Width: 110
GlyphClass: 1
Flags: W
LayerCount: 2
Fore
SplineSet
70 100 m 1
 40 100 l 1
 40 110 l 1
 20 110 l 1
 20 120 l 1
 50 120 l 1
 50 110 l 1
 70 110 l 1
 70 100 l 1
30 10 m 1
 20 10 l 1
 20 100 l 1
 40 100 l 1
 40 20 l 1
 80 20 l 1
 80 100 l 1
 100 100 l 1
 100 10 l 1
 90 10 l 1
 90 0 l 1
 30 0 l 1
 30 10 l 1
EndSplineSet
EndChar

StartChar: Uacute
Encoding: 218 218 296
Width: 110
GlyphClass: 1
Flags: W
LayerCount: 2
Fore
SplineSet
50 100 m 1
 50 110 l 1
 70 110 l 1
 70 120 l 1
 100 120 l 1
 100 110 l 1
 80 110 l 1
 80 100 l 1
 50 100 l 1
30 10 m 1
 20 10 l 1
 20 100 l 1
 40 100 l 1
 40 20 l 1
 80 20 l 1
 80 100 l 1
 100 100 l 1
 100 10 l 1
 90 10 l 1
 90 0 l 1
 30 0 l 1
 30 10 l 1
EndSplineSet
EndChar

StartChar: Ucircumflex
Encoding: 219 219 297
Width: 110
GlyphClass: 1
Flags: W
LayerCount: 2
Fore
SplineSet
70 100 m 1
 70 110 l 1
 50 110 l 1
 50 100 l 1
 30 100 l 1
 30 110 l 1
 40 110 l 1
 40 120 l 1
 80 120 l 1
 80 110 l 1
 90 110 l 1
 90 100 l 1
 70 100 l 1
30 10 m 1
 20 10 l 1
 20 90 l 1
 40 90 l 1
 40 20 l 1
 80 20 l 1
 80 90 l 1
 100 90 l 1
 100 10 l 1
 90 10 l 1
 90 0 l 1
 30 0 l 1
 30 10 l 1
EndSplineSet
EndChar

StartChar: Udieresis
Encoding: 220 220 298
Width: 110
GlyphClass: 1
Flags: W
LayerCount: 2
Fore
SplineSet
40 100 m 1
 40 120 l 1
 60 120 l 1
 60 100 l 1
 40 100 l 1
70 100 m 1
 70 120 l 1
 90 120 l 1
 90 100 l 1
 70 100 l 1
30 10 m 1
 20 10 l 1
 20 90 l 1
 40 90 l 1
 40 20 l 1
 80 20 l 1
 80 90 l 1
 100 90 l 1
 100 10 l 1
 90 10 l 1
 90 0 l 1
 30 0 l 1
 30 10 l 1
EndSplineSet
EndChar

StartChar: Yacute
Encoding: 221 221 299
Width: 110
GlyphClass: 1
Flags: W
LayerCount: 2
Fore
SplineSet
40 100 m 1
 40 110 l 1
 60 110 l 1
 60 120 l 1
 90 120 l 1
 90 110 l 1
 70 110 l 1
 70 100 l 1
 40 100 l 1
80 40 m 1
 70 40 l 1
 70 0 l 1
 50 0 l 1
 50 40 l 1
 40 40 l 1
 40 60 l 1
 30 60 l 1
 30 80 l 1
 20 80 l 1
 20 100 l 1
 40 100 l 1
 40 80 l 1
 50 80 l 1
 50 60 l 1
 70 60 l 1
 70 80 l 1
 80 80 l 1
 80 100 l 1
 100 100 l 1
 100 80 l 1
 90 80 l 1
 90 60 l 1
 80 60 l 1
 80 40 l 1
EndSplineSet
EndChar

StartChar: Ydieresis
Encoding: 376 376 300
Width: 110
GlyphClass: 1
Flags: W
LayerCount: 2
Fore
SplineSet
80 40 m 1
 70 40 l 1
 70 0 l 1
 50 0 l 1
 50 40 l 1
 40 40 l 1
 40 60 l 1
 30 60 l 1
 30 80 l 1
 20 80 l 1
 20 100 l 1
 30 100 l 1
 30 120 l 1
 50 120 l 1
 50 100 l 1
 40 100 l 1
 40 80 l 1
 50 80 l 1
 50 60 l 1
 70 60 l 1
 70 80 l 1
 80 80 l 1
 80 100 l 1
 100 100 l 1
 100 80 l 1
 90 80 l 1
 90 60 l 1
 80 60 l 1
 80 40 l 1
60 100 m 1
 60 120 l 1
 80 120 l 1
 80 100 l 1
 60 100 l 1
EndSplineSet
EndChar

StartChar: Thorn
Encoding: 222 222 301
Width: 110
GlyphClass: 1
Flags: W
LayerCount: 2
Fore
SplineSet
20 0 m 1
 20 120 l 1
 40 120 l 1
 40 90 l 1
 90 90 l 1
 90 80 l 1
 100 80 l 1
 100 40 l 1
 90 40 l 1
 90 30 l 1
 40 30 l 1
 40 0 l 1
 20 0 l 1
40 70 m 1
 40 50 l 1
 80 50 l 1
 80 70 l 1
 40 70 l 1
EndSplineSet
EndChar

StartChar: Cacute
Encoding: 262 262 302
Width: 110
GlyphClass: 1
Flags: W
LayerCount: 2
Fore
SplineSet
20 20 m 1
 20 80 l 1
 30 80 l 1
 30 90 l 1
 40 90 l 1
 40 100 l 1
 60 100 l 1
 60 110 l 1
 70 110 l 1
 70 120 l 1
 100 120 l 1
 100 110 l 1
 80 110 l 1
 80 100 l 1
 90 100 l 1
 90 90 l 1
 100 90 l 1
 100 70 l 1
 80 70 l 1
 80 80 l 1
 50 80 l 1
 50 70 l 1
 40 70 l 1
 40 30 l 1
 50 30 l 1
 50 20 l 1
 80 20 l 1
 80 30 l 1
 100 30 l 1
 100 10 l 1
 90 10 l 1
 90 0 l 1
 40 0 l 1
 40 10 l 1
 30 10 l 1
 30 20 l 1
 20 20 l 1
EndSplineSet
EndChar

StartChar: Ccaron
Encoding: 268 268 303
Width: 110
GlyphClass: 1
Flags: W
LayerCount: 2
Fore
SplineSet
20 20 m 1
 20 80 l 1
 30 80 l 1
 30 90 l 1
 40 90 l 1
 40 110 l 1
 30 110 l 1
 30 120 l 1
 50 120 l 1
 50 110 l 1
 70 110 l 1
 70 120 l 1
 90 120 l 1
 90 110 l 1
 80 110 l 1
 80 100 l 1
 90 100 l 1
 90 90 l 1
 100 90 l 1
 100 70 l 1
 80 70 l 1
 80 80 l 1
 50 80 l 1
 50 70 l 1
 40 70 l 1
 40 30 l 1
 50 30 l 1
 50 20 l 1
 80 20 l 1
 80 30 l 1
 100 30 l 1
 100 10 l 1
 90 10 l 1
 90 0 l 1
 40 0 l 1
 40 10 l 1
 30 10 l 1
 30 20 l 1
 20 20 l 1
EndSplineSet
EndChar

StartChar: OE
Encoding: 338 338 304
Width: 110
GlyphClass: 1
Flags: W
LayerCount: 2
Fore
SplineSet
20 10 m 1
 20 110 l 1
 30 110 l 1
 30 120 l 1
 60 120 l 1
 60 110 l 1
 70 110 l 1
 70 120 l 1
 110 120 l 1
 110 100 l 1
 80 100 l 1
 80 70 l 1
 100 70 l 1
 100 50 l 1
 80 50 l 1
 80 20 l 1
 110 20 l 1
 110 0 l 1
 70 0 l 1
 70 10 l 1
 60 10 l 1
 60 0 l 1
 30 0 l 1
 30 10 l 1
 20 10 l 1
40 20 m 1
 60 20 l 1
 60 100 l 1
 40 100 l 1
 40 20 l 1
EndSplineSet
EndChar

StartChar: Dcaron
Encoding: 270 270 305
Width: 110
GlyphClass: 1
Flags: W
LayerCount: 2
Fore
SplineSet
100 20 m 1
 90 20 l 1
 90 10 l 1
 80 10 l 1
 80 0 l 1
 20 0 l 1
 20 100 l 1
 30 100 l 1
 30 110 l 1
 20 110 l 1
 20 120 l 1
 40 120 l 1
 40 110 l 1
 60 110 l 1
 60 120 l 1
 80 120 l 1
 80 110 l 1
 70 110 l 1
 70 100 l 1
 80 100 l 1
 80 90 l 1
 90 90 l 1
 90 80 l 1
 100 80 l 1
 100 20 l 1
40 20 m 1
 70 20 l 1
 70 30 l 1
 80 30 l 1
 80 70 l 1
 70 70 l 1
 70 80 l 1
 40 80 l 1
 40 20 l 1
EndSplineSet
EndChar

StartChar: Eogonek
Encoding: 280 280 306
Width: 110
GlyphClass: 1
Flags: W
LayerCount: 2
Fore
SplineSet
20 10 m 1
 20 120 l 1
 100 120 l 1
 100 100 l 1
 40 100 l 1
 40 80 l 1
 90 80 l 1
 90 60 l 1
 40 60 l 1
 40 30 l 1
 100 30 l 1
 100 10 l 1
 70 10 l 1
 70 0 l 1
 90 0 l 1
 90 -10 l 1
 60 -10 l 1
 60 0 l 1
 50 0 l 1
 50 10 l 1
 20 10 l 1
EndSplineSet
EndChar

StartChar: Ebreve
Encoding: 276 276 307
Width: 110
GlyphClass: 1
Flags: W
LayerCount: 2
Fore
SplineSet
20 0 m 1
 20 100 l 1
 40 100 l 1
 40 110 l 1
 30 110 l 1
 30 120 l 1
 50 120 l 1
 50 110 l 1
 70 110 l 1
 70 120 l 1
 90 120 l 1
 90 110 l 1
 80 110 l 1
 80 100 l 1
 100 100 l 1
 100 80 l 1
 40 80 l 1
 40 60 l 1
 90 60 l 1
 90 40 l 1
 40 40 l 1
 40 20 l 1
 100 20 l 1
 100 0 l 1
 20 0 l 1
EndSplineSet
EndChar

StartChar: Lslash
Encoding: 321 321 308
Width: 110
GlyphClass: 1
Flags: W
LayerCount: 2
Fore
SplineSet
10 0 m 1
 10 40 l 1
 0 40 l 1
 0 60 l 1
 10 60 l 1
 10 120 l 1
 30 120 l 1
 30 70 l 1
 40 70 l 1
 40 80 l 1
 60 80 l 1
 60 60 l 1
 50 60 l 1
 50 50 l 1
 30 50 l 1
 30 20 l 1
 90 20 l 1
 90 0 l 1
 10 0 l 1
EndSplineSet
EndChar

StartChar: Nacute
Encoding: 323 323 309
Width: 110
GlyphClass: 1
Flags: W
LayerCount: 2
Fore
SplineSet
50 100 m 1
 50 110 l 1
 70 110 l 1
 70 120 l 1
 100 120 l 1
 100 110 l 1
 80 110 l 1
 80 100 l 1
 50 100 l 1
20 0 m 1
 20 100 l 1
 40 100 l 1
 40 80 l 1
 50 80 l 1
 50 70 l 1
 60 70 l 1
 60 60 l 1
 70 60 l 1
 70 50 l 1
 80 50 l 1
 80 100 l 1
 100 100 l 1
 100 0 l 1
 80 0 l 1
 80 20 l 1
 70 20 l 1
 70 30 l 1
 60 30 l 1
 60 40 l 1
 50 40 l 1
 50 50 l 1
 40 50 l 1
 40 0 l 1
 20 0 l 1
EndSplineSet
EndChar

StartChar: Ncaron
Encoding: 327 327 310
Width: 110
GlyphClass: 1
Flags: W
LayerCount: 2
Fore
SplineSet
70 120 m 1
 90 120 l 1
 90 110 l 1
 80 110 l 1
 80 100 l 1
 40 100 l 1
 40 110 l 1
 30 110 l 1
 30 120 l 1
 50 120 l 1
 50 110 l 1
 70 110 l 1
 70 120 l 1
20 0 m 1
 20 100 l 1
 40 100 l 1
 40 80 l 1
 50 80 l 1
 50 70 l 1
 60 70 l 1
 60 60 l 1
 70 60 l 1
 70 50 l 1
 80 50 l 1
 80 100 l 1
 100 100 l 1
 100 0 l 1
 80 0 l 1
 80 20 l 1
 70 20 l 1
 70 30 l 1
 60 30 l 1
 60 40 l 1
 50 40 l 1
 50 50 l 1
 40 50 l 1
 40 0 l 1
 20 0 l 1
EndSplineSet
EndChar

StartChar: Ohungarumlaut
Encoding: 336 336 311
Width: 110
GlyphClass: 1
Flags: W
LayerCount: 2
Fore
SplineSet
20 20 m 1
 20 80 l 1
 30 80 l 1
 30 90 l 1
 40 90 l 1
 40 100 l 1
 30 100 l 1
 30 110 l 1
 40 110 l 1
 40 120 l 1
 60 120 l 1
 60 110 l 1
 70 110 l 1
 70 120 l 1
 90 120 l 1
 90 110 l 1
 80 110 l 1
 80 100 l 1
 90 100 l 1
 90 90 l 1
 100 90 l 1
 100 80 l 1
 110 80 l 1
 110 20 l 1
 100 20 l 1
 100 10 l 1
 90 10 l 1
 90 0 l 1
 40 0 l 1
 40 10 l 1
 30 10 l 1
 30 20 l 1
 20 20 l 1
60 100 m 1
 60 110 l 1
 50 110 l 1
 50 100 l 1
 60 100 l 1
50 20 m 1
 80 20 l 1
 80 30 l 1
 90 30 l 1
 90 70 l 1
 80 70 l 1
 80 80 l 1
 50 80 l 1
 50 70 l 1
 40 70 l 1
 40 30 l 1
 50 30 l 1
 50 20 l 1
EndSplineSet
EndChar

StartChar: Rcaron
Encoding: 344 344 312
Width: 110
GlyphClass: 1
Flags: W
LayerCount: 2
Fore
SplineSet
20 0 m 1
 20 100 l 1
 40 100 l 1
 40 110 l 1
 30 110 l 1
 30 120 l 1
 50 120 l 1
 50 110 l 1
 70 110 l 1
 70 120 l 1
 90 120 l 1
 90 110 l 1
 80 110 l 1
 80 100 l 1
 90 100 l 1
 90 90 l 1
 100 90 l 1
 100 50 l 1
 90 50 l 1
 90 40 l 1
 80 40 l 1
 80 30 l 1
 90 30 l 1
 90 20 l 1
 100 20 l 1
 100 0 l 1
 80 0 l 1
 80 10 l 1
 70 10 l 1
 70 20 l 1
 60 20 l 1
 60 30 l 1
 50 30 l 1
 50 40 l 1
 40 40 l 1
 40 0 l 1
 20 0 l 1
40 80 m 1
 40 60 l 1
 80 60 l 1
 80 80 l 1
 40 80 l 1
EndSplineSet
EndChar

StartChar: Sacute
Encoding: 346 346 313
Width: 110
GlyphClass: 1
Flags: W
LayerCount: 2
Fore
SplineSet
20 10 m 1
 20 30 l 1
 40 30 l 1
 40 20 l 1
 90 20 l 1
 90 40 l 1
 30 40 l 1
 30 50 l 1
 20 50 l 1
 20 90 l 1
 30 90 l 1
 30 100 l 1
 50 100 l 1
 50 110 l 1
 60 110 l 1
 60 120 l 1
 90 120 l 1
 90 110 l 1
 70 110 l 1
 70 100 l 1
 100 100 l 1
 100 90 l 1
 110 90 l 1
 110 70 l 1
 90 70 l 1
 90 80 l 1
 40 80 l 1
 40 60 l 1
 100 60 l 1
 100 50 l 1
 110 50 l 1
 110 10 l 1
 100 10 l 1
 100 0 l 1
 30 0 l 1
 30 10 l 1
 20 10 l 1
EndSplineSet
EndChar

StartChar: Scaron
Encoding: 352 352 314
Width: 110
GlyphClass: 1
Flags: W
LayerCount: 2
Fore
SplineSet
20 10 m 1
 20 30 l 1
 40 30 l 1
 40 20 l 1
 90 20 l 1
 90 40 l 1
 30 40 l 1
 30 50 l 1
 20 50 l 1
 20 90 l 1
 30 90 l 1
 30 100 l 1
 40 100 l 1
 40 110 l 1
 30 110 l 1
 30 120 l 1
 50 120 l 1
 50 110 l 1
 70 110 l 1
 70 120 l 1
 90 120 l 1
 90 110 l 1
 80 110 l 1
 80 100 l 1
 100 100 l 1
 100 90 l 1
 110 90 l 1
 110 70 l 1
 90 70 l 1
 90 80 l 1
 40 80 l 1
 40 60 l 1
 100 60 l 1
 100 50 l 1
 110 50 l 1
 110 10 l 1
 100 10 l 1
 100 0 l 1
 30 0 l 1
 30 10 l 1
 20 10 l 1
EndSplineSet
EndChar

StartChar: Tcaron
Encoding: 356 356 315
Width: 110
GlyphClass: 1
Flags: W
LayerCount: 2
Fore
SplineSet
70 120 m 1
 90 120 l 1
 90 110 l 1
 80 110 l 1
 80 100 l 1
 40 100 l 1
 40 110 l 1
 30 110 l 1
 30 120 l 1
 50 120 l 1
 50 110 l 1
 70 110 l 1
 70 120 l 1
20 70 m 1
 20 90 l 1
 100 90 l 1
 100 70 l 1
 70 70 l 1
 70 0 l 1
 50 0 l 1
 50 70 l 1
 20 70 l 1
EndSplineSet
EndChar

StartChar: Uring
Encoding: 366 366 316
Width: 110
GlyphClass: 1
Flags: W
LayerCount: 2
Fore
SplineSet
40 120 m 1
 70 120 l 1
 70 110 l 1
 80 110 l 1
 80 100 l 1
 70 100 l 1
 70 90 l 1
 40 90 l 1
 40 100 l 1
 30 100 l 1
 30 110 l 1
 40 110 l 1
 40 120 l 1
50 110 m 1
 50 100 l 1
 60 100 l 1
 60 110 l 1
 50 110 l 1
30 10 m 1
 20 10 l 1
 20 90 l 1
 40 90 l 1
 40 20 l 1
 80 20 l 1
 80 90 l 1
 100 90 l 1
 100 10 l 1
 90 10 l 1
 90 0 l 1
 30 0 l 1
 30 10 l 1
EndSplineSet
EndChar

StartChar: Uhungarumlaut
Encoding: 368 368 317
Width: 110
GlyphClass: 1
Flags: W
LayerCount: 2
Fore
SplineSet
60 100 m 1
 60 110 l 1
 50 110 l 1
 50 100 l 1
 30 100 l 1
 30 110 l 1
 40 110 l 1
 40 120 l 1
 60 120 l 1
 60 110 l 1
 70 110 l 1
 70 120 l 1
 90 120 l 1
 90 110 l 1
 80 110 l 1
 80 100 l 1
 60 100 l 1
30 10 m 1
 20 10 l 1
 20 91 l 1
 40 91 l 1
 40 20 l 1
 80 20 l 1
 80 91 l 1
 100 91 l 1
 100 10 l 1
 90 10 l 1
 90 0 l 1
 30 0 l 1
 30 10 l 1
EndSplineSet
EndChar

StartChar: Zacute
Encoding: 377 377 318
Width: 110
GlyphClass: 1
Flags: W
LayerCount: 2
Fore
SplineSet
20 80 m 1
 20 100 l 1
 50 100 l 1
 50 110 l 1
 60 110 l 1
 60 120 l 1
 90 120 l 1
 90 110 l 1
 70 110 l 1
 70 100 l 1
 100 100 l 1
 100 70 l 1
 90 70 l 1
 90 60 l 1
 80 60 l 1
 80 50 l 1
 70 50 l 1
 70 40 l 1
 60 40 l 1
 60 30 l 1
 50 30 l 1
 50 20 l 1
 100 20 l 1
 100 0 l 1
 20 0 l 1
 20 30 l 1
 30 30 l 1
 30 40 l 1
 40 40 l 1
 40 50 l 1
 50 50 l 1
 50 60 l 1
 60 60 l 1
 60 70 l 1
 70 70 l 1
 70 80 l 1
 20 80 l 1
EndSplineSet
EndChar

StartChar: Zdotaccent
Encoding: 379 379 319
Width: 110
GlyphClass: 1
Flags: W
LayerCount: 2
Fore
SplineSet
50 100 m 1
 50 120 l 1
 70 120 l 1
 70 100 l 1
 50 100 l 1
20 70 m 1
 20 90 l 1
 100 90 l 1
 100 70 l 1
 90 70 l 1
 90 60 l 1
 80 60 l 1
 80 50 l 1
 70 50 l 1
 70 40 l 1
 60 40 l 1
 60 30 l 1
 50 30 l 1
 50 20 l 1
 100 20 l 1
 100 0 l 1
 20 0 l 1
 20 30 l 1
 30 30 l 1
 30 40 l 1
 40 40 l 1
 40 50 l 1
 50 50 l 1
 50 60 l 1
 60 60 l 1
 60 70 l 1
 20 70 l 1
EndSplineSet
EndChar

StartChar: exclamdown
Encoding: 161 161 320
Width: 110
GlyphClass: 1
Flags: W
LayerCount: 2
Fore
SplineSet
80 100 m 1
 80 120 l 1
 100 120 l 1
 100 100 l 1
 80 100 l 1
80 0 m 1
 80 80 l 1
 100 80 l 1
 100 0 l 1
 80 0 l 1
EndSplineSet
EndChar

StartChar: questiondown
Encoding: 191 191 321
Width: 110
GlyphClass: 1
Flags: W
LayerCount: 2
Fore
SplineSet
80 120 m 1
 80 100 l 1
 60 100 l 1
 60 120 l 1
 80 120 l 1
100 30 m 1
 100 10 l 1
 90 10 l 1
 90 0 l 1
 50 0 l 1
 50 10 l 1
 40 10 l 1
 40 40 l 1
 50 40 l 1
 50 60 l 1
 60 60 l 1
 60 80 l 1
 80 80 l 1
 80 60 l 1
 70 60 l 1
 70 40 l 1
 60 40 l 1
 60 20 l 1
 80 20 l 1
 80 30 l 1
 100 30 l 1
EndSplineSet
EndChar

StartChar: agrave
Encoding: 224 224 322
Width: 110
GlyphClass: 1
Flags: W
LayerCount: 2
Fore
SplineSet
80 100 m 1
 50 100 l 1
 50 110 l 1
 30 110 l 1
 30 120 l 1
 60 120 l 1
 60 110 l 1
 80 110 l 1
 80 100 l 1
90 80 m 1
 100 80 l 1
 100 0 l 1
 30 0 l 1
 30 10 l 1
 20 10 l 1
 20 50 l 1
 30 50 l 1
 30 60 l 1
 80 60 l 1
 80 70 l 1
 30 70 l 1
 30 90 l 1
 90 90 l 1
 90 80 l 1
80 20 m 1
 80 40 l 1
 40 40 l 1
 40 20 l 1
 80 20 l 1
EndSplineSet
EndChar

StartChar: aacute
Encoding: 225 225 323
Width: 110
GlyphClass: 1
Flags: W
LayerCount: 2
Fore
SplineSet
40 100 m 1
 40 110 l 1
 60 110 l 1
 60 120 l 1
 90 120 l 1
 90 110 l 1
 70 110 l 1
 70 100 l 1
 40 100 l 1
90 80 m 1
 100 80 l 1
 100 0 l 1
 30 0 l 1
 30 10 l 1
 20 10 l 1
 20 50 l 1
 30 50 l 1
 30 60 l 1
 80 60 l 1
 80 70 l 1
 30 70 l 1
 30 90 l 1
 90 90 l 1
 90 80 l 1
80 20 m 1
 80 40 l 1
 40 40 l 1
 40 20 l 1
 80 20 l 1
EndSplineSet
EndChar

StartChar: acircumflex
Encoding: 226 226 324
Width: 110
GlyphClass: 1
Flags: W
LayerCount: 2
Fore
SplineSet
70 100 m 1
 70 110 l 1
 50 110 l 1
 50 100 l 1
 30 100 l 1
 30 110 l 1
 40 110 l 1
 40 120 l 1
 80 120 l 1
 80 110 l 1
 90 110 l 1
 90 100 l 1
 70 100 l 1
90 80 m 1
 100 80 l 1
 100 0 l 1
 30 0 l 1
 30 10 l 1
 20 10 l 1
 20 50 l 1
 30 50 l 1
 30 60 l 1
 80 60 l 1
 80 70 l 1
 30 70 l 1
 30 90 l 1
 90 90 l 1
 90 80 l 1
80 20 m 1
 80 40 l 1
 40 40 l 1
 40 20 l 1
 80 20 l 1
EndSplineSet
EndChar

StartChar: atilde
Encoding: 227 227 325
Width: 110
GlyphClass: 1
Flags: W
LayerCount: 2
Fore
SplineSet
60 100 m 1
 60 110 l 1
 50 110 l 1
 50 100 l 1
 30 100 l 1
 30 110 l 1
 40 110 l 1
 40 120 l 1
 70 120 l 1
 70 110 l 1
 80 110 l 1
 80 120 l 1
 100 120 l 1
 100 110 l 1
 90 110 l 1
 90 100 l 1
 60 100 l 1
90 80 m 1
 100 80 l 1
 100 0 l 1
 30 0 l 1
 30 10 l 1
 20 10 l 1
 20 50 l 1
 30 50 l 1
 30 60 l 1
 80 60 l 1
 80 70 l 1
 30 70 l 1
 30 90 l 1
 90 90 l 1
 90 80 l 1
80 20 m 1
 80 40 l 1
 40 40 l 1
 40 20 l 1
 80 20 l 1
EndSplineSet
EndChar

StartChar: adieresis
Encoding: 228 228 326
Width: 110
GlyphClass: 1
Flags: W
LayerCount: 2
Fore
SplineSet
30 100 m 5
 30 120 l 5
 50 120 l 5
 50 100 l 5
 30 100 l 5
60 100 m 5
 60 120 l 5
 80 120 l 5
 80 100 l 5
 60 100 l 5
90 80 m 1
 100 80 l 1
 100 0 l 1
 30 0 l 1
 30 10 l 1
 20 10 l 1
 20 50 l 1
 30 50 l 1
 30 60 l 1
 80 60 l 1
 80 70 l 1
 30 70 l 1
 30 90 l 1
 90 90 l 1
 90 80 l 1
80 20 m 1
 80 40 l 1
 40 40 l 1
 40 20 l 1
 80 20 l 1
EndSplineSet
EndChar

StartChar: aring
Encoding: 229 229 327
Width: 110
GlyphClass: 1
Flags: W
LayerCount: 2
Fore
SplineSet
90 80 m 1
 100 80 l 1
 100 0 l 1
 30 0 l 1
 30 10 l 1
 20 10 l 1
 20 50 l 1
 30 50 l 1
 30 60 l 1
 80 60 l 1
 80 70 l 1
 30 70 l 1
 30 90 l 1
 40 90 l 1
 40 100 l 1
 30 100 l 1
 30 110 l 1
 40 110 l 1
 40 120 l 1
 70 120 l 1
 70 110 l 1
 80 110 l 1
 80 100 l 1
 70 100 l 1
 70 90 l 1
 90 90 l 1
 90 80 l 1
50 110 m 1
 50 100 l 1
 60 100 l 1
 60 110 l 1
 50 110 l 1
80 20 m 1
 80 40 l 1
 40 40 l 1
 40 20 l 1
 80 20 l 1
EndSplineSet
EndChar

StartChar: ae
Encoding: 230 230 328
Width: 110
GlyphClass: 1
Flags: W
LayerCount: 2
Fore
SplineSet
60 80 m 1
 70 80 l 1
 70 90 l 1
 100 90 l 1
 100 80 l 1
 110 80 l 1
 110 40 l 1
 80 40 l 1
 80 20 l 1
 110 20 l 1
 110 0 l 1
 30 0 l 1
 30 10 l 1
 20 10 l 1
 20 50 l 1
 30 50 l 1
 30 60 l 1
 60 60 l 1
 60 70 l 1
 20 70 l 1
 20 90 l 1
 60 90 l 1
 60 80 l 1
80 60 m 1
 100 60 l 1
 100 70 l 1
 80 70 l 1
 80 60 l 1
60 20 m 1
 60 40 l 1
 40 40 l 1
 40 20 l 1
 60 20 l 1
EndSplineSet
EndChar

StartChar: ccedilla
Encoding: 231 231 329
Width: 110
GlyphClass: 1
Flags: W
LayerCount: 2
Fore
SplineSet
20 20 m 1
 20 80 l 1
 30 80 l 1
 30 90 l 1
 90 90 l 1
 90 80 l 1
 100 80 l 1
 100 60 l 1
 80 60 l 1
 80 70 l 1
 40 70 l 1
 40 30 l 1
 80 30 l 1
 80 40 l 1
 100 40 l 1
 100 20 l 1
 90 20 l 1
 90 10 l 1
 70 10 l 1
 70 0 l 1
 60 0 l 1
 60 -10 l 1
 30 -10 l 1
 30 0 l 1
 50 0 l 1
 50 10 l 1
 30 10 l 1
 30 20 l 1
 20 20 l 1
EndSplineSet
EndChar

StartChar: egrave
Encoding: 232 232 330
Width: 110
GlyphClass: 1
Flags: W
LayerCount: 2
Fore
SplineSet
80 100 m 1
 50 100 l 1
 50 110 l 1
 30 110 l 1
 30 120 l 1
 60 120 l 1
 60 110 l 1
 80 110 l 1
 80 100 l 1
20 10 m 1
 20 80 l 1
 30 80 l 1
 30 90 l 1
 90 90 l 1
 90 80 l 1
 100 80 l 1
 100 40 l 1
 40 40 l 1
 40 20 l 1
 80 20 l 1
 80 30 l 1
 100 30 l 1
 100 10 l 1
 90 10 l 1
 90 0 l 1
 30 0 l 1
 30 10 l 1
 20 10 l 1
40 60 m 1
 80 60 l 1
 80 70 l 1
 40 70 l 1
 40 60 l 1
EndSplineSet
EndChar

StartChar: eacute
Encoding: 233 233 331
Width: 110
GlyphClass: 1
Flags: W
LayerCount: 2
Fore
SplineSet
40 100 m 1
 40 110 l 1
 60 110 l 1
 60 120 l 1
 90 120 l 1
 90 110 l 1
 70 110 l 1
 70 100 l 1
 40 100 l 1
20 10 m 1
 20 80 l 1
 30 80 l 1
 30 90 l 1
 90 90 l 1
 90 80 l 1
 100 80 l 1
 100 40 l 1
 40 40 l 1
 40 20 l 1
 80 20 l 1
 80 30 l 1
 100 30 l 1
 100 10 l 1
 90 10 l 1
 90 0 l 1
 30 0 l 1
 30 10 l 1
 20 10 l 1
40 60 m 1
 80 60 l 1
 80 70 l 1
 40 70 l 1
 40 60 l 1
EndSplineSet
EndChar

StartChar: ecircumflex
Encoding: 234 234 332
Width: 110
GlyphClass: 1
Flags: W
LayerCount: 2
Fore
SplineSet
70 100 m 1
 70 110 l 1
 50 110 l 1
 50 100 l 1
 30 100 l 1
 30 110 l 1
 40 110 l 1
 40 120 l 1
 80 120 l 1
 80 110 l 1
 90 110 l 1
 90 100 l 1
 70 100 l 1
20 10 m 1
 20 80 l 1
 30 80 l 1
 30 90 l 1
 90 90 l 1
 90 80 l 1
 100 80 l 1
 100 40 l 1
 40 40 l 1
 40 20 l 1
 80 20 l 1
 80 30 l 1
 100 30 l 1
 100 10 l 1
 90 10 l 1
 90 0 l 1
 30 0 l 1
 30 10 l 1
 20 10 l 1
40 60 m 1
 80 60 l 1
 80 70 l 1
 40 70 l 1
 40 60 l 1
EndSplineSet
EndChar

StartChar: edieresis
Encoding: 235 235 333
Width: 110
GlyphClass: 1
Flags: W
LayerCount: 2
Fore
SplineSet
30 100 m 1
 30 120 l 1
 50 120 l 1
 50 100 l 1
 30 100 l 1
60 100 m 1
 60 120 l 1
 80 120 l 1
 80 100 l 1
 60 100 l 1
20 10 m 1
 20 80 l 1
 30 80 l 1
 30 90 l 1
 90 90 l 1
 90 80 l 1
 100 80 l 1
 100 40 l 1
 40 40 l 1
 40 20 l 1
 80 20 l 1
 80 30 l 1
 100 30 l 1
 100 10 l 1
 90 10 l 1
 90 0 l 1
 30 0 l 1
 30 10 l 1
 20 10 l 1
40 60 m 1
 80 60 l 1
 80 70 l 1
 40 70 l 1
 40 60 l 1
EndSplineSet
EndChar

StartChar: igrave
Encoding: 236 236 334
Width: 110
GlyphClass: 1
Flags: W
LayerCount: 2
Fore
SplineSet
90 100 m 1
 60 100 l 1
 60 110 l 1
 40 110 l 1
 40 120 l 1
 70 120 l 1
 70 110 l 1
 90 110 l 1
 90 100 l 1
40 70 m 1
 40 90 l 1
 80 90 l 1
 80 20 l 1
 100 20 l 1
 100 0 l 1
 40 0 l 1
 40 20 l 1
 60 20 l 1
 60 70 l 1
 40 70 l 1
EndSplineSet
EndChar

StartChar: iacute
Encoding: 237 237 335
Width: 110
GlyphClass: 1
Flags: W
LayerCount: 2
Fore
SplineSet
50 100 m 1
 50 110 l 1
 70 110 l 1
 70 120 l 1
 100 120 l 1
 100 110 l 1
 80 110 l 1
 80 100 l 1
 50 100 l 1
40 70 m 1
 40 90 l 1
 80 90 l 1
 80 20 l 1
 100 20 l 1
 100 0 l 1
 40 0 l 1
 40 20 l 1
 60 20 l 1
 60 70 l 1
 40 70 l 1
EndSplineSet
EndChar

StartChar: icircumflex
Encoding: 238 238 336
Width: 110
GlyphClass: 1
Flags: W
LayerCount: 2
Fore
SplineSet
80 100 m 1
 80 110 l 1
 60 110 l 1
 60 100 l 1
 40 100 l 1
 40 110 l 1
 50 110 l 1
 50 120 l 1
 90 120 l 1
 90 110 l 1
 100 110 l 1
 100 100 l 1
 80 100 l 1
40 70 m 1
 40 90 l 1
 80 90 l 1
 80 20 l 1
 100 20 l 1
 100 0 l 1
 40 0 l 1
 40 20 l 1
 60 20 l 1
 60 70 l 1
 40 70 l 1
EndSplineSet
EndChar

StartChar: idieresis
Encoding: 239 239 337
Width: 110
GlyphClass: 1
Flags: W
LayerCount: 2
Fore
SplineSet
40 100 m 1
 40 120 l 1
 60 120 l 1
 60 100 l 1
 40 100 l 1
80 100 m 1
 80 120 l 1
 100 120 l 1
 100 100 l 1
 80 100 l 1
40 70 m 1
 40 90 l 1
 80 90 l 1
 80 20 l 1
 100 20 l 1
 100 0 l 1
 40 0 l 1
 40 20 l 1
 60 20 l 1
 60 70 l 1
 40 70 l 1
EndSplineSet
EndChar

StartChar: eth
Encoding: 240 240 338
Width: 110
GlyphClass: 1
Flags: W
LayerCount: 2
Fore
SplineSet
20 20 m 1
 20 60 l 1
 30 60 l 1
 30 70 l 1
 40 70 l 1
 40 80 l 1
 70 80 l 1
 70 90 l 1
 60 90 l 1
 60 100 l 1
 50 100 l 1
 50 90 l 1
 30 90 l 1
 30 100 l 1
 40 100 l 1
 40 110 l 1
 30 110 l 1
 30 120 l 1
 50 120 l 1
 50 110 l 1
 60 110 l 1
 60 120 l 1
 80 120 l 1
 80 110 l 1
 70 110 l 1
 70 100 l 1
 80 100 l 1
 80 90 l 1
 90 90 l 1
 90 70 l 1
 100 70 l 1
 100 20 l 1
 90 20 l 1
 90 10 l 1
 80 10 l 1
 80 0 l 1
 40 0 l 1
 40 10 l 1
 30 10 l 1
 30 20 l 1
 20 20 l 1
50 20 m 1
 70 20 l 1
 70 30 l 1
 80 30 l 1
 80 50 l 1
 70 50 l 1
 70 60 l 1
 50 60 l 1
 50 50 l 1
 40 50 l 1
 40 30 l 1
 50 30 l 1
 50 20 l 1
EndSplineSet
EndChar

StartChar: ntilde
Encoding: 241 241 339
Width: 110
GlyphClass: 1
Flags: W
LayerCount: 2
Fore
SplineSet
60 100 m 1
 60 110 l 1
 50 110 l 1
 50 100 l 1
 30 100 l 1
 30 110 l 1
 40 110 l 1
 40 120 l 1
 70 120 l 1
 70 110 l 1
 80 110 l 1
 80 120 l 1
 100 120 l 1
 100 110 l 1
 90 110 l 1
 90 100 l 1
 60 100 l 1
100 0 m 1
 80 0 l 1
 80 70 l 1
 50 70 l 1
 50 60 l 1
 40 60 l 1
 40 0 l 1
 20 0 l 1
 20 90 l 1
 40 90 l 1
 40 80 l 1
 50 80 l 1
 50 90 l 1
 90 90 l 1
 90 80 l 1
 100 80 l 1
 100 0 l 1
EndSplineSet
EndChar

StartChar: ograve
Encoding: 242 242 340
Width: 110
GlyphClass: 1
Flags: W
LayerCount: 2
Fore
SplineSet
80 100 m 1
 50 100 l 1
 50 110 l 1
 30 110 l 1
 30 120 l 1
 60 120 l 1
 60 110 l 1
 80 110 l 1
 80 100 l 1
20 10 m 1
 20 80 l 1
 30 80 l 1
 30 90 l 1
 90 90 l 1
 90 80 l 1
 100 80 l 1
 100 10 l 1
 90 10 l 1
 90 0 l 1
 30 0 l 1
 30 10 l 1
 20 10 l 1
40 20 m 1
 80 20 l 1
 80 70 l 1
 40 70 l 1
 40 20 l 1
EndSplineSet
EndChar

StartChar: oacute
Encoding: 243 243 341
Width: 110
GlyphClass: 1
Flags: W
LayerCount: 2
Fore
SplineSet
40 100 m 5
 40 110 l 5
 60 110 l 5
 60 120 l 5
 90 120 l 5
 90 110 l 5
 70 110 l 5
 70 100 l 5
 40 100 l 5
20 10 m 1
 20 80 l 1
 30 80 l 1
 30 90 l 1
 90 90 l 1
 90 80 l 1
 100 80 l 1
 100 10 l 1
 90 10 l 1
 90 0 l 1
 30 0 l 1
 30 10 l 1
 20 10 l 1
40 20 m 1
 80 20 l 1
 80 70 l 1
 40 70 l 1
 40 20 l 1
EndSplineSet
EndChar

StartChar: ocircumflex
Encoding: 244 244 342
Width: 110
GlyphClass: 1
Flags: W
LayerCount: 2
Fore
SplineSet
70 100 m 1
 70 110 l 1
 50 110 l 1
 50 100 l 1
 30 100 l 1
 30 110 l 1
 40 110 l 1
 40 120 l 1
 80 120 l 1
 80 110 l 1
 90 110 l 1
 90 100 l 1
 70 100 l 1
20 10 m 1
 20 80 l 1
 30 80 l 1
 30 90 l 1
 90 90 l 1
 90 80 l 1
 100 80 l 1
 100 10 l 1
 90 10 l 1
 90 0 l 1
 30 0 l 1
 30 10 l 1
 20 10 l 1
40 20 m 1
 80 20 l 1
 80 70 l 1
 40 70 l 1
 40 20 l 1
EndSplineSet
EndChar

StartChar: otilde
Encoding: 245 245 343
Width: 110
GlyphClass: 1
Flags: W
LayerCount: 2
Fore
SplineSet
60 100 m 1
 60 110 l 1
 50 110 l 1
 50 100 l 1
 30 100 l 1
 30 110 l 1
 40 110 l 1
 40 120 l 1
 70 120 l 1
 70 110 l 1
 80 110 l 1
 80 120 l 1
 100 120 l 1
 100 110 l 1
 90 110 l 1
 90 100 l 1
 60 100 l 1
20 10 m 1
 20 80 l 1
 30 80 l 1
 30 90 l 1
 90 90 l 1
 90 80 l 1
 100 80 l 1
 100 10 l 1
 90 10 l 1
 90 0 l 1
 30 0 l 1
 30 10 l 1
 20 10 l 1
40 20 m 1
 80 20 l 1
 80 70 l 1
 40 70 l 1
 40 20 l 1
EndSplineSet
EndChar

StartChar: odieresis
Encoding: 246 246 344
Width: 110
GlyphClass: 1
Flags: W
LayerCount: 2
Fore
SplineSet
30 100 m 5
 30 120 l 5
 50 120 l 5
 50 100 l 5
 30 100 l 5
70 100 m 5
 70 120 l 5
 90 120 l 5
 90 100 l 5
 70 100 l 5
20 10 m 1
 20 80 l 1
 30 80 l 1
 30 90 l 1
 90 90 l 1
 90 80 l 1
 100 80 l 1
 100 10 l 1
 90 10 l 1
 90 0 l 1
 30 0 l 1
 30 10 l 1
 20 10 l 1
40 20 m 1
 80 20 l 1
 80 70 l 1
 40 70 l 1
 40 20 l 1
EndSplineSet
EndChar

StartChar: oslash
Encoding: 248 248 345
Width: 110
GlyphClass: 1
Flags: W
LayerCount: 2
Fore
SplineSet
30 10 m 1
 30 0 l 1
 20 0 l 1
 20 20 l 1
 30 20 l 1
 30 30 l 1
 20 30 l 1
 20 80 l 1
 30 80 l 1
 30 90 l 1
 80 90 l 1
 80 80 l 1
 90 80 l 1
 90 90 l 1
 100 90 l 1
 100 70 l 1
 90 70 l 1
 90 60 l 1
 100 60 l 1
 100 10 l 1
 90 10 l 1
 90 0 l 1
 40 0 l 1
 40 10 l 1
 30 10 l 1
40 40 m 1
 50 40 l 1
 50 50 l 1
 60 50 l 1
 60 60 l 1
 70 60 l 1
 70 70 l 1
 40 70 l 1
 40 40 l 1
70 50 m 1
 70 40 l 1
 60 40 l 1
 60 30 l 1
 50 30 l 1
 50 20 l 1
 80 20 l 1
 80 50 l 1
 70 50 l 1
EndSplineSet
EndChar

StartChar: ugrave
Encoding: 249 249 346
Width: 110
GlyphClass: 1
Flags: W
LayerCount: 2
Fore
SplineSet
80 100 m 1
 50 100 l 1
 50 110 l 1
 30 110 l 1
 30 120 l 1
 60 120 l 1
 60 110 l 1
 80 110 l 1
 80 100 l 1
20 90 m 1
 40 90 l 1
 40 20 l 1
 70 20 l 1
 70 30 l 1
 80 30 l 1
 80 90 l 1
 100 90 l 1
 100 0 l 1
 80 0 l 1
 80 10 l 1
 70 10 l 1
 70 0 l 1
 30 0 l 1
 30 10 l 1
 20 10 l 1
 20 90 l 1
EndSplineSet
EndChar

StartChar: uacute
Encoding: 250 250 347
Width: 110
GlyphClass: 1
Flags: W
LayerCount: 2
Fore
SplineSet
40 100 m 1
 40 110 l 1
 60 110 l 1
 60 120 l 1
 90 120 l 1
 90 110 l 1
 70 110 l 1
 70 100 l 1
 40 100 l 1
20 90 m 1
 40 90 l 1
 40 20 l 1
 70 20 l 1
 70 30 l 1
 80 30 l 1
 80 90 l 1
 100 90 l 1
 100 0 l 1
 80 0 l 1
 80 10 l 1
 70 10 l 1
 70 0 l 1
 30 0 l 1
 30 10 l 1
 20 10 l 1
 20 90 l 1
EndSplineSet
EndChar

StartChar: ucircumflex
Encoding: 251 251 348
Width: 110
GlyphClass: 1
Flags: W
LayerCount: 2
Fore
SplineSet
70 100 m 1
 70 110 l 1
 50 110 l 1
 50 100 l 1
 30 100 l 1
 30 110 l 1
 40 110 l 1
 40 120 l 1
 80 120 l 1
 80 110 l 1
 90 110 l 1
 90 100 l 1
 70 100 l 1
20 90 m 1
 40 90 l 1
 40 20 l 1
 70 20 l 1
 70 30 l 1
 80 30 l 1
 80 90 l 1
 100 90 l 1
 100 0 l 1
 80 0 l 1
 80 10 l 1
 70 10 l 1
 70 0 l 1
 30 0 l 1
 30 10 l 1
 20 10 l 1
 20 90 l 1
EndSplineSet
EndChar

StartChar: udieresis
Encoding: 252 252 349
Width: 110
GlyphClass: 1
Flags: W
LayerCount: 2
Fore
SplineSet
30 100 m 1
 30 120 l 1
 50 120 l 1
 50 100 l 1
 30 100 l 1
70 100 m 1
 70 120 l 1
 90 120 l 1
 90 100 l 1
 70 100 l 1
20 90 m 1
 40 90 l 1
 40 20 l 1
 70 20 l 1
 70 30 l 1
 80 30 l 1
 80 90 l 1
 100 90 l 1
 100 0 l 1
 80 0 l 1
 80 10 l 1
 70 10 l 1
 70 0 l 1
 30 0 l 1
 30 10 l 1
 20 10 l 1
 20 90 l 1
EndSplineSet
EndChar

StartChar: yacute
Encoding: 253 253 350
Width: 110
GlyphClass: 1
Flags: W
LayerCount: 2
Fore
SplineSet
40 100 m 1
 40 110 l 1
 60 110 l 1
 60 120 l 1
 90 120 l 1
 90 110 l 1
 70 110 l 1
 70 100 l 1
 40 100 l 1
20 70 m 1
 20 90 l 1
 40 90 l 1
 40 70 l 1
 50 70 l 1
 50 50 l 1
 70 50 l 1
 70 70 l 1
 80 70 l 1
 80 90 l 1
 100 90 l 1
 100 70 l 1
 90 70 l 1
 90 50 l 1
 80 50 l 1
 80 30 l 1
 70 30 l 1
 70 10 l 1
 60 10 l 1
 60 0 l 1
 50 0 l 1
 50 -10 l 1
 20 -10 l 1
 20 10 l 1
 40 10 l 1
 40 20 l 1
 50 20 l 1
 50 30 l 1
 40 30 l 1
 40 50 l 1
 30 50 l 1
 30 70 l 1
 20 70 l 1
EndSplineSet
EndChar

StartChar: thorn
Encoding: 254 254 351
Width: 110
GlyphClass: 1
Flags: W
LayerCount: 2
Fore
SplineSet
60 -10 m 1
 40 -10 l 1
 40 120 l 1
 60 120 l 1
 60 80 l 1
 70 80 l 1
 70 90 l 1
 110 90 l 1
 110 80 l 1
 120 80 l 1
 120 20 l 1
 110 20 l 1
 110 10 l 1
 70 10 l 1
 70 20 l 1
 60 20 l 1
 60 -10 l 1
100 70 m 1
 70 70 l 1
 70 60 l 1
 60 60 l 1
 60 40 l 1
 70 40 l 1
 70 30 l 1
 100 30 l 1
 100 70 l 1
EndSplineSet
EndChar

StartChar: germandbls
Encoding: 223 223 352
Width: 110
GlyphClass: 1
Flags: W
LayerCount: 2
Fore
SplineSet
20 0 m 1
 20 110 l 1
 30 110 l 1
 30 120 l 1
 80 120 l 1
 80 110 l 1
 90 110 l 1
 90 70 l 1
 80 70 l 1
 80 60 l 1
 90 60 l 1
 90 50 l 1
 100 50 l 1
 100 10 l 1
 90 10 l 1
 90 0 l 1
 50 0 l 1
 50 20 l 1
 80 20 l 1
 80 40 l 1
 70 40 l 1
 70 50 l 1
 50 50 l 1
 50 70 l 1
 60 70 l 1
 60 80 l 1
 70 80 l 1
 70 100 l 1
 40 100 l 1
 40 0 l 1
 20 0 l 1
EndSplineSet
EndChar

StartChar: ydieresis
Encoding: 255 255 353
Width: 110
GlyphClass: 1
Flags: W
LayerCount: 2
Fore
SplineSet
30 100 m 1
 30 120 l 1
 50 120 l 1
 50 100 l 1
 30 100 l 1
70 100 m 1
 70 120 l 1
 90 120 l 1
 90 100 l 1
 70 100 l 1
20 70 m 1
 20 90 l 1
 40 90 l 1
 40 70 l 1
 50 70 l 1
 50 50 l 1
 70 50 l 1
 70 70 l 1
 80 70 l 1
 80 90 l 1
 100 90 l 1
 100 70 l 1
 90 70 l 1
 90 50 l 1
 80 50 l 1
 80 30 l 1
 70 30 l 1
 70 10 l 1
 60 10 l 1
 60 0 l 1
 50 0 l 1
 50 -10 l 1
 20 -10 l 1
 20 10 l 1
 40 10 l 1
 40 20 l 1
 50 20 l 1
 50 30 l 1
 40 30 l 1
 40 50 l 1
 30 50 l 1
 30 70 l 1
 20 70 l 1
EndSplineSet
EndChar

StartChar: abreve
Encoding: 259 259 354
Width: 110
GlyphClass: 1
Flags: W
LayerCount: 2
Fore
SplineSet
70 120 m 1
 90 120 l 1
 90 110 l 1
 80 110 l 1
 80 100 l 1
 40 100 l 1
 40 110 l 1
 30 110 l 1
 30 120 l 1
 50 120 l 1
 50 110 l 1
 70 110 l 1
 70 120 l 1
90 80 m 1
 100 80 l 1
 100 0 l 1
 30 0 l 1
 30 10 l 1
 20 10 l 1
 20 50 l 1
 30 50 l 1
 30 60 l 1
 80 60 l 1
 80 70 l 1
 30 70 l 1
 30 90 l 1
 90 90 l 1
 90 80 l 1
80 20 m 1
 80 40 l 1
 40 40 l 1
 40 20 l 1
 80 20 l 1
EndSplineSet
EndChar

StartChar: aogonek
Encoding: 261 261 355
Width: 110
GlyphClass: 1
Flags: W
LayerCount: 2
Fore
SplineSet
60 0 m 1
 60 10 l 1
 10 10 l 1
 10 20 l 1
 0 20 l 1
 0 60 l 1
 10 60 l 1
 10 70 l 1
 60 70 l 1
 60 80 l 1
 10 80 l 1
 10 100 l 1
 70 100 l 1
 70 90 l 1
 80 90 l 1
 80 0 l 1
 100 0 l 1
 100 -10 l 1
 70 -10 l 1
 70 0 l 1
 60 0 l 1
60 30 m 1
 60 50 l 1
 20 50 l 1
 20 30 l 1
 60 30 l 1
EndSplineSet
EndChar

StartChar: cacute
Encoding: 263 263 356
Width: 110
GlyphClass: 1
Flags: W
LayerCount: 2
Fore
SplineSet
40 100 m 1
 40 110 l 1
 60 110 l 1
 60 120 l 1
 90 120 l 1
 90 110 l 1
 70 110 l 1
 70 100 l 1
 40 100 l 1
20 10 m 5
 20 80 l 5
 30 80 l 5
 30 90 l 5
 90 90 l 5
 90 80 l 5
 100 80 l 5
 100 60 l 5
 80 60 l 5
 80 70 l 5
 40 70 l 5
 40 20 l 5
 80 20 l 5
 80 30 l 5
 100 30 l 5
 100 10 l 5
 90 10 l 5
 90 0 l 5
 30 0 l 5
 30 10 l 5
 20 10 l 5
EndSplineSet
EndChar

StartChar: oe
Encoding: 339 339 357
Width: 110
GlyphClass: 1
Flags: W
LayerCount: 2
Fore
SplineSet
0 10 m 1
 0 80 l 1
 10 80 l 1
 10 90 l 1
 40 90 l 1
 40 80 l 1
 50 80 l 1
 50 90 l 1
 90 90 l 1
 90 80 l 1
 100 80 l 1
 100 40 l 1
 60 40 l 1
 60 20 l 1
 80 20 l 1
 80 30 l 1
 100 30 l 1
 100 10 l 1
 90 10 l 1
 90 0 l 1
 50 0 l 1
 50 10 l 1
 40 10 l 1
 40 0 l 1
 10 0 l 1
 10 10 l 1
 0 10 l 1
20 20 m 1
 40 20 l 1
 40 70 l 1
 20 70 l 1
 20 20 l 1
60 60 m 1
 80 60 l 1
 80 70 l 1
 60 70 l 1
 60 60 l 1
EndSplineSet
EndChar

StartChar: ccaron
Encoding: 269 269 358
Width: 110
GlyphClass: 1
Flags: W
LayerCount: 2
Fore
SplineSet
70 120 m 1
 90 120 l 1
 90 110 l 1
 80 110 l 1
 80 100 l 1
 40 100 l 1
 40 110 l 1
 30 110 l 1
 30 120 l 1
 50 120 l 1
 50 110 l 1
 70 110 l 1
 70 120 l 1
20 10 m 1
 20 80 l 1
 30 80 l 1
 30 90 l 1
 90 90 l 1
 90 80 l 1
 100 80 l 1
 100 60 l 1
 80 60 l 1
 80 70 l 1
 40 70 l 1
 40 20 l 1
 80 20 l 1
 80 30 l 1
 100 30 l 1
 100 10 l 1
 90 10 l 1
 90 0 l 1
 30 0 l 1
 30 10 l 1
 20 10 l 1
EndSplineSet
EndChar

StartChar: dcaron
Encoding: 271 271 359
Width: 110
GlyphClass: 1
Flags: W
LayerCount: 2
Fore
SplineSet
50 120 m 1
 70 120 l 1
 70 0 l 1
 10 0 l 1
 10 10 l 1
 0 10 l 1
 0 80 l 1
 10 80 l 1
 10 90 l 1
 50 90 l 1
 50 120 l 1
90 80 m 1
 80 80 l 1
 80 120 l 1
 100 120 l 1
 100 90 l 1
 90 90 l 1
 90 80 l 1
20 20 m 1
 50 20 l 1
 50 70 l 1
 20 70 l 1
 20 20 l 1
EndSplineSet
EndChar

StartChar: eogonek
Encoding: 281 281 360
Width: 110
GlyphClass: 1
Flags: W
LayerCount: 2
Fore
SplineSet
20 20 m 1
 20 90 l 1
 30 90 l 1
 30 100 l 1
 90 100 l 1
 90 90 l 1
 100 90 l 1
 100 50 l 1
 40 50 l 1
 40 30 l 1
 80 30 l 1
 80 40 l 1
 100 40 l 1
 100 20 l 1
 90 20 l 1
 90 10 l 1
 70 10 l 1
 70 0 l 1
 90 0 l 1
 90 -10 l 1
 60 -10 l 1
 60 0 l 1
 50 0 l 1
 50 10 l 1
 30 10 l 1
 30 20 l 1
 20 20 l 1
40 70 m 1
 80 70 l 1
 80 80 l 1
 40 80 l 1
 40 70 l 1
EndSplineSet
EndChar

StartChar: ecaron
Encoding: 283 283 361
Width: 110
GlyphClass: 1
Flags: W
LayerCount: 2
Fore
SplineSet
70 120 m 1
 90 120 l 1
 90 110 l 1
 80 110 l 1
 80 100 l 1
 40 100 l 1
 40 110 l 1
 30 110 l 1
 30 120 l 1
 50 120 l 1
 50 110 l 1
 70 110 l 1
 70 120 l 1
20 10 m 1
 20 80 l 1
 30 80 l 1
 30 90 l 1
 90 90 l 1
 90 80 l 1
 100 80 l 1
 100 40 l 1
 40 40 l 1
 40 20 l 1
 80 20 l 1
 80 30 l 1
 100 30 l 1
 100 10 l 1
 90 10 l 1
 90 0 l 1
 30 0 l 1
 30 10 l 1
 20 10 l 1
40 60 m 1
 80 60 l 1
 80 70 l 1
 40 70 l 1
 40 60 l 1
EndSplineSet
EndChar

StartChar: lslash
Encoding: 322 322 362
Width: 110
GlyphClass: 1
Flags: W
LayerCount: 2
Fore
SplineSet
50 50 m 1
 50 40 l 1
 40 40 l 1
 40 60 l 1
 50 60 l 1
 50 70 l 1
 60 70 l 1
 60 100 l 1
 40 100 l 1
 40 120 l 1
 80 120 l 1
 80 90 l 1
 90 90 l 1
 90 100 l 1
 100 100 l 1
 100 80 l 1
 90 80 l 1
 90 70 l 1
 80 70 l 1
 80 20 l 1
 100 20 l 1
 100 0 l 1
 40 0 l 1
 40 20 l 1
 60 20 l 1
 60 50 l 1
 50 50 l 1
EndSplineSet
EndChar

StartChar: nacute
Encoding: 324 324 363
Width: 110
GlyphClass: 1
Flags: W
LayerCount: 2
Fore
SplineSet
40 100 m 1
 40 110 l 1
 60 110 l 1
 60 120 l 1
 90 120 l 1
 90 110 l 1
 70 110 l 1
 70 100 l 1
 40 100 l 1
100 0 m 1
 80 0 l 1
 80 70 l 1
 50 70 l 1
 50 60 l 1
 40 60 l 1
 40 0 l 1
 20 0 l 1
 20 90 l 1
 40 90 l 1
 40 80 l 1
 50 80 l 1
 50 90 l 1
 90 90 l 1
 90 80 l 1
 100 80 l 1
 100 0 l 1
EndSplineSet
EndChar

StartChar: ncaron
Encoding: 328 328 364
Width: 110
GlyphClass: 1
Flags: W
LayerCount: 2
Fore
SplineSet
70 120 m 1
 90 120 l 1
 90 110 l 1
 80 110 l 1
 80 100 l 1
 40 100 l 1
 40 110 l 1
 30 110 l 1
 30 120 l 1
 50 120 l 1
 50 110 l 1
 70 110 l 1
 70 120 l 1
100 0 m 1
 80 0 l 1
 80 70 l 1
 50 70 l 1
 50 60 l 1
 40 60 l 1
 40 0 l 1
 20 0 l 1
 20 90 l 1
 40 90 l 1
 40 80 l 1
 50 80 l 1
 50 90 l 1
 90 90 l 1
 90 80 l 1
 100 80 l 1
 100 0 l 1
EndSplineSet
EndChar

StartChar: ohungarumlaut
Encoding: 337 337 365
Width: 110
GlyphClass: 1
Flags: W
LayerCount: 2
Fore
SplineSet
60 100 m 1
 60 110 l 1
 50 110 l 1
 50 100 l 1
 30 100 l 1
 30 110 l 1
 40 110 l 1
 40 120 l 1
 60 120 l 1
 60 110 l 1
 70 110 l 1
 70 120 l 1
 90 120 l 1
 90 110 l 1
 80 110 l 1
 80 100 l 1
 60 100 l 1
20 10 m 1
 20 80 l 1
 30 80 l 1
 30 90 l 1
 90 90 l 1
 90 80 l 1
 100 80 l 1
 100 10 l 1
 90 10 l 1
 90 0 l 1
 30 0 l 1
 30 10 l 1
 20 10 l 1
40 20 m 1
 80 20 l 1
 80 70 l 1
 40 70 l 1
 40 20 l 1
EndSplineSet
EndChar

StartChar: rcaron
Encoding: 345 345 366
Width: 110
GlyphClass: 1
Flags: W
LayerCount: 2
Fore
SplineSet
80 120 m 1
 100 120 l 1
 100 110 l 1
 90 110 l 1
 90 100 l 1
 50 100 l 1
 50 110 l 1
 40 110 l 1
 40 120 l 1
 60 120 l 1
 60 110 l 1
 80 110 l 1
 80 120 l 1
110 70 m 1
 70 70 l 1
 70 60 l 1
 60 60 l 1
 60 0 l 1
 40 0 l 1
 40 90 l 1
 60 90 l 1
 60 80 l 1
 70 80 l 1
 70 90 l 1
 110 90 l 1
 110 70 l 1
EndSplineSet
EndChar

StartChar: sacute
Encoding: 347 347 367
Width: 110
GlyphClass: 1
Flags: W
LayerCount: 2
Fore
SplineSet
40 100 m 1
 40 110 l 1
 60 110 l 1
 60 120 l 1
 90 120 l 1
 90 110 l 1
 70 110 l 1
 70 100 l 1
 40 100 l 1
20 10 m 1
 20 30 l 1
 40 30 l 1
 40 20 l 1
 80 20 l 1
 80 30 l 1
 60 30 l 1
 60 40 l 1
 30 40 l 1
 30 50 l 1
 20 50 l 1
 20 80 l 1
 30 80 l 1
 30 90 l 1
 90 90 l 1
 90 80 l 1
 100 80 l 1
 100 60 l 1
 80 60 l 1
 80 70 l 1
 40 70 l 1
 40 60 l 1
 70 60 l 1
 70 50 l 1
 90 50 l 1
 90 40 l 1
 100 40 l 1
 100 10 l 1
 90 10 l 1
 90 0 l 1
 30 0 l 1
 30 10 l 1
 20 10 l 1
EndSplineSet
EndChar

StartChar: scaron
Encoding: 353 353 368
Width: 110
GlyphClass: 1
Flags: W
LayerCount: 2
Fore
SplineSet
70 120 m 1
 90 120 l 1
 90 110 l 1
 80 110 l 1
 80 100 l 1
 40 100 l 1
 40 110 l 1
 30 110 l 1
 30 120 l 1
 50 120 l 1
 50 110 l 1
 70 110 l 1
 70 120 l 1
20 10 m 1
 20 30 l 1
 40 30 l 1
 40 20 l 1
 80 20 l 1
 80 30 l 1
 60 30 l 1
 60 40 l 1
 30 40 l 1
 30 50 l 1
 20 50 l 1
 20 80 l 1
 30 80 l 1
 30 90 l 1
 90 90 l 1
 90 80 l 1
 100 80 l 1
 100 60 l 1
 80 60 l 1
 80 70 l 1
 40 70 l 1
 40 60 l 1
 70 60 l 1
 70 50 l 1
 90 50 l 1
 90 40 l 1
 100 40 l 1
 100 10 l 1
 90 10 l 1
 90 0 l 1
 30 0 l 1
 30 10 l 1
 20 10 l 1
EndSplineSet
EndChar

StartChar: tcaron
Encoding: 357 357 369
Width: 110
GlyphClass: 1
Flags: W
LayerCount: 2
Fore
SplineSet
90 80 m 1
 80 80 l 1
 80 120 l 1
 100 120 l 1
 100 90 l 1
 90 90 l 1
 90 80 l 1
0 90 m 1
 20 90 l 1
 20 110 l 1
 40 110 l 1
 40 90 l 1
 70 90 l 1
 70 70 l 1
 40 70 l 1
 40 20 l 1
 70 20 l 1
 70 0 l 1
 30 0 l 1
 30 10 l 1
 20 10 l 1
 20 70 l 1
 0 70 l 1
 0 90 l 1
EndSplineSet
EndChar

StartChar: uring
Encoding: 367 367 370
Width: 110
GlyphClass: 1
Flags: W
LayerCount: 2
Fore
SplineSet
40 120 m 1
 70 120 l 1
 70 110 l 1
 80 110 l 1
 80 100 l 1
 70 100 l 1
 70 90 l 1
 40 90 l 1
 40 100 l 1
 30 100 l 1
 30 110 l 1
 40 110 l 1
 40 120 l 1
50 110 m 1
 50 100 l 1
 60 100 l 1
 60 110 l 1
 50 110 l 1
20 90 m 1
 40 90 l 1
 40 20 l 1
 70 20 l 1
 70 30 l 1
 80 30 l 1
 80 90 l 1
 100 90 l 1
 100 0 l 1
 80 0 l 1
 80 10 l 1
 70 10 l 1
 70 0 l 1
 30 0 l 1
 30 10 l 1
 20 10 l 1
 20 90 l 1
EndSplineSet
EndChar

StartChar: uhungarumlaut
Encoding: 369 369 371
Width: 110
GlyphClass: 1
Flags: W
LayerCount: 2
Fore
SplineSet
60 100 m 1
 60 110 l 1
 50 110 l 1
 50 100 l 1
 30 100 l 1
 30 110 l 1
 40 110 l 1
 40 120 l 1
 60 120 l 1
 60 110 l 1
 70 110 l 1
 70 120 l 1
 90 120 l 1
 90 110 l 1
 80 110 l 1
 80 100 l 1
 60 100 l 1
20 90 m 1
 40 90 l 1
 40 20 l 1
 70 20 l 1
 70 30 l 1
 80 30 l 1
 80 90 l 1
 100 90 l 1
 100 0 l 1
 80 0 l 1
 80 10 l 1
 70 10 l 1
 70 0 l 1
 30 0 l 1
 30 10 l 1
 20 10 l 1
 20 90 l 1
EndSplineSet
EndChar

StartChar: zacute
Encoding: 378 378 372
Width: 110
GlyphClass: 1
Flags: W
LayerCount: 2
Fore
SplineSet
40 100 m 1
 40 110 l 1
 60 110 l 1
 60 120 l 1
 90 120 l 1
 90 110 l 1
 70 110 l 1
 70 100 l 1
 40 100 l 1
20 70 m 1
 20 90 l 1
 100 90 l 1
 100 70 l 1
 90 70 l 1
 90 60 l 1
 80 60 l 1
 80 50 l 1
 70 50 l 1
 70 40 l 1
 60 40 l 1
 60 30 l 1
 50 30 l 1
 50 20 l 1
 100 20 l 1
 100 0 l 1
 20 0 l 1
 20 30 l 1
 30 30 l 1
 30 40 l 1
 40 40 l 1
 40 50 l 1
 50 50 l 1
 50 60 l 1
 60 60 l 1
 60 70 l 1
 20 70 l 1
EndSplineSet
EndChar

StartChar: zdotaccent
Encoding: 380 380 373
Width: 110
GlyphClass: 1
Flags: W
LayerCount: 2
Fore
SplineSet
50 100 m 1
 50 120 l 1
 70 120 l 1
 70 100 l 1
 50 100 l 1
20 70 m 1
 20 90 l 1
 100 90 l 1
 100 70 l 1
 90 70 l 1
 90 60 l 1
 80 60 l 1
 80 50 l 1
 70 50 l 1
 70 40 l 1
 60 40 l 1
 60 30 l 1
 50 30 l 1
 50 20 l 1
 100 20 l 1
 100 0 l 1
 20 0 l 1
 20 30 l 1
 30 30 l 1
 30 40 l 1
 40 40 l 1
 40 50 l 1
 50 50 l 1
 50 60 l 1
 60 60 l 1
 60 70 l 1
 20 70 l 1
EndSplineSet
EndChar

StartChar: Lacute
Encoding: 313 313 374
Width: 110
GlyphClass: 1
Flags: W
LayerCount: 2
Fore
SplineSet
20 100 m 1
 20 110 l 1
 40 110 l 1
 40 120 l 1
 70 120 l 1
 70 110 l 1
 50 110 l 1
 50 100 l 1
 20 100 l 1
20 0 m 1
 20 90 l 1
 40 90 l 1
 40 20 l 1
 100 20 l 1
 100 0 l 1
 20 0 l 1
EndSplineSet
EndChar

StartChar: Lcaron
Encoding: 317 317 375
Width: 110
GlyphClass: 1
Flags: W
LayerCount: 2
Fore
SplineSet
70 80 m 1
 60 80 l 1
 60 120 l 1
 80 120 l 1
 80 90 l 1
 70 90 l 1
 70 80 l 1
20 0 m 1
 20 120 l 1
 40 120 l 1
 40 20 l 1
 100 20 l 1
 100 0 l 1
 20 0 l 1
EndSplineSet
EndChar

StartChar: Racute
Encoding: 340 340 376
Width: 110
GlyphClass: 1
Flags: W
LayerCount: 2
Fore
SplineSet
20 0 m 1
 20 100 l 1
 40 100 l 1
 40 110 l 1
 60 110 l 1
 60 120 l 1
 90 120 l 1
 90 110 l 1
 70 110 l 1
 70 100 l 1
 90 100 l 1
 90 90 l 1
 100 90 l 1
 100 50 l 1
 90 50 l 1
 90 40 l 1
 80 40 l 1
 80 30 l 1
 90 30 l 1
 90 20 l 1
 100 20 l 1
 100 0 l 1
 80 0 l 1
 80 10 l 1
 70 10 l 1
 70 20 l 1
 60 20 l 1
 60 30 l 1
 50 30 l 1
 50 40 l 1
 40 40 l 1
 40 0 l 1
 20 0 l 1
40 80 m 1
 40 60 l 1
 80 60 l 1
 80 80 l 1
 40 80 l 1
EndSplineSet
EndChar

StartChar: Zcaron
Encoding: 381 381 377
Width: 110
GlyphClass: 1
Flags: W
LayerCount: 2
Fore
SplineSet
20 80 m 1
 20 100 l 1
 40 100 l 1
 40 110 l 1
 30 110 l 1
 30 120 l 1
 50 120 l 1
 50 110 l 1
 70 110 l 1
 70 120 l 1
 90 120 l 1
 90 110 l 1
 80 110 l 1
 80 100 l 1
 100 100 l 1
 100 70 l 1
 90 70 l 1
 90 60 l 1
 80 60 l 1
 80 50 l 1
 70 50 l 1
 70 40 l 1
 60 40 l 1
 60 30 l 1
 50 30 l 1
 50 20 l 1
 100 20 l 1
 100 0 l 1
 20 0 l 1
 20 30 l 1
 30 30 l 1
 30 40 l 1
 40 40 l 1
 40 50 l 1
 50 50 l 1
 50 60 l 1
 60 60 l 1
 60 70 l 1
 70 70 l 1
 70 80 l 1
 20 80 l 1
EndSplineSet
EndChar

StartChar: lacute
Encoding: 314 314 378
Width: 110
GlyphClass: 1
Flags: W
LayerCount: 2
Fore
SplineSet
40 80 m 1
 40 100 l 1
 70 100 l 1
 70 110 l 1
 90 110 l 1
 90 120 l 1
 120 120 l 1
 120 110 l 1
 100 110 l 1
 100 100 l 1
 80 100 l 1
 80 20 l 1
 100 20 l 1
 100 0 l 1
 40 0 l 1
 40 20 l 1
 60 20 l 1
 60 80 l 1
 40 80 l 1
EndSplineSet
EndChar

StartChar: lcaron
Encoding: 318 318 379
Width: 110
GlyphClass: 1
Flags: W
LayerCount: 2
Fore
SplineSet
100 80 m 1
 90 80 l 1
 90 120 l 1
 110 120 l 1
 110 90 l 1
 100 90 l 1
 100 80 l 1
40 100 m 1
 40 120 l 1
 80 120 l 1
 80 20 l 1
 100 20 l 1
 100 0 l 1
 40 0 l 1
 40 20 l 1
 60 20 l 1
 60 100 l 1
 40 100 l 1
EndSplineSet
EndChar

StartChar: racute
Encoding: 341 341 380
Width: 110
GlyphClass: 1
Flags: W
LayerCount: 2
Fore
SplineSet
50 100 m 1
 50 110 l 1
 70 110 l 1
 70 120 l 1
 100 120 l 1
 100 110 l 1
 80 110 l 1
 80 100 l 1
 50 100 l 1
110 70 m 1
 70 70 l 1
 70 60 l 1
 60 60 l 1
 60 0 l 1
 40 0 l 1
 40 90 l 1
 60 90 l 1
 60 80 l 1
 70 80 l 1
 70 90 l 1
 110 90 l 1
 110 70 l 1
EndSplineSet
EndChar

StartChar: zcaron
Encoding: 382 382 381
Width: 110
GlyphClass: 1
Flags: W
LayerCount: 2
Fore
SplineSet
70 120 m 1
 90 120 l 1
 90 110 l 1
 80 110 l 1
 80 100 l 1
 40 100 l 1
 40 110 l 1
 30 110 l 1
 30 120 l 1
 50 120 l 1
 50 110 l 1
 70 110 l 1
 70 120 l 1
20 70 m 1
 20 90 l 1
 100 90 l 1
 100 70 l 1
 90 70 l 1
 90 60 l 1
 80 60 l 1
 80 50 l 1
 70 50 l 1
 70 40 l 1
 60 40 l 1
 60 30 l 1
 50 30 l 1
 50 20 l 1
 100 20 l 1
 100 0 l 1
 20 0 l 1
 20 30 l 1
 30 30 l 1
 30 40 l 1
 40 40 l 1
 40 50 l 1
 50 50 l 1
 50 60 l 1
 60 60 l 1
 60 70 l 1
 20 70 l 1
EndSplineSet
EndChar

StartChar: Acyr
Encoding: 1040 1040 382
Width: 110
GlyphClass: 1
Flags: W
LayerCount: 2
Fore
SplineSet
20 0 m 1
 20 50 l 1
 30 50 l 1
 30 80 l 1
 40 80 l 1
 40 100 l 1
 50 100 l 1
 50 120 l 1
 80 120 l 1
 80 100 l 1
 90 100 l 1
 90 80 l 1
 100 80 l 1
 100 50 l 1
 110 50 l 1
 110 0 l 1
 90 0 l 1
 90 30 l 1
 40 30 l 1
 40 0 l 1
 20 0 l 1
80 50 m 1
 80 70 l 1
 70 70 l 1
 70 90 l 1
 60 90 l 1
 60 70 l 1
 50 70 l 1
 50 50 l 1
 80 50 l 1
EndSplineSet
EndChar

StartChar: Vecyr
Encoding: 1042 1042 383
Width: 110
GlyphClass: 1
Flags: W
LayerCount: 2
Fore
SplineSet
20 0 m 1
 20 120 l 1
 90 120 l 1
 90 110 l 1
 100 110 l 1
 100 70 l 1
 90 70 l 1
 90 60 l 1
 100 60 l 1
 100 10 l 1
 90 10 l 1
 90 0 l 1
 20 0 l 1
40 100 m 1
 40 70 l 1
 80 70 l 1
 80 100 l 1
 40 100 l 1
40 20 m 1
 80 20 l 1
 80 50 l 1
 40 50 l 1
 40 20 l 1
EndSplineSet
EndChar

StartChar: Gecyr
Encoding: 1043 1043 384
Width: 110
GlyphClass: 1
Flags: W
LayerCount: 2
Fore
SplineSet
20 0 m 1
 20 120 l 1
 100 120 l 1
 100 100 l 1
 40 100 l 1
 40 0 l 1
 20 0 l 1
EndSplineSet
EndChar

StartChar: Becyr
Encoding: 1041 1041 385
Width: 110
GlyphClass: 1
Flags: W
LayerCount: 2
Fore
SplineSet
90 10 m 1
 90 0 l 1
 20 0 l 1
 20 120 l 1
 90 120 l 1
 90 100 l 1
 40 100 l 1
 40 70 l 1
 90 70 l 1
 90 60 l 1
 100 60 l 1
 100 10 l 1
 90 10 l 1
80 50 m 1
 40 50 l 1
 40 20 l 1
 80 20 l 1
 80 50 l 1
EndSplineSet
EndChar

StartChar: Decyr
Encoding: 1044 1044 386
Width: 110
GlyphClass: 1
Flags: W
LayerCount: 2
Fore
SplineSet
0 -10 m 1
 0 20 l 1
 10 20 l 1
 10 50 l 1
 20 50 l 1
 20 120 l 1
 90 120 l 1
 90 20 l 1
 100 20 l 1
 100 -10 l 1
 80 -10 l 1
 80 0 l 1
 20 0 l 1
 20 -10 l 1
 0 -10 l 1
70 20 m 1
 70 100 l 1
 40 100 l 1
 40 40 l 1
 30 40 l 1
 30 20 l 1
 70 20 l 1
EndSplineSet
EndChar

StartChar: Iecyr
Encoding: 1045 1045 387
Width: 110
GlyphClass: 1
Flags: W
LayerCount: 2
Fore
SplineSet
20 0 m 1
 20 120 l 1
 100 120 l 1
 100 100 l 1
 40 100 l 1
 40 70 l 1
 90 70 l 1
 90 50 l 1
 40 50 l 1
 40 20 l 1
 100 20 l 1
 100 0 l 1
 20 0 l 1
EndSplineSet
EndChar

StartChar: Encyr
Encoding: 1053 1053 388
Width: 104
GlyphClass: 1
Flags: W
LayerCount: 2
Fore
SplineSet
20 0 m 1
 20 120 l 1
 40 120 l 1
 40 70 l 1
 80 70 l 1
 80 120 l 1
 100 120 l 1
 100 0 l 1
 80 0 l 1
 80 50 l 1
 40 50 l 1
 40 0 l 1
 20 0 l 1
EndSplineSet
EndChar

StartChar: Ocyr
Encoding: 1054 1054 389
Width: 110
GlyphClass: 1
Flags: W
LayerCount: 2
Fore
SplineSet
20 20 m 1
 20 100 l 1
 30 100 l 1
 30 110 l 1
 40 110 l 1
 40 120 l 1
 90 120 l 1
 90 110 l 1
 100 110 l 1
 100 100 l 1
 110 100 l 1
 110 20 l 1
 100 20 l 1
 100 10 l 1
 90 10 l 1
 90 0 l 1
 40 0 l 1
 40 10 l 1
 30 10 l 1
 30 20 l 1
 20 20 l 1
50 20 m 1
 80 20 l 1
 80 30 l 1
 90 30 l 1
 90 90 l 1
 80 90 l 1
 80 100 l 1
 50 100 l 1
 50 90 l 1
 40 90 l 1
 40 30 l 1
 50 30 l 1
 50 20 l 1
EndSplineSet
EndChar

StartChar: Emcyr
Encoding: 1052 1052 390
Width: 110
GlyphClass: 1
Flags: W
LayerCount: 2
Fore
SplineSet
20 0 m 1
 20 120 l 1
 40 120 l 1
 40 90 l 1
 50 90 l 1
 50 60 l 1
 70 60 l 1
 70 90 l 1
 80 90 l 1
 80 120 l 1
 100 120 l 1
 100 0 l 1
 80 0 l 1
 80 40 l 1
 70 40 l 1
 70 0 l 1
 50 0 l 1
 50 40 l 1
 40 40 l 1
 40 0 l 1
 20 0 l 1
EndSplineSet
EndChar

StartChar: Kacyr
Encoding: 1050 1050 391
Width: 110
GlyphClass: 1
Flags: W
LayerCount: 2
Fore
SplineSet
20 0 m 1
 20 120 l 1
 40 120 l 1
 40 80 l 1
 50 80 l 1
 50 90 l 1
 60 90 l 1
 60 100 l 1
 70 100 l 1
 70 110 l 1
 80 110 l 1
 80 120 l 1
 100 120 l 1
 100 100 l 1
 90 100 l 1
 90 90 l 1
 80 90 l 1
 80 80 l 1
 70 80 l 1
 70 70 l 1
 80 70 l 1
 80 50 l 1
 90 50 l 1
 90 30 l 1
 100 30 l 1
 100 0 l 1
 80 0 l 1
 80 20 l 1
 70 20 l 1
 70 40 l 1
 60 40 l 1
 60 60 l 1
 50 60 l 1
 50 50 l 1
 40 50 l 1
 40 0 l 1
 20 0 l 1
EndSplineSet
EndChar

StartChar: Icyr
Encoding: 1048 1048 392
Width: 110
GlyphClass: 1
Flags: W
LayerCount: 2
Fore
SplineSet
20 120 m 1
 40 120 l 1
 40 50 l 1
 50 50 l 1
 50 70 l 1
 60 70 l 1
 60 90 l 1
 70 90 l 1
 70 110 l 1
 80 110 l 1
 80 120 l 1
 100 120 l 1
 100 0 l 1
 80 0 l 1
 80 70 l 1
 70 70 l 1
 70 50 l 1
 60 50 l 1
 60 30 l 1
 50 30 l 1
 50 10 l 1
 40 10 l 1
 40 0 l 1
 20 0 l 1
 20 120 l 1
EndSplineSet
EndChar

StartChar: Ishortcyr
Encoding: 1049 1049 393
Width: 110
GlyphClass: 1
Flags: W
LayerCount: 2
Fore
SplineSet
70 120 m 1
 90 120 l 1
 90 110 l 1
 80 110 l 1
 80 100 l 1
 40 100 l 1
 40 110 l 1
 30 110 l 1
 30 120 l 1
 50 120 l 1
 50 110 l 1
 70 110 l 1
 70 120 l 1
20 100 m 1
 40 100 l 1
 40 50 l 1
 50 50 l 1
 50 60 l 1
 60 60 l 1
 60 70 l 1
 70 70 l 1
 70 80 l 1
 80 80 l 1
 80 100 l 1
 100 100 l 1
 100 0 l 1
 80 0 l 1
 80 50 l 1
 70 50 l 1
 70 40 l 1
 60 40 l 1
 60 30 l 1
 50 30 l 1
 50 20 l 1
 40 20 l 1
 40 0 l 1
 20 0 l 1
 20 100 l 1
EndSplineSet
EndChar

StartChar: Zecyr
Encoding: 1047 1047 394
Width: 110
GlyphClass: 1
Flags: W
LayerCount: 2
Fore
SplineSet
80 100 m 1
 40 100 l 1
 40 90 l 1
 20 90 l 1
 20 110 l 1
 30 110 l 1
 30 120 l 1
 90 120 l 1
 90 110 l 1
 100 110 l 1
 100 70 l 1
 90 70 l 1
 90 60 l 1
 100 60 l 1
 100 10 l 1
 90 10 l 1
 90 0 l 1
 30 0 l 1
 30 10 l 1
 20 10 l 1
 20 30 l 1
 40 30 l 1
 40 20 l 1
 80 20 l 1
 80 50 l 1
 30 50 l 1
 30 70 l 1
 80 70 l 1
 80 100 l 1
EndSplineSet
EndChar

StartChar: Zhecyr
Encoding: 1046 1046 395
Width: 110
GlyphClass: 1
Flags: W
LayerCount: 2
Fore
SplineSet
70 0 m 1
 50 0 l 1
 50 30 l 1
 40 30 l 1
 40 0 l 1
 20 0 l 1
 20 30 l 1
 30 30 l 1
 30 50 l 1
 40 50 l 1
 40 70 l 1
 30 70 l 1
 30 90 l 1
 20 90 l 1
 20 120 l 1
 40 120 l 1
 40 90 l 1
 50 90 l 1
 50 120 l 1
 70 120 l 1
 70 90 l 1
 80 90 l 1
 80 120 l 1
 100 120 l 1
 100 90 l 1
 90 90 l 1
 90 70 l 1
 80 70 l 1
 80 50 l 1
 90 50 l 1
 90 30 l 1
 100 30 l 1
 100 0 l 1
 80 0 l 1
 80 30 l 1
 70 30 l 1
 70 0 l 1
EndSplineSet
EndChar

StartChar: Tecyr
Encoding: 1058 1058 396
Width: 110
GlyphClass: 1
Flags: W
LayerCount: 2
Fore
SplineSet
20 100 m 1
 20 120 l 1
 100 120 l 1
 100 100 l 1
 70 100 l 1
 70 0 l 1
 50 0 l 1
 50 100 l 1
 20 100 l 1
EndSplineSet
EndChar

StartChar: Pecyr
Encoding: 1055 1055 397
Width: 110
GlyphClass: 1
Flags: W
LayerCount: 2
Fore
SplineSet
20 0 m 1
 20 120 l 1
 100 120 l 1
 100 0 l 1
 80 0 l 1
 80 100 l 1
 40 100 l 1
 40 0 l 1
 20 0 l 1
EndSplineSet
EndChar

StartChar: Ercyr
Encoding: 1056 1056 398
Width: 110
GlyphClass: 1
Flags: W
LayerCount: 2
Fore
SplineSet
20 0 m 1
 20 120 l 1
 90 120 l 1
 90 110 l 1
 100 110 l 1
 100 50 l 1
 90 50 l 1
 90 40 l 1
 40 40 l 1
 40 0 l 1
 20 0 l 1
40 100 m 1
 40 60 l 1
 80 60 l 1
 80 100 l 1
 40 100 l 1
EndSplineSet
EndChar

StartChar: Escyr
Encoding: 1057 1057 399
Width: 110
GlyphClass: 1
Flags: W
LayerCount: 2
Fore
SplineSet
20 20 m 1
 20 100 l 1
 30 100 l 1
 30 110 l 1
 40 110 l 1
 40 120 l 1
 90 120 l 1
 90 110 l 1
 100 110 l 1
 100 90 l 1
 80 90 l 1
 80 100 l 1
 50 100 l 1
 50 90 l 1
 40 90 l 1
 40 30 l 1
 50 30 l 1
 50 20 l 1
 80 20 l 1
 80 30 l 1
 100 30 l 1
 100 10 l 1
 90 10 l 1
 90 0 l 1
 40 0 l 1
 40 10 l 1
 30 10 l 1
 30 20 l 1
 20 20 l 1
EndSplineSet
EndChar

StartChar: Hacyr
Encoding: 1061 1061 400
Width: 110
GlyphClass: 1
Flags: W
LayerCount: 2
Fore
SplineSet
20 90 m 1
 20 120 l 1
 40 120 l 1
 40 100 l 1
 50 100 l 1
 50 80 l 1
 70 80 l 1
 70 100 l 1
 80 100 l 1
 80 120 l 1
 100 120 l 1
 100 90 l 1
 90 90 l 1
 90 70 l 1
 80 70 l 1
 80 50 l 1
 90 50 l 1
 90 30 l 1
 100 30 l 1
 100 0 l 1
 80 0 l 1
 80 20 l 1
 70 20 l 1
 70 40 l 1
 50 40 l 1
 50 20 l 1
 40 20 l 1
 40 0 l 1
 20 0 l 1
 20 30 l 1
 30 30 l 1
 30 50 l 1
 40 50 l 1
 40 70 l 1
 30 70 l 1
 30 90 l 1
 20 90 l 1
EndSplineSet
EndChar

StartChar: Yacyr
Encoding: 1071 1071 401
Width: 110
GlyphClass: 1
Flags: W
LayerCount: 2
Fore
SplineSet
100 0 m 1
 80 0 l 1
 80 50 l 1
 60 50 l 1
 60 30 l 1
 50 30 l 1
 50 10 l 1
 40 10 l 1
 40 0 l 1
 20 0 l 1
 20 20 l 1
 30 20 l 1
 30 40 l 1
 40 40 l 1
 40 50 l 1
 30 50 l 1
 30 60 l 1
 20 60 l 1
 20 110 l 1
 30 110 l 1
 30 120 l 1
 100 120 l 1
 100 0 l 1
80 100 m 1
 40 100 l 1
 40 70 l 1
 80 70 l 1
 80 100 l 1
EndSplineSet
EndChar

StartChar: Softcyr
Encoding: 1068 1068 402
Width: 110
GlyphClass: 1
Flags: W
LayerCount: 2
Fore
SplineSet
20 120 m 1
 40 120 l 1
 40 70 l 1
 90 70 l 1
 90 60 l 1
 100 60 l 1
 100 10 l 1
 90 10 l 1
 90 0 l 1
 20 0 l 1
 20 120 l 1
40 20 m 1
 80 20 l 1
 80 50 l 1
 40 50 l 1
 40 20 l 1
EndSplineSet
EndChar

StartChar: Hardcyr
Encoding: 1066 1066 403
Width: 110
GlyphClass: 1
Flags: W
LayerCount: 2
Fore
SplineSet
0 100 m 1
 0 120 l 1
 40 120 l 1
 40 70 l 1
 90 70 l 1
 90 60 l 1
 100 60 l 1
 100 10 l 1
 90 10 l 1
 90 0 l 1
 20 0 l 1
 20 100 l 1
 0 100 l 1
40 20 m 1
 80 20 l 1
 80 50 l 1
 40 50 l 1
 40 20 l 1
EndSplineSet
EndChar

StartChar: Ylongcyr
Encoding: 1067 1067 404
Width: 110
GlyphClass: 1
Flags: W
LayerCount: 2
Fore
SplineSet
20 120 m 1
 40 120 l 1
 40 70 l 1
 70 70 l 1
 70 60 l 1
 80 60 l 1
 80 10 l 1
 70 10 l 1
 70 0 l 1
 20 0 l 1
 20 120 l 1
90 120 m 1
 110 120 l 1
 110 0 l 1
 90 0 l 1
 90 120 l 1
40 20 m 1
 60 20 l 1
 60 50 l 1
 40 50 l 1
 40 20 l 1
EndSplineSet
EndChar

StartChar: Tsecyr
Encoding: 1062 1062 405
Width: 110
GlyphClass: 1
Flags: W
LayerCount: 2
Fore
SplineSet
90 -10 m 1
 90 0 l 1
 20 0 l 1
 20 120 l 1
 40 120 l 1
 40 20 l 1
 80 20 l 1
 80 120 l 1
 100 120 l 1
 100 20 l 1
 110 20 l 1
 110 -10 l 1
 90 -10 l 1
EndSplineSet
EndChar

StartChar: Shacyr
Encoding: 1064 1064 406
Width: 110
GlyphClass: 1
Flags: W
LayerCount: 2
Fore
SplineSet
50 20 m 1
 50 120 l 1
 70 120 l 1
 70 20 l 1
 80 20 l 1
 80 120 l 1
 100 120 l 1
 100 0 l 1
 20 0 l 1
 20 120 l 1
 40 120 l 1
 40 20 l 1
 50 20 l 1
EndSplineSet
EndChar

StartChar: elcyr
Encoding: 1083 1083 407
Width: 110
GlyphClass: 1
Flags: W
LayerCount: 2
Fore
SplineSet
40 0 m 1
 20 0 l 1
 20 20 l 1
 30 20 l 1
 30 40 l 1
 40 40 l 1
 40 90 l 1
 110 90 l 1
 110 0 l 1
 90 0 l 1
 90 70 l 1
 60 70 l 1
 60 30 l 1
 50 30 l 1
 50 10 l 1
 40 10 l 1
 40 0 l 1
EndSplineSet
EndChar

StartChar: Shchacyr
Encoding: 1065 1065 408
Width: 110
GlyphClass: 1
Flags: W
LayerCount: 2
Fore
SplineSet
50 20 m 1
 50 120 l 1
 70 120 l 1
 70 20 l 1
 80 20 l 1
 80 120 l 1
 100 120 l 1
 100 20 l 1
 110 20 l 1
 110 -10 l 1
 90 -10 l 1
 90 0 l 1
 20 0 l 1
 20 120 l 1
 40 120 l 1
 40 20 l 1
 50 20 l 1
EndSplineSet
EndChar

StartChar: Elcyr
Encoding: 1051 1051 409
Width: 110
GlyphClass: 1
Flags: W
LayerCount: 2
Fore
SplineSet
20 -10 m 1
 0 -10 l 1
 0 10 l 1
 10 10 l 1
 10 40 l 1
 20 40 l 1
 20 120 l 1
 100 120 l 1
 100 -10 l 1
 80 -10 l 1
 80 100 l 1
 40 100 l 1
 40 30 l 1
 30 30 l 1
 30 0 l 1
 20 0 l 1
 20 -10 l 1
EndSplineSet
EndChar

StartChar: Ucyr
Encoding: 1059 1059 410
Width: 110
GlyphClass: 1
Flags: W
LayerCount: 2
Fore
SplineSet
30 70 m 1
 30 90 l 1
 20 90 l 1
 20 120 l 1
 40 120 l 1
 40 100 l 1
 50 100 l 1
 50 80 l 1
 60 80 l 1
 60 60 l 1
 70 60 l 1
 70 80 l 1
 80 80 l 1
 80 100 l 1
 90 100 l 1
 90 120 l 1
 110 120 l 1
 110 90 l 1
 100 90 l 1
 100 70 l 1
 90 70 l 1
 90 50 l 1
 80 50 l 1
 80 30 l 1
 70 30 l 1
 70 20 l 1
 60 20 l 1
 60 10 l 1
 50 10 l 1
 50 0 l 1
 20 0 l 1
 20 20 l 1
 40 20 l 1
 40 30 l 1
 50 30 l 1
 50 50 l 1
 40 50 l 1
 40 70 l 1
 30 70 l 1
EndSplineSet
EndChar

StartChar: Efcyr
Encoding: 1060 1060 411
Width: 110
GlyphClass: 1
Flags: W
LayerCount: 2
Fore
SplineSet
30 30 m 1
 30 90 l 1
 40 90 l 1
 40 100 l 1
 60 100 l 1
 60 120 l 1
 80 120 l 1
 80 100 l 1
 100 100 l 1
 100 90 l 1
 110 90 l 1
 110 30 l 1
 100 30 l 1
 100 20 l 1
 80 20 l 1
 80 0 l 1
 60 0 l 1
 60 20 l 1
 40 20 l 1
 40 30 l 1
 30 30 l 1
50 40 m 1
 60 40 l 1
 60 80 l 1
 50 80 l 1
 50 40 l 1
80 40 m 1
 90 40 l 1
 90 80 l 1
 80 80 l 1
 80 40 l 1
EndSplineSet
EndChar

StartChar: Checyr
Encoding: 1063 1063 412
Width: 110
GlyphClass: 1
Flags: W
LayerCount: 2
Fore
SplineSet
20 120 m 1
 40 120 l 1
 40 60 l 1
 70 60 l 1
 70 70 l 1
 80 70 l 1
 80 120 l 1
 100 120 l 1
 100 0 l 1
 80 0 l 1
 80 50 l 1
 70 50 l 1
 70 40 l 1
 30 40 l 1
 30 50 l 1
 20 50 l 1
 20 120 l 1
EndSplineSet
EndChar

StartChar: Ereversedcyr
Encoding: 1069 1069 413
Width: 110
GlyphClass: 1
Flags: W
LayerCount: 2
Fore
SplineSet
40 50 m 1
 40 70 l 1
 80 70 l 1
 80 90 l 1
 70 90 l 1
 70 100 l 1
 40 100 l 1
 40 90 l 1
 20 90 l 1
 20 110 l 1
 30 110 l 1
 30 120 l 1
 80 120 l 1
 80 110 l 1
 90 110 l 1
 90 100 l 1
 100 100 l 1
 100 20 l 1
 90 20 l 1
 90 10 l 1
 80 10 l 1
 80 0 l 1
 30 0 l 1
 30 10 l 1
 20 10 l 1
 20 30 l 1
 40 30 l 1
 40 20 l 1
 70 20 l 1
 70 30 l 1
 80 30 l 1
 80 50 l 1
 40 50 l 1
EndSplineSet
EndChar

StartChar: Yucyr
Encoding: 1070 1070 414
Width: 110
GlyphClass: 1
Flags: W
LayerCount: 2
Fore
SplineSet
40 10 m 1
 40 50 l 1
 20 50 l 1
 20 0 l 1
 0 0 l 1
 0 120 l 1
 20 120 l 1
 20 70 l 1
 40 70 l 1
 40 110 l 1
 50 110 l 1
 50 120 l 1
 90 120 l 1
 90 110 l 1
 100 110 l 1
 100 10 l 1
 90 10 l 1
 90 0 l 1
 50 0 l 1
 50 10 l 1
 40 10 l 1
60 20 m 1
 80 20 l 1
 80 100 l 1
 60 100 l 1
 60 20 l 1
EndSplineSet
EndChar

StartChar: acyr
Encoding: 1072 1072 415
Width: 110
GlyphClass: 1
Flags: W
LayerCount: 2
Fore
SplineSet
90 80 m 1
 100 80 l 1
 100 0 l 1
 30 0 l 1
 30 10 l 1
 20 10 l 1
 20 50 l 1
 30 50 l 1
 30 60 l 1
 80 60 l 1
 80 70 l 1
 30 70 l 1
 30 90 l 1
 90 90 l 1
 90 80 l 1
80 20 m 1
 80 40 l 1
 40 40 l 1
 40 20 l 1
 80 20 l 1
EndSplineSet
EndChar

StartChar: vecyr
Encoding: 1074 1074 416
Width: 110
GlyphClass: 1
Flags: W
LayerCount: 2
Fore
SplineSet
20 0 m 1
 20 90 l 1
 90 90 l 1
 90 80 l 1
 100 80 l 1
 100 60 l 1
 90 60 l 1
 90 50 l 1
 100 50 l 1
 100 10 l 1
 90 10 l 1
 90 0 l 1
 20 0 l 1
40 70 m 1
 40 60 l 1
 80 60 l 1
 80 70 l 1
 40 70 l 1
40 20 m 1
 80 20 l 1
 80 40 l 1
 40 40 l 1
 40 20 l 1
EndSplineSet
EndChar

StartChar: becyr
Encoding: 1073 1073 417
Width: 110
GlyphClass: 1
Flags: W
LayerCount: 2
Fore
SplineSet
40 90 m 1
 40 80 l 1
 90 80 l 1
 90 70 l 1
 100 70 l 1
 100 10 l 1
 90 10 l 1
 90 0 l 1
 30 0 l 1
 30 10 l 1
 20 10 l 1
 20 100 l 1
 30 100 l 1
 30 110 l 1
 50 110 l 1
 50 120 l 1
 100 120 l 1
 100 100 l 1
 60 100 l 1
 60 90 l 1
 40 90 l 1
40 20 m 1
 80 20 l 1
 80 60 l 1
 40 60 l 1
 40 20 l 1
EndSplineSet
EndChar

StartChar: gecyr
Encoding: 1075 1075 418
Width: 110
GlyphClass: 1
Flags: W
LayerCount: 2
Fore
SplineSet
40 0 m 1
 40 90 l 1
 110 90 l 1
 110 70 l 1
 60 70 l 1
 60 0 l 1
 40 0 l 1
EndSplineSet
EndChar

StartChar: iecyr
Encoding: 1077 1077 419
Width: 110
GlyphClass: 1
Flags: W
LayerCount: 2
Fore
SplineSet
20 10 m 1
 20 80 l 1
 30 80 l 1
 30 90 l 1
 90 90 l 1
 90 80 l 1
 100 80 l 1
 100 40 l 1
 40 40 l 1
 40 20 l 1
 80 20 l 1
 80 30 l 1
 100 30 l 1
 100 10 l 1
 90 10 l 1
 90 0 l 1
 30 0 l 1
 30 10 l 1
 20 10 l 1
40 60 m 1
 80 60 l 1
 80 70 l 1
 40 70 l 1
 40 60 l 1
EndSplineSet
EndChar

StartChar: icyr
Encoding: 1080 1080 420
Width: 110
GlyphClass: 1
Flags: W
LayerCount: 2
Fore
SplineSet
20 90 m 1
 40 90 l 1
 40 40 l 1
 50 40 l 1
 50 50 l 1
 60 50 l 1
 60 60 l 1
 70 60 l 1
 70 70 l 1
 80 70 l 1
 80 90 l 1
 100 90 l 1
 100 0 l 1
 80 0 l 1
 80 40 l 1
 70 40 l 1
 70 30 l 1
 60 30 l 1
 60 20 l 1
 50 20 l 1
 50 10 l 1
 40 10 l 1
 40 0 l 1
 20 0 l 1
 20 90 l 1
EndSplineSet
EndChar

StartChar: ishortcyr
Encoding: 1081 1081 421
Width: 110
GlyphClass: 1
Flags: W
LayerCount: 2
Fore
SplineSet
70 120 m 1
 90 120 l 1
 90 110 l 1
 80 110 l 1
 80 100 l 1
 40 100 l 1
 40 110 l 1
 30 110 l 1
 30 120 l 1
 50 120 l 1
 50 110 l 1
 70 110 l 1
 70 120 l 1
20 90 m 1
 40 90 l 1
 40 40 l 1
 50 40 l 1
 50 50 l 1
 60 50 l 1
 60 60 l 1
 70 60 l 1
 70 70 l 1
 80 70 l 1
 80 90 l 1
 100 90 l 1
 100 0 l 1
 80 0 l 1
 80 40 l 1
 70 40 l 1
 70 30 l 1
 60 30 l 1
 60 20 l 1
 50 20 l 1
 50 10 l 1
 40 10 l 1
 40 0 l 1
 20 0 l 1
 20 90 l 1
EndSplineSet
EndChar

StartChar: ocyr
Encoding: 1086 1086 422
Width: 110
GlyphClass: 1
Flags: W
LayerCount: 2
Fore
SplineSet
20 10 m 1
 20 80 l 1
 30 80 l 1
 30 90 l 1
 90 90 l 1
 90 80 l 1
 100 80 l 1
 100 10 l 1
 90 10 l 1
 90 0 l 1
 30 0 l 1
 30 10 l 1
 20 10 l 1
40 20 m 1
 80 20 l 1
 80 70 l 1
 40 70 l 1
 40 20 l 1
EndSplineSet
EndChar

StartChar: escyr
Encoding: 1089 1089 423
Width: 110
GlyphClass: 1
Flags: W
LayerCount: 2
Fore
SplineSet
20 10 m 1
 20 80 l 1
 30 80 l 1
 30 90 l 1
 90 90 l 1
 90 80 l 1
 100 80 l 1
 100 60 l 1
 80 60 l 1
 80 70 l 1
 40 70 l 1
 40 20 l 1
 80 20 l 1
 80 30 l 1
 100 30 l 1
 100 10 l 1
 90 10 l 1
 90 0 l 1
 30 0 l 1
 30 10 l 1
 20 10 l 1
EndSplineSet
EndChar

StartChar: ercyr
Encoding: 1088 1088 424
Width: 110
GlyphClass: 1
Flags: W
LayerCount: 2
Fore
SplineSet
20 -10 m 1
 20 90 l 1
 90 90 l 1
 90 80 l 1
 100 80 l 1
 100 30 l 1
 90 30 l 1
 90 20 l 1
 40 20 l 1
 40 -10 l 1
 20 -10 l 1
40 70 m 1
 40 40 l 1
 80 40 l 1
 80 70 l 1
 40 70 l 1
EndSplineSet
EndChar

StartChar: ucyr
Encoding: 1091 1091 425
Width: 110
GlyphClass: 1
Flags: W
LayerCount: 2
Fore
SplineSet
20 70 m 1
 20 90 l 1
 40 90 l 1
 40 70 l 1
 50 70 l 1
 50 50 l 1
 70 50 l 1
 70 70 l 1
 80 70 l 1
 80 90 l 1
 100 90 l 1
 100 70 l 1
 90 70 l 1
 90 50 l 1
 80 50 l 1
 80 30 l 1
 70 30 l 1
 70 10 l 1
 60 10 l 1
 60 0 l 1
 50 0 l 1
 50 -10 l 1
 20 -10 l 1
 20 10 l 1
 40 10 l 1
 40 20 l 1
 50 20 l 1
 50 30 l 1
 40 30 l 1
 40 50 l 1
 30 50 l 1
 30 70 l 1
 20 70 l 1
EndSplineSet
EndChar

StartChar: hacyr
Encoding: 1093 1093 426
Width: 110
GlyphClass: 1
Flags: W
LayerCount: 2
Fore
SplineSet
30 60 m 1
 30 70 l 1
 20 70 l 1
 20 90 l 1
 40 90 l 1
 40 80 l 1
 50 80 l 1
 50 70 l 1
 70 70 l 1
 70 80 l 1
 80 80 l 1
 80 90 l 1
 100 90 l 1
 100 70 l 1
 90 70 l 1
 90 60 l 1
 80 60 l 1
 80 50 l 1
 70 50 l 1
 70 40 l 1
 80 40 l 1
 80 30 l 1
 90 30 l 1
 90 20 l 1
 100 20 l 1
 100 0 l 1
 80 0 l 1
 80 10 l 1
 70 10 l 1
 70 20 l 1
 50 20 l 1
 50 10 l 1
 40 10 l 1
 40 0 l 1
 20 0 l 1
 20 20 l 1
 30 20 l 1
 30 30 l 1
 40 30 l 1
 40 40 l 1
 50 40 l 1
 50 50 l 1
 40 50 l 1
 40 60 l 1
 30 60 l 1
EndSplineSet
EndChar

StartChar: ereversedcyr
Encoding: 1101 1101 427
Width: 110
GlyphClass: 1
Flags: W
LayerCount: 2
Fore
SplineSet
100 10 m 1
 90 10 l 1
 90 0 l 1
 30 0 l 1
 30 10 l 1
 20 10 l 1
 20 30 l 1
 40 30 l 1
 40 20 l 1
 80 20 l 1
 80 70 l 1
 40 70 l 1
 40 60 l 1
 20 60 l 1
 20 80 l 1
 30 80 l 1
 30 90 l 1
 90 90 l 1
 90 80 l 1
 100 80 l 1
 100 10 l 1
EndSplineSet
EndChar

StartChar: zecyr
Encoding: 1079 1079 428
Width: 110
GlyphClass: 1
Flags: W
LayerCount: 2
Fore
SplineSet
80 70 m 1
 40 70 l 1
 40 60 l 1
 20 60 l 1
 20 80 l 1
 30 80 l 1
 30 90 l 1
 90 90 l 1
 90 80 l 1
 100 80 l 1
 100 60 l 1
 90 60 l 1
 90 50 l 1
 100 50 l 1
 100 10 l 1
 90 10 l 1
 90 0 l 1
 30 0 l 1
 30 10 l 1
 20 10 l 1
 20 30 l 1
 40 30 l 1
 40 20 l 1
 80 20 l 1
 80 40 l 1
 50 40 l 1
 50 60 l 1
 80 60 l 1
 80 70 l 1
EndSplineSet
EndChar

StartChar: decyr
Encoding: 1076 1076 429
Width: 110
GlyphClass: 1
Flags: W
LayerCount: 2
Fore
SplineSet
20 -10 m 1
 20 20 l 1
 30 20 l 1
 30 40 l 1
 40 40 l 1
 40 90 l 1
 100 90 l 1
 100 20 l 1
 110 20 l 1
 110 -10 l 1
 90 -10 l 1
 90 0 l 1
 40 0 l 1
 40 -10 l 1
 20 -10 l 1
80 20 m 1
 80 70 l 1
 60 70 l 1
 60 30 l 1
 50 30 l 1
 50 20 l 1
 80 20 l 1
EndSplineSet
EndChar

StartChar: zhecyr
Encoding: 1078 1078 430
Width: 110
GlyphClass: 1
Flags: W
LayerCount: 2
Fore
SplineSet
70 0 m 1
 50 0 l 1
 50 30 l 1
 40 30 l 1
 40 0 l 1
 20 0 l 1
 20 30 l 1
 30 30 l 1
 30 60 l 1
 20 60 l 1
 20 90 l 1
 40 90 l 1
 40 60 l 1
 50 60 l 1
 50 90 l 1
 70 90 l 1
 70 60 l 1
 80 60 l 5
 80 90 l 5
 100 90 l 5
 100 60 l 5
 90 60 l 5
 90 30 l 5
 100 30 l 5
 100 0 l 5
 80 0 l 5
 80 30 l 5
 70 30 l 1
 70 0 l 1
EndSplineSet
EndChar

StartChar: kacyr
Encoding: 1082 1082 431
Width: 110
GlyphClass: 1
Flags: W
LayerCount: 2
Fore
SplineSet
20 0 m 1
 20 90 l 1
 40 90 l 1
 40 50 l 1
 50 50 l 1
 50 60 l 1
 60 60 l 1
 60 70 l 1
 70 70 l 1
 70 80 l 1
 80 80 l 1
 80 90 l 1
 100 90 l 1
 100 70 l 1
 90 70 l 1
 90 60 l 1
 80 60 l 1
 80 50 l 1
 70 50 l 1
 70 40 l 1
 80 40 l 1
 80 30 l 1
 90 30 l 1
 90 20 l 1
 100 20 l 1
 100 0 l 1
 80 0 l 1
 80 10 l 1
 70 10 l 1
 70 20 l 1
 60 20 l 1
 60 30 l 1
 50 30 l 1
 50 20 l 1
 40 20 l 1
 40 0 l 1
 20 0 l 1
EndSplineSet
EndChar

StartChar: encyr
Encoding: 1085 1085 432
Width: 110
GlyphClass: 1
Flags: W
LayerCount: 2
Fore
SplineSet
20 0 m 1
 20 90 l 1
 40 90 l 1
 40 60 l 1
 80 60 l 1
 80 90 l 1
 100 90 l 1
 100 0 l 1
 80 0 l 1
 80 40 l 1
 40 40 l 1
 40 0 l 1
 20 0 l 1
EndSplineSet
EndChar

StartChar: emcyr
Encoding: 1084 1084 433
Width: 110
GlyphClass: 1
Flags: W
LayerCount: 2
Fore
SplineSet
20 0 m 1
 20 90 l 1
 40 90 l 1
 40 70 l 1
 50 70 l 1
 50 50 l 1
 70 50 l 1
 70 70 l 1
 80 70 l 1
 80 90 l 1
 100 90 l 1
 100 0 l 1
 80 0 l 1
 80 30 l 1
 70 30 l 1
 70 0 l 1
 50 0 l 1
 50 30 l 1
 40 30 l 1
 40 0 l 1
 20 0 l 1
EndSplineSet
EndChar

StartChar: pecyr
Encoding: 1087 1087 434
Width: 110
GlyphClass: 1
Flags: W
LayerCount: 2
Fore
SplineSet
20 0 m 1
 20 90 l 1
 100 90 l 1
 100 0 l 1
 80 0 l 1
 80 70 l 1
 40 70 l 1
 40 0 l 1
 20 0 l 1
EndSplineSet
EndChar

StartChar: tecyr
Encoding: 1090 1090 435
Width: 110
GlyphClass: 1
Flags: W
LayerCount: 2
Fore
SplineSet
20 70 m 1
 20 90 l 1
 100 90 l 1
 100 70 l 1
 70 70 l 1
 70 0 l 1
 50 0 l 1
 50 70 l 1
 20 70 l 1
EndSplineSet
EndChar

